<svg xmlns="http://www.w3.org/2000/svg" viewBox="0 0 745.9224 1073.7763"><g id="Layer_2" data-name="Layer 2"><g id="Components"><g id="_1dc591a2-1d2d-4b16-9673-1740c5854a0e_1" data-name="1dc591a2-1d2d-4b16-9673-1740c5854a0e@1"><path d="M168.8929,769.9509H123.8762a1.4546,1.4546,0,0,0-1.6489,1.6395v5.9168a1.4509,1.4509,0,0,0,1.6489,1.6394q7.8856,0,10.8442,6.0816a31.5981,31.5981,0,0,1,2.9494,13.9676V937.8547Q59.14,789.3406,48.9549,771.59q-.9888-1.6349-4.2678-1.6395H1.64A1.4479,1.4479,0,0,0,0,771.59v5.9168a1.4442,1.4442,0,0,0,1.64,1.6394q7.8857,0,10.8442,6.0816a31.6,31.6,0,0,1,2.9583,13.9676V937.8547a31.5994,31.5994,0,0,1-2.9583,13.9676Q9.53,957.8948,1.64,957.8947A1.4507,1.4507,0,0,0,0,959.5434v5.9075A1.4507,1.4507,0,0,0,1.64,967.1H46.6562a1.4545,1.4545,0,0,0,1.6395-1.6487v-5.9075a1.4545,1.4545,0,0,0-1.6395-1.6487q-7.2268,0-10.35-5.0924a24.7235,24.7235,0,0,1-3.4534-11.9892v-135.38l86.0862,158.0487c1.3188,2.418,2.6287,3.6178,3.9476,3.6178h30.5545a1.457,1.457,0,0,0,1.6484-1.6487V796.2374a24.7583,24.7583,0,0,1,3.4441-11.9983q3.1187-5.0834,10.3589-5.0925a1.4479,1.4479,0,0,0,1.6395-1.6394V771.59A1.4516,1.4516,0,0,0,168.8929,769.9509Z" style="fill:#f3f3f2"/><path d="M379.8352,816.772a103.2442,103.2442,0,0,0-35.6564-37.6254,91.0666,91.0666,0,0,0-96.93,0,101.9,101.9,0,0,0-35.4819,37.6254,103.78,103.78,0,0,0-13.1433,51.2541,105.9636,105.9636,0,0,0,13.1433,52.0784,101.4058,101.4058,0,0,0,35.4819,37.79,91.066,91.066,0,0,0,96.93,0,102.7313,102.7313,0,0,0,35.6564-37.79,105.0218,105.0218,0,0,0,13.3079-52.0784A102.8648,102.8648,0,0,0,379.8352,816.772Zm-28.0908,95.6114q-7.8862,20.388-22.348,32.6978A50.5578,50.5578,0,0,1,295.5535,957.4a49.4647,49.4647,0,0,1-33.3482-12.319q-14.3022-12.3234-22.0185-32.6978a124.1284,124.1284,0,0,1-7.7208-44.3573,122.2663,122.2663,0,0,1,7.7208-43.6978q7.7212-20.3743,22.0185-32.533a49.9068,49.9068,0,0,1,33.3482-12.1541,51.1871,51.1871,0,0,1,33.6779,12.1541q14.6179,12.1585,22.513,32.533a119.9945,119.9945,0,0,1,7.8858,43.6978A121.8162,121.8162,0,0,1,351.7444,912.3834Z" style="fill:#f3f3f2"/><path d="M580.2812,770.4364h-45.997a1.4508,1.4508,0,0,0-1.64,1.6486v5.9167a1.448,1.448,0,0,0,1.64,1.6395q6.5667,0,10.185,4.1033a14.67,14.67,0,0,1,3.6176,10.0291,18.5,18.5,0,0,1-.9893,5.9076L500.7714,931.7731,455.7547,799.6812a19.5075,19.5075,0,0,1-.9892-6.2373,14.4454,14.4454,0,0,1,3.4529-9.8643q3.4481-3.943,10.02-3.9384a1.4516,1.4516,0,0,0,1.6395-1.6395V772.085a1.4544,1.4544,0,0,0-1.6395-1.6486h-58.49a1.4508,1.4508,0,0,0-1.6395,1.6486v5.9167a1.448,1.448,0,0,0,1.6395,1.6395q4.2732,0,7.3917,5.7519a121.4988,121.4988,0,0,1,6.4113,14.2881l59.1493,166.5941a1.536,1.536,0,0,0,1.6395,1.31h26.2862a1.5384,1.5384,0,0,0,1.1449-.4854,1.5821,1.5821,0,0,0,.4946-1.154l-2.6287-8.2157,56.8505-158.0487a121.5285,121.5285,0,0,1,6.4019-14.2881q3.1188-5.7427,7.3917-5.7519a1.4543,1.4543,0,0,0,1.6484-1.6395V772.085A1.4571,1.4571,0,0,0,580.2812,770.4364Z" style="fill:#f3f3f2"/><path d="M744.2828,958.3894q-4.2724,0-7.4-5.752a122.4,122.4,0,0,1-6.4024-14.2881l-58.49-166.594a1.5628,1.5628,0,0,0-1.6395-1.3189H644.3946a1.69,1.69,0,0,0-1.6489,1.6486l2.6287,8.5454L588.5333,938.3493a123.7781,123.7781,0,0,1-6.4114,14.2881q-3.1186,5.7566-7.3912,5.752a1.4478,1.4478,0,0,0-1.6395,1.6394v5.9168a1.4442,1.4442,0,0,0,1.6395,1.6394h45.0167a1.4479,1.4479,0,0,0,1.6395-1.6394v-5.9168a1.4515,1.4515,0,0,0-1.6395-1.6394q-6.2508,0-9.3607-4.1033a16.05,16.05,0,0,1-3.123-10.0292,18.7494,18.7494,0,0,1,.98-5.9076l11.8334-33.5221h67.0262L691.38,916.99q7.2261,21.0337,7.2266,21.3589a29.0869,29.0869,0,0,1,.6592,5.5779,16.2409,16.2409,0,0,1-3.288,10.194q-3.2837,4.2727-9.5253,4.2682a1.4544,1.4544,0,0,0-1.6489,1.6394v5.9168a1.4508,1.4508,0,0,0,1.6489,1.6394h57.83a1.4477,1.4477,0,0,0,1.64-1.6394v-5.9168A1.4514,1.4514,0,0,0,744.2828,958.3894ZM625.9937,887.4158,654.25,806.9169l26.9459,80.4989Z" style="fill:#f3f3f2"/><polygon points="7.504 1055.312 25.419 1055.312 25.419 1048.082 7.504 1048.082 7.504 1038.495 27.617 1038.495 27.617 1031.266 0 1031.266 0 1072.347 28.387 1072.347 28.387 1065.119 7.504 1065.119 7.504 1055.312" style="fill:#f0ad1e"/><polygon points="87.644 1057.509 59.826 1030.047 59.669 1029.892 58.581 1029.892 58.581 1072.347 66.142 1072.347 66.039 1046.596 94.072 1073.776 94.991 1073.776 94.991 1031.266 87.54 1031.266 87.644 1057.509" style="fill:#f0ad1e"/><polygon points="124.526 1038.495 134.583 1038.495 134.583 1072.347 142.032 1072.347 142.032 1038.495 152.363 1038.495 152.363 1031.266 124.526 1031.266 124.526 1038.495" style="fill:#f0ad1e"/><polygon points="189.348 1055.312 207.262 1055.312 207.262 1048.082 189.348 1048.082 189.348 1038.495 209.461 1038.495 209.461 1031.266 181.844 1031.266 181.844 1072.347 210.23 1072.347 210.23 1065.119 189.348 1065.119 189.348 1055.312" style="fill:#f0ad1e"/><path d="M261.2628,1056.5521a11.503,11.503,0,0,0,3.1076-2.5266,12.5168,12.5168,0,0,0,2.434-4.4814,16.8688,16.8688,0,0,0,.738-4.878,14.0216,14.0216,0,0,0-1.0883-5.7171,11.2809,11.2809,0,0,0-3.1441-4.1771,14.31,14.31,0,0,0-4.8505-2.6,20.1588,20.1588,0,0,0-6.1783-.9037H240.423v41.08h7.5061v-13.9054h5.2836a2.4824,2.4824,0,0,0,.2675-.0093l9,13.9147h8.7412Zm-1.715-9.5991A6.2378,6.2378,0,0,1,258.45,1049a5.4591,5.4591,0,0,1-2.0563,1.5491,7.8624,7.8624,0,0,1-3.2922.6086h-5.1729v-12.6606h5.3944a7.3171,7.3171,0,0,1,3.2274.6271,5.4106,5.4106,0,0,1,1.9734,1.6229,6.8309,6.8309,0,0,1,1.0419,2.1116,7.7815,7.7815,0,0,1,.3134,2.0194A7.2494,7.2494,0,0,1,259.5478,1046.953Z" style="fill:#f0ad1e"/><polygon points="296.148 1038.495 306.205 1038.495 306.205 1072.347 313.654 1072.347 313.654 1038.495 323.985 1038.495 323.985 1031.266 296.148 1031.266 296.148 1038.495" style="fill:#f0ad1e"/><path d="M365.2122,1029.9492l-.1382-.3319h-1.0972l-18.2027,42.7306h7.4876l3.8915-9.4517h13.8407l3.7438,9.4517H383.23Zm-5.3944,26.4831,4.3985-10.6688,4.2233,10.6688Z" style="fill:#f0ad1e"/><rect x="411.1114" y="1031.2662" width="7.5037" height="41.0807" style="fill:#f0ad1e"/><polygon points="480.014 1057.51 452.197 1030.047 452.04 1029.892 450.953 1029.892 450.953 1072.347 458.513 1072.347 458.41 1046.596 486.443 1073.776 487.363 1073.776 487.363 1031.266 479.911 1031.266 480.014 1057.51" style="fill:#f0ad1e"/><polygon points="540.314 1057.713 520.786 1030.065 520.571 1029.837 519.756 1029.837 519.756 1072.347 527.04 1072.347 527.04 1051.268 539.855 1069.105 540.518 1069.105 553.773 1050.309 553.773 1072.347 561.221 1072.347 561.221 1029.837 560.299 1029.837 540.314 1057.713" style="fill:#f0ad1e"/><polygon points="601.063 1055.312 618.978 1055.312 618.978 1048.082 601.063 1048.082 601.063 1038.495 621.176 1038.495 621.176 1031.266 593.56 1031.266 593.56 1072.347 621.945 1072.347 621.945 1065.119 601.063 1065.119 601.063 1055.312" style="fill:#f0ad1e"/><polygon points="681.202 1057.51 653.384 1030.047 653.227 1029.892 652.14 1029.892 652.14 1072.347 659.7 1072.347 659.597 1046.596 687.63 1073.776 688.55 1073.776 688.55 1031.266 681.098 1031.266 681.202 1057.51" style="fill:#f0ad1e"/><polygon points="718.084 1031.266 718.084 1038.495 728.141 1038.495 728.141 1072.347 735.59 1072.347 735.59 1038.495 745.922 1038.495 745.922 1031.266 718.084 1031.266" style="fill:#f0ad1e"/><path d="M149.1658,88.0521l-.5153-.0468s.1287-.1171.3866-.3514C149.072,87.7827,149.1189,87.9233,149.1658,88.0521Z" style="fill:#e29900"/><path d="M149.1658,88.0521l-.5153-.0468s.1287-.1171.3866-.3514C149.072,87.7827,149.1189,87.9233,149.1658,88.0521Z" style="fill:#e29900"/><path d="M587.5984,88.0521l.5153-.0468s-.1287-.1171-.3866-.3514C587.6922,87.7827,587.6453,87.9233,587.5984,88.0521Z" style="fill:#e29900"/><path d="M587.5984,88.0521l.5153-.0468s-.1287-.1171-.3866-.3514C587.6922,87.7827,587.6453,87.9233,587.5984,88.0521Z" style="fill:#e29900"/><path d="M142.5486,544.3577q-.4392-.0353-.8785-.1055l-.597-.1053a.536.536,0,0,1-.1292-.0352C141.4711,544.2171,142.01,544.2991,142.5486,544.3577Z" style="fill:#e2991a"/><path d="M144.7154,544.4279c-.0818,0-.1755.0118-.2579.0118a1.9111,1.9111,0,0,1-.2573.0116,15.28,15.28,0,0,1-1.6516-.0936,16.91,16.91,0,0,0,1.8975.07Z" style="fill:#e2991a"/><path d="M146.6124,544.2522a.0419.0419,0,0,1-.0349.0118.887.887,0,0,1-.1756.0117A1.2714,1.2714,0,0,0,146.6124,544.2522Z" style="fill:#e2991a"/><path d="M160.3741,527.094v1.1477a16.1378,16.1378,0,0,1-12.344,15.7529,10.84,10.84,0,0,1-1.23.2225,16.5145,16.5145,0,0,0,13.5628-16.3853V527.34c-.0114-.3982-.0234-.7964-.0349-1.183C160.3513,526.4732,160.3627,526.7777,160.3741,527.094Z" style="fill:#e2991a"/><path d="M200.6175,581.6491c-.4918.5271-.9956,1.0424-1.5,1.546-1.6161,1.6281-3.4078,3.2561-5.27,4.8372-1.0071.8316-2.0725,1.6748-3.1974,2.5181-.0115,0-.0115-.0117-.0235-.0234a76.7173,76.7173,0,0,0,8.4913-7.3553C199.6219,582.6681,200.1257,582.1645,200.6175,581.6491Z" style="fill:#e2991a"/><path d="M205.9229,519.5162c-.2459-.246-.4918-.5036-.7257-.75-.2231-.2343-.4335-.4685-.6446-.7145C205.01,518.544,205.4659,519.036,205.9229,519.5162Z" style="fill:#e2991a"/><path d="M208.16,521.73c-.0818-.07-.1756-.1523-.2694-.2343-.1521-.14-.3042-.2928-.4449-.4333-.1521-.1406-.2928-.2811-.4335-.4216-.34-.34-.6794-.6794-.9956-1.0307.3048.3162.609.6324.9253.9369C207.34,520.9451,207.75,521.3433,208.16,521.73Z" style="fill:#e2991a"/><path d="M133.0971,539.9656c-.1527-.14-.3049-.2928-.4455-.4451-.1167-.1171-.2339-.2459-.3626-.3865C132.5463,539.4151,132.8157,539.6962,133.0971,539.9656Z" style="fill:#e2991a"/><path d="M128.0491,528.8859a.917.917,0,0,1-.0121-.1874c0-.14-.0114-.2811-.0114-.4217V516.8575h.0114v11.4193C128.037,528.476,128.037,528.6751,128.0491,528.8859Z" style="fill:#e2991a"/><path d="M128.0839,529.4364c-.0234-.1289-.0234-.2694-.0348-.3982v-.1523A4.4874,4.4874,0,0,0,128.0839,529.4364Z" style="fill:#e2991a"/><path d="M133.0971,539.9656c-.1527-.14-.3049-.2928-.4455-.4451-.1167-.1171-.2339-.2459-.3626-.3865C132.5463,539.4151,132.8157,539.6962,133.0971,539.9656Z" style="fill:#e2991a"/><path d="M145.9215,544.3342a8.0218,8.0218,0,0,1-.9133.082c.14-.0117.2808-.0352.4215-.0468Z" style="fill:#e2991a"/><path d="M162.7635,569.6325c4.7552,4.0056,9.6276,7.8237,14.6053,11.56-.0584-.0351-.1173-.0819-.1876-.1288q-.579-.4039-1.5458-1.1243c-.1876-.1289-.3866-.2811-.6091-.4451-1.6979-1.2649-4.0758-3.08-7.0038-5.4227-.7028-.5739-1.4406-1.1712-2.2138-1.8037-1.0185-.8315-2.0965-1.7334-3.2208-2.6821,1.066-.48,2.0965-1.0072,3.1156-1.5694a46.9991,46.9991,0,0,0,23.7755-42.0934c.0354.7846.0469,1.5693.0469,2.354a45.5278,45.5278,0,0,1-23.7286,39.8448C164.8131,568.66,163.7946,569.164,162.7635,569.6325Z" style="fill:#e2991a"/><path d="M219.767,546.3253c-.2694,1.1595-.5622,2.3073-.9019,3.4434C219.1928,548.6326,219.4976,547.4848,219.767,546.3253Z" style="fill:#e2991a"/><path d="M221.6759,533.7933c.0349-.5505.07-1.101.0938-1.6514q-3.18-1.8974-6.1609-4.111,2.987,2.196,6.1958,4.111C221.77,532.6923,221.7228,533.2428,221.6759,533.7933Z" style="fill:#e2991a"/><path d="M128.0491,528.8859a.917.917,0,0,1-.0121-.1874c0-.14-.0114-.2811-.0114-.4217v-2.0612l.0114.0116v2.05C128.037,528.476,128.037,528.6751,128.0491,528.8859Z" style="fill:#e2991a"/><path d="M128.0839,529.4364c-.0234-.1289-.0234-.2694-.0348-.3982v-.1523A4.4874,4.4874,0,0,0,128.0839,529.4364Z" style="fill:#e2991a"/><path d="M133.0971,539.9656c-.1527-.14-.3049-.2928-.4455-.4451-.1167-.1171-.2339-.2459-.3626-.3865C132.5463,539.4151,132.8157,539.6962,133.0971,539.9656Z" style="fill:#e2991a"/><path d="M142.5486,544.3577q-.4392-.0353-.8785-.1055l-.597-.1053a.536.536,0,0,1-.1292-.0352C141.4711,544.2171,142.01,544.2991,142.5486,544.3577Z" style="fill:#e2991a"/><path d="M144.4575,544.44a1.9111,1.9111,0,0,1-.2573.0116,15.28,15.28,0,0,1-1.6516-.0936,16.91,16.91,0,0,0,1.8975.07Z" style="fill:#e2991a"/><path d="M177.3688,581.1923c-.0584-.0351-.1173-.0819-.1876-.1288q-.579-.4039-1.5458-1.1243c-.1876-.1289-.3866-.2811-.6091-.4451-1.6979-1.2649-4.0758-3.08-7.0038-5.4227-.7028-.5622-1.4406-1.16-2.2138-1.8037-1.0185-.8315-2.0965-1.7334-3.2208-2.6821,1.066-.48,2.0965-1.0072,3.1156-1.5694l.0938.1054c-.9842.5388-2.0027,1.0424-3.0338,1.5109C167.5187,573.6381,172.3911,577.4562,177.3688,581.1923Z" style="fill:#e2991a"/><path d="M284.0781,539.1808a140.9708,140.9708,0,0,1-14.16,39.8916,164.8853,164.8853,0,0,1-26.5633,36.542l-.0115.0234H242.84l-2.0845,2.3073c-8.0229-3.49-15.9641-7.3552-23.7291-11.5247.89-.8316,1.78-1.6983,2.6821-2.6a106.6936,106.6936,0,0,0,30.4282-61.7,77.2976,77.2976,0,0,0,10.5529.7262A75.38,75.38,0,0,0,284.0781,539.1808Z" style="fill:#e2991a"/><path d="M160.3627,527.34v.4919A16.5145,16.5145,0,0,1,146.8,544.2171a.5291.5291,0,0,1-.1875.0351,1.2714,1.2714,0,0,1-.21.0235c-.1641.0234-.3162.0468-.48.0585l-.4918.0352c-.1407.0116-.2814.0351-.4215.0468a2.4505,2.4505,0,0,1-.2928.0117h-.2693a16.91,16.91,0,0,1-1.8975-.07c-.5388-.0586-1.0775-.1406-1.6047-.246l-.4564-.1054c-.1641-.0351-.3283-.07-.48-.1171a.8769.8769,0,0,1-.1876-.0586,5.8494,5.8494,0,0,1-.597-.1874c-.2694-.0819-.5273-.1757-.7846-.2694q-.4753-.1756-.9139-.3865a5.2032,5.2032,0,0,1-.5742-.2811,2.005,2.005,0,0,1-.2688-.1522.9278.9278,0,0,1-.1875-.0937c-.07-.0352-.1407-.07-.199-.1054-.1293-.07-.246-.1406-.3752-.2226a.2367.2367,0,0,1-.07-.0468c-.1292-.082-.2579-.164-.3866-.2577h-.012c-.07-.0468-.1286-.082-.187-.1288-.223-.14-.4455-.2928-.6565-.4568a.66.66,0,0,1-.1052-.082c-.0818-.0585-.1756-.1288-.2694-.2108a6.0051,6.0051,0,0,1-.609-.5036,6.5124,6.5124,0,0,1-.5267-.48c-.2814-.2694-.5508-.55-.8081-.8316l-.0355-.0351c-.199-.2225-.398-.4568-.5856-.691-.1052-.1406-.2224-.2694-.3277-.41a6.7174,6.7174,0,0,1-.4683-.6676.4771.4771,0,0,1-.0938-.1406.2385.2385,0,0,1-.0469-.07c-.0235-.0235-.0355-.0469-.0589-.07a.6069.6069,0,0,0-.07-.1172c-.14-.2225-.2808-.4568-.4214-.6793-.0938-.1756-.187-.34-.2808-.5153s-.1876-.3514-.27-.527a1.433,1.433,0,0,1-.0932-.1875c-.0823-.1756-.1527-.34-.2224-.5153a5.4038,5.4038,0,0,1-.246-.609c-.024-.07-.0468-.1289-.07-.1874-.0234-.07-.0469-.1523-.07-.2225l-.2111-.6325c-.0469-.1874-.1052-.3865-.1521-.5856-.0589-.2342-.1287-.4685-.1756-.7028-.0468-.1873-.0823-.3747-.1172-.55a4.6517,4.6517,0,0,1-.0818-.5621c-.012-.1172-.0354-.2226-.0469-.328a4.4281,4.4281,0,0,1-.0589-.691,4.4874,4.4874,0,0,1-.0348-.5505c-.0121-.2108-.0121-.41-.0121-.6091V516.8575h-.0114a29.5454,29.5454,0,0,0-5.7388,2.9983,27.3632,27.3632,0,0,0-4.58,3.8064,288.6178,288.6178,0,0,1-25.5208-37.1977,44.9658,44.9658,0,0,1,4.6265-2.038,46.3078,46.3078,0,0,1,7.9995-2.2721c.4215-.07.843-.1522,1.2765-.2226.4334-.0585.8664-.1288,1.3119-.1873.199-.0235.4094-.0469.62-.07a5.71,5.71,0,0,1,.6439-.07c.4335-.0468.8784-.082,1.3119-.1171.7143-.0586,1.4291-.0937,2.1554-.1054.3626-.0117.7257-.0235,1.0889-.0235h.2345c1.5692,0,3.1384.082,4.6963.2226,1.2415.1289,2.46.3045,3.6657.527a46.7578,46.7578,0,0,1,18.4238,7.73c.6085.4335,1.2061.8668,1.7917,1.3235.2694.2109.5387.4217.7966.6208.3157.2693.6325.5271.9368.7847.21.1757.41.3513.609.5388.3746.3279.75.6558,1.1009.9955.4449.41.8784.8316,1.3119,1.2766.4449.4568.89.9135,1.3233,1.3938l.0355.0351c.3746.4217.7612.855,1.1243,1.2884a1.4219,1.4219,0,0,1,.1756.2108c.398.48.7846.96,1.1712,1.4523a.3012.3012,0,0,1,.0583.07c.8784,1.1478,1.71,2.3307,2.4831,3.5605V503.4c.34.5388.6674,1.0893.9837,1.64.621,1.0892,1.2181,2.2136,1.7688,3.3613.2808.5739.5387,1.1595.7846,1.7451v.0118c.2808.6676.55,1.3468.8081,2.0261.3746,1.0307.7263,2.0731,1.0305,3.1389.1876.6325.3517,1.2649.5153,1.8974.1407.5973.2814,1.2063.41,1.8037.0818.4333.1642.8784.2345,1.3235.07.3748.1287.7612.187,1.136.0589.3865.1058.773.1527,1.1595q.0694.492.1052.9838.018.1933.0349.3866c.07.7144.1173,1.4288.1527,2.1432C160.3393,526.5435,160.3513,526.9417,160.3627,527.34Z" style="fill:#e2991a"/><path d="M307.62,466.7764a46.9236,46.9236,0,0,1-93.8379.9369v-.4919c0-8.69,6.6761-16.1745,15.355-16.5844a16.1788,16.1788,0,0,1,16.9827,16.1394v11.4193a28.7075,28.7075,0,0,0,18.4-27.1019,27.8577,27.8577,0,0,0-17.6271-26.329,45.067,45.067,0,0,0-17.0061-3.2911c-25.7782.0234-45.7826,21.9955-45.22,47.6568a4.3155,4.3155,0,0,0,.0235.55c0,.1873.012.3865.012.5738.0114.41.0349.8082.07,1.2064.0468.8315.1057,1.6514.1875,2.4713.0355.3748.07.7379.1173,1.1126.0583.6208.1406,1.2532.2224,1.8622.0938.7731.2111,1.5343.34,2.2956.1053.6559.2225,1.3.3512,1.956.0469.2693.1058.55.1521.82.2928,1.4758.6445,2.94,1.0311,4.3921l.0349.1054c.1761.6442.3517,1.2883.5387,1.9208q.5626,1.9149,1.23,3.7947c.2225.6208.4569,1.2415.6908,1.8623.3049.8315.6445,1.6513.9957,2.46.199.4685.398.9369.609,1.3937.3277.7379.6794,1.4758,1.0306,2.2019.7143,1.4523,1.464,2.893,2.2721,4.2984.398.7027.808,1.4054,1.2415,2.0965.7143,1.1712,1.476,2.319,2.2607,3.4551.2573.3864.5152.7612.796,1.1243.34.48.6914.9487,1.0546,1.4172.2459.3279.5032.6559.7612.9838a3.413,3.413,0,0,0,.3162.41q.2111.2811.4564.5622c.2579.328.5272.6676.82.9956,0,.0116,0,.0116.0114.0234.9139,1.1244,1.8975,2.2253,2.9052,3.2911.2224.2577.4683.5036.7257.75a.7272.7272,0,0,0,.0938.0937c.3048.34.6559.7027.9956,1.0307.1407.1405.2814.281.4335.4216.1407.1405.2928.2928.4449.4333.4449.4334.9019.8667,1.37,1.2883.3632.3515.75.6911,1.1244,1.019.5856.5388,1.1832,1.0424,1.7923,1.5343.5621.48,1.1243.9253,1.6979,1.37.5741.4568,1.1477.89,1.7333,1.3235q2.987,2.2137,6.1609,4.111c-.0234.55-.0589,1.1009-.0938,1.6514l-.07.773c-.0355.3982-.07.7964-.1052,1.1829-.0824.773-.1642,1.5226-.2459,2.2371-.0469.3513-.0824.6909-.1293,1.0306-.0234.1639-.0469.3279-.07.48-.0589.48-.1293.937-.2,1.3469l-.0818.5154c-.0824.4919-.1756.9955-.2694,1.4874-.211,1.1595-.4683,2.3307-.7377,3.4785-.2694,1.1595-.5742,2.3073-.9019,3.4434-.1292.4684-.2693.9487-.422,1.4171a6.5039,6.5039,0,0,1-.21.6793c-.1292.4334-.2693.855-.422,1.2884-.5387,1.6162-1.1358,3.2091-1.78,4.7785a1.3347,1.3347,0,0,1-.0824.1875c-.2344.55-.4683,1.0892-.7028,1.6279a73.8574,73.8574,0,0,1-3.5485,6.9922c-.2814.5036-.5742,1.0072-.8784,1.4991q-.4925.8258-1.0191,1.6515c-.3746.5973-.7612,1.1829-1.1478,1.7568q-1.8624,2.7406-3.9351,5.3173c-.41.5036-.82.9955-1.2416,1.4874q-.6853.8258-1.4057,1.6163c-.48.5387-.96,1.0658-1.452,1.5811s-.9956,1.019-1.5,1.5226a76.7173,76.7173,0,0,1-8.4913,7.3553q-6.4122-4.2692-12.6489-8.9012l-.0234-.0235a.2642.2642,0,0,0-.0583-.0352c-.0355-.0233-.0824-.0585-.1527-.1053a.4256.4256,0,0,1-.1053-.07c-.0938-.07-.1755-.14-.2693-.1992-4.9777-3.7361-9.85-7.5542-14.6053-11.56,1.0311-.4685,2.05-.9721,3.0338-1.5109a45.5278,45.5278,0,0,0,23.7286-39.8448c0-.7847-.0115-1.5694-.0469-2.354,0-.1875-.0115-.3748-.0235-.5506,0-.1757,0-.34-.0114-.5153v-.0585a.3305.3305,0,0,0-.0115-.1055c-.012-.3748-.0354-.7379-.0589-1.1009-.0469-.8315-.1052-1.6514-.1875-2.4713-.0349-.363-.07-.7378-.1173-1.1126-.0583-.6207-.14-1.2415-.2219-1.8622-.0938-.7731-.211-1.5343-.34-2.2956-.1058-.6442-.211-1.2884-.34-1.9209-.0589-.3161-.1172-.6207-.1875-.9252-.1522-.773-.3163-1.5343-.5039-2.2956-.1641-.75-.3511-1.4874-.5621-2.2253a.4063.4063,0,0,0-.0235-.1171c-.199-.7379-.41-1.464-.6325-2.19-.2224-.75-.4563-1.4874-.7143-2.2253-.3866-1.1595-.796-2.2956-1.253-3.4316-.2928-.75-.5856-1.4875-.9138-2.2254-.0818-.199-.1642-.3982-.2574-.5973-.3162-.7379-.6559-1.4757-1.0071-2.2019-.2579-.55-.5272-1.1009-.8086-1.64-.55-1.0776-1.1243-2.1551-1.7334-3.2092-.3631-.6442-.7377-1.2883-1.1357-1.9208-.7612-1.2414-1.5578-2.4713-2.3894-3.6659-.2459-.363-.5038-.7261-.7611-1.0775-.3283-.4685-.6794-.9253-1.0311-1.3821-.3163-.4216-.632-.8432-.96-1.2532-.1287-.1639-.2694-.3279-.3981-.4919l-.0354-.0351c-.34-.445-.7023-.9018-1.0889-1.3352-.0938-.1054-.1876-.2225-.2814-.34-.1172-.1289-.2344-.2694-.3511-.41a.5058.5058,0,0,1-.07-.082c-.96-1.1243-1.9559-2.2252-3.01-3.2911-.071-.082-.1527-.164-.2345-.2459-.1052-.1054-.199-.2109-.3048-.3162-.2339-.246-.48-.48-.7257-.7145-.2111-.2108-.4221-.41-.6326-.6207-.1172-.1171-.2344-.2226-.3517-.3279-.0817-.082-.1641-.1523-.2459-.2343-.2224-.2108-.4449-.4216-.6794-.6325-.3745-.34-.7377-.691-1.1243-1.0189-.5856-.5388-1.1826-1.0424-1.7917-1.5343-.5622-.48-1.1243-.9253-1.6985-1.37-.5736-.4568-1.1478-.89-1.7334-1.3235-.9956-.7379-2.0027-1.4523-3.0332-2.1316h-.012c-.5153-.3514-1.0306-.691-1.5578-1.0073-.5147-.34-1.0306-.6558-1.5573-.9721.0235-.55.0584-1.1009.0932-1.6514.0241-.2577.0469-.5153.0709-.773.0229-.3982.0584-.7964.1053-1.1829.0818-.773.1635-1.5226.2459-2.2371.0349-.34.0818-.6909.1287-1.0306.0234-.164.0469-.3279.07-.48a1.399,1.399,0,0,1,.0234-.2225q.0523-.3514.1053-.7028c.1286-.8081.2693-1.6162.4215-2.4127.1057-.5856.223-1.1712.3517-1.7451.0937-.4451.1875-.89.2928-1.3235.0469-.2108.0938-.41.1406-.6207.1173-.5036.246-1.0189.3861-1.5226.1406-.5739.3048-1.1478.4689-1.71.1521-.55.3163-1.1009.48-1.6513.0229-.0469.0349-.0938.0583-.1523.1636-.5271.3277-1.0541.5153-1.5929.5387-1.6046,1.1363-3.2091,1.78-4.7785a1.34,1.34,0,0,0,.0817-.1874c.2345-.55.4684-1.0893.7029-1.6281.5507-1.2414,1.1243-2.4595,1.7454-3.6658.2459-.492.5032-.9721.7611-1.464.3043-.5622.62-1.1244.9368-1.6866s.6445-1.1244.9842-1.6749q.4392-.7378.9133-1.4756c.398-.6559.82-1.3,1.265-1.9443.398-.5973.8081-1.1712,1.2181-1.7568.89-1.2415,1.8152-2.4595,2.7874-3.6542.3866-.4685.7611-.9252,1.1592-1.382q.6854-.8257,1.4057-1.6163c.48-.5271.9607-1.0541,1.4525-1.57s.9951-1.0306,1.4989-1.5343a76.7919,76.7919,0,0,1,8.4914-7.3552q.2282-.1757.4569-.3513l.0114-.0117c.668-.55,26.47-21.6792,63.07-13.1645.4684.1054.9373.2108,1.3937.3162,1.71.4333,3.2328.8433,4.58,1.2532q.65.2107,1.3.4217a.2122.2122,0,0,1,.0818.0234c.4455.1405.8784.2928,1.3119.445.199.082.398.1523.5976.2226a77.8849,77.8849,0,0,1,51.299,73.0956Z" style="fill:#e2991a"/><path d="M594.2157,544.3577q.4392-.0353.8784-.1055l.597-.1053a.5367.5367,0,0,0,.1293-.0352C595.2931,544.2171,594.7544,544.2991,594.2157,544.3577Z" style="fill:#e2991a"/><path d="M592.0488,544.4279c.0818,0,.1756.0118.2579.0118a1.9118,1.9118,0,0,0,.2574.0116,15.28,15.28,0,0,0,1.6516-.0936,16.9113,16.9113,0,0,1-1.8975.07Z" style="fill:#e2991a"/><path d="M590.1519,544.2522a.0418.0418,0,0,0,.0349.0118.8855.8855,0,0,0,.1755.0117A1.27,1.27,0,0,1,590.1519,544.2522Z" style="fill:#e2991a"/><path d="M576.39,527.094v1.1477a16.1379,16.1379,0,0,0,12.3441,15.7529,10.8423,10.8423,0,0,0,1.23.2225,16.5146,16.5146,0,0,1-13.5628-16.3853V527.34c.0115-.3982.0235-.7964.0349-1.183C576.413,526.4732,576.4015,526.7777,576.39,527.094Z" style="fill:#e2991a"/><path d="M536.1467,581.6491c.4919.5271.9957,1.0424,1.5,1.546,1.6162,1.6281,3.4079,3.2561,5.27,4.8372,1.0071.8316,2.0725,1.6748,3.1974,2.5181.0114,0,.0114-.0117.0234-.0234a76.7264,76.7264,0,0,1-8.4913-7.3553C537.1424,582.6681,536.6386,582.1645,536.1467,581.6491Z" style="fill:#e2991a"/><path d="M530.8414,519.5162c.2459-.246.4918-.5036.7257-.75.223-.2343.4335-.4685.6445-.7145C531.7547,518.544,531.2983,519.036,530.8414,519.5162Z" style="fill:#e2991a"/><path d="M528.6042,521.73c.0818-.07.1755-.1523.2693-.2343.1522-.14.3043-.2928.445-.4333.1521-.1406.2928-.2811.4334-.4216.34-.34.6794-.6794.9957-1.0307-.3048.3162-.6091.6324-.9253.9369C529.4243,520.9451,529.0142,521.3433,528.6042,521.73Z" style="fill:#e2991a"/><path d="M603.6672,539.9656c.1527-.14.3048-.2928.4455-.4451.1167-.1171.2339-.2459.3626-.3865C604.2179,539.4151,603.9486,539.6962,603.6672,539.9656Z" style="fill:#e2991a"/><path d="M608.7152,528.8859a.9245.9245,0,0,0,.012-.1874c0-.14.0114-.2811.0114-.4217V516.8575h-.0114v11.4193C608.7272,528.476,608.7272,528.6751,608.7152,528.8859Z" style="fill:#e2991a"/><path d="M608.68,529.4364c.0235-.1289.0235-.2694.0349-.3982v-.1523A4.4683,4.4683,0,0,1,608.68,529.4364Z" style="fill:#e2991a"/><path d="M603.6672,539.9656c.1527-.14.3048-.2928.4455-.4451.1167-.1171.2339-.2459.3626-.3865C604.2179,539.4151,603.9486,539.6962,603.6672,539.9656Z" style="fill:#e2991a"/><path d="M590.8427,544.3342a8.0259,8.0259,0,0,0,.9133.082c-.14-.0117-.2808-.0352-.4215-.0468Z" style="fill:#e2991a"/><path d="M574.0008,569.6325c-4.7552,4.0056-9.6277,7.8237-14.6053,11.56.0583-.0351.1172-.0819.1876-.1288q.579-.4039,1.5458-1.1243c.1875-.1289.3865-.2811.609-.4451,1.6979-1.2649,4.0758-3.08,7.0039-5.4227.7028-.5739,1.4405-1.1712,2.2137-1.8037,1.0185-.8315,2.0965-1.7334,3.2209-2.6821-1.066-.48-2.0966-1.0072-3.1157-1.5694a46.999,46.999,0,0,1-23.7754-42.0934c-.0355.7846-.0469,1.5693-.0469,2.354a45.5277,45.5277,0,0,0,23.7285,39.8448C571.9512,568.66,572.97,569.164,574.0008,569.6325Z" style="fill:#e2991a"/><path d="M516.9972,546.3253c.2694,1.1595.5622,2.3073.9019,3.4434C517.5714,548.6326,517.2666,547.4848,516.9972,546.3253Z" style="fill:#e2991a"/><path d="M515.0883,533.7933c-.0349-.5505-.07-1.101-.0938-1.6514q3.18-1.8974,6.1609-4.111-2.987,2.196-6.1958,4.111C514.9945,532.6923,515.0414,533.2428,515.0883,533.7933Z" style="fill:#e2991a"/><path d="M608.7152,528.8859a.9245.9245,0,0,0,.012-.1874c0-.14.0114-.2811.0114-.4217v-2.0612l-.0114.0116v2.05C608.7272,528.476,608.7272,528.6751,608.7152,528.8859Z" style="fill:#e2991a"/><path d="M608.68,529.4364c.0235-.1289.0235-.2694.0349-.3982v-.1523A4.4683,4.4683,0,0,1,608.68,529.4364Z" style="fill:#e2991a"/><path d="M603.6672,539.9656c.1527-.14.3048-.2928.4455-.4451.1167-.1171.2339-.2459.3626-.3865C604.2179,539.4151,603.9486,539.6962,603.6672,539.9656Z" style="fill:#e2991a"/><path d="M594.2157,544.3577q.4392-.0353.8784-.1055l.597-.1053a.5367.5367,0,0,0,.1293-.0352C595.2931,544.2171,594.7544,544.2991,594.2157,544.3577Z" style="fill:#e2991a"/><path d="M592.3067,544.44a1.9118,1.9118,0,0,0,.2574.0116,15.28,15.28,0,0,0,1.6516-.0936,16.9113,16.9113,0,0,1-1.8975.07Z" style="fill:#e2991a"/><path d="M559.3955,581.1923c.0583-.0351.1172-.0819.1876-.1288q.579-.4039,1.5458-1.1243c.1875-.1289.3865-.2811.609-.4451,1.6979-1.2649,4.0758-3.08,7.0039-5.4227.7028-.5622,1.4405-1.16,2.2137-1.8037,1.0185-.8315,2.0965-1.7334,3.2209-2.6821-1.066-.48-2.0966-1.0072-3.1157-1.5694l-.0938.1054c.9843.5388,2.0028,1.0424,3.0339,1.5109C569.2456,573.6381,564.3731,577.4562,559.3955,581.1923Z" style="fill:#e2991a"/><path d="M452.6862,539.1808a140.9736,140.9736,0,0,0,14.16,39.8916,164.8858,164.8858,0,0,0,26.5634,36.542l.0114.0234h.5038l2.0846,2.3073c8.0229-3.49,15.9641-7.3552,23.7291-11.5247-.89-.8316-1.78-1.6983-2.6821-2.6a106.693,106.693,0,0,1-30.4282-61.7,77.3,77.3,0,0,1-10.553.7262A75.3794,75.3794,0,0,1,452.6862,539.1808Z" style="fill:#e2991a"/><path d="M576.4015,527.34v.4919a16.5146,16.5146,0,0,0,13.5628,16.3853.53.53,0,0,0,.1876.0351,1.27,1.27,0,0,0,.21.0235c.1642.0234.3163.0468.48.0585l.4918.0352c.1407.0116.2814.0351.4215.0468a2.4505,2.4505,0,0,0,.2928.0117h.2694a16.9113,16.9113,0,0,0,1.8975-.07c.5387-.0586,1.0774-.1406,1.6047-.246l.4564-.1054c.1641-.0351.3282-.07.48-.1171a.8734.8734,0,0,0,.1876-.0586,5.8589,5.8589,0,0,0,.5971-.1874c.2693-.0819.5272-.1757.7846-.2694q.4752-.1756.9139-.3865a5.2017,5.2017,0,0,0,.5741-.2811,2.005,2.005,0,0,0,.2688-.1522.9286.9286,0,0,0,.1876-.0937c.07-.0352.1407-.07.199-.1054.1292-.07.2459-.1406.3752-.2226a.2363.2363,0,0,0,.07-.0468c.1293-.082.2579-.164.3866-.2577h.012c.07-.0468.1287-.082.187-.1288.2231-.14.4455-.2928.6566-.4568a.6685.6685,0,0,0,.1052-.082c.0818-.0585.1755-.1288.2693-.2108a5.9951,5.9951,0,0,0,.6091-.5036,6.5293,6.5293,0,0,0,.5267-.48c.2814-.2694.5507-.55.8081-.8316l.0354-.0351c.199-.2225.3981-.4568.5856-.691.1053-.1406.2225-.2694.3277-.41a6.7182,6.7182,0,0,0,.4684-.6676.4791.4791,0,0,0,.0938-.1406.2425.2425,0,0,0,.0469-.07c.0234-.0235.0354-.0469.0589-.07a.6063.6063,0,0,1,.07-.1172c.14-.2225.2808-.4568.4215-.6793.0938-.1756.187-.34.2808-.5153s.1876-.3514.27-.527a1.4206,1.4206,0,0,0,.0932-.1875c.0824-.1756.1527-.34.2225-.5153a5.4032,5.4032,0,0,0,.2459-.609c.024-.07.0469-.1289.07-.1874.0235-.07.0469-.1523.07-.2225l.211-.6325c.0469-.1874.1052-.3865.1521-.5856.0589-.2342.1287-.4685.1756-.7028.0469-.1873.0824-.3747.1172-.55a4.6319,4.6319,0,0,0,.0818-.5621c.012-.1172.0355-.2226.0469-.328a4.416,4.416,0,0,0,.0589-.691,4.4683,4.4683,0,0,0,.0349-.5505c.012-.2108.012-.41.012-.6091V516.8575h.0114a29.5491,29.5491,0,0,1,5.7389,2.9983,27.3625,27.3625,0,0,1,4.58,3.8064,288.6182,288.6182,0,0,0,25.5209-37.1977,44.9767,44.9767,0,0,0-4.6266-2.038,46.3053,46.3053,0,0,0-8-2.2721c-.4214-.07-.8429-.1522-1.2764-.2226-.4335-.0585-.8664-.1288-1.3119-.1873-.199-.0235-.4095-.0469-.62-.07a5.7124,5.7124,0,0,0-.6439-.07c-.4335-.0468-.8785-.082-1.3119-.1171-.7143-.0586-1.4292-.0937-2.1555-.1054-.3625-.0117-.7257-.0235-1.0888-.0235h-.2345c-1.5692,0-3.1385.082-4.6963.2226-1.2416.1289-2.46.3045-3.6658.527a46.7574,46.7574,0,0,0-18.4237,7.73c-.6085.4335-1.2061.8668-1.7917,1.3235-.2694.2109-.5388.4217-.7967.6208-.3157.2693-.6325.5271-.9367.7847-.2105.1757-.41.3513-.6091.5388-.3746.3279-.75.6558-1.1008.9955-.445.41-.8785.8316-1.3119,1.2766-.445.4568-.89.9135-1.3234,1.3938l-.0354.0351c-.3746.4217-.7612.855-1.1244,1.2884a1.4271,1.4271,0,0,0-.1755.2108c-.3981.48-.7847.96-1.1712,1.4523a.3018.3018,0,0,0-.0584.07c-.8784,1.1478-1.71,2.3307-2.4831,3.5605V503.4c-.34.5388-.6674,1.0893-.9836,1.64-.6211,1.0892-1.2181,2.2136-1.7689,3.3613-.2808.5739-.5387,1.1595-.7846,1.7451v.0118c-.2808.6676-.55,1.3468-.8081,2.0261-.3745,1.0307-.7262,2.0731-1.03,3.1389-.1876.6325-.3517,1.2649-.5153,1.8974-.1406.5973-.2813,1.2063-.41,1.8037-.0818.4333-.1641.8784-.2345,1.3235-.07.3748-.1286.7612-.187,1.136-.0589.3865-.1058.773-.1527,1.1595q-.0694.492-.1052.9838-.018.1933-.0349.3866c-.07.7144-.1172,1.4288-.1527,2.1432C576.425,526.5435,576.413,526.9417,576.4015,527.34Z" style="fill:#e2991a"/><path d="M429.1446,466.7764a46.9236,46.9236,0,0,0,93.838.9369v-.4919c0-8.69-6.6762-16.1745-15.3551-16.5844a16.1788,16.1788,0,0,0-16.9826,16.1394v11.4193a28.7075,28.7075,0,0,1-18.4-27.1019,27.8576,27.8576,0,0,1,17.6272-26.329,45.0662,45.0662,0,0,1,17.0061-3.2911c25.7781.0234,45.7826,21.9955,45.22,47.6568a4.3338,4.3338,0,0,1-.0234.55c0,.1873-.012.3865-.012.5738-.0115.41-.0349.8082-.07,1.2064-.0469.8315-.1058,1.6514-.1876,2.4713-.0354.3748-.07.7379-.1172,1.1126-.0583.6208-.1407,1.2532-.2225,1.8622-.0938.7731-.211,1.5343-.34,2.2956-.1052.6559-.2224,1.3-.3511,1.956-.0469.2693-.1058.55-.1521.82-.2928,1.4758-.6445,2.94-1.0311,4.3921l-.0349.1054c-.1762.6442-.3517,1.2883-.5387,1.9208q-.5628,1.9149-1.23,3.7947c-.2224.6208-.4569,1.2415-.6908,1.8623-.3048.8315-.6445,1.6513-.9956,2.46-.199.4685-.3981.9369-.6091,1.3937-.3277.7379-.6794,1.4758-1.0305,2.2019-.7143,1.4523-1.464,2.893-2.2721,4.2984-.398.7027-.8081,1.4054-1.2416,2.0965-.7142,1.1712-1.476,2.319-2.2606,3.4551-.2574.3864-.5153.7612-.7961,1.1243-.34.48-.6914.9487-1.0545,1.4172-.2459.3279-.5033.6559-.7612.9838a3.4037,3.4037,0,0,1-.3163.41q-.2109.2811-.4563.5622c-.2579.328-.5273.6676-.82.9956,0,.0116,0,.0116-.0114.0234-.9139,1.1244-1.8975,2.2253-2.9052,3.2911-.2225.2577-.4684.5036-.7257.75a.7337.7337,0,0,1-.0938.0937c-.3048.34-.656.7027-.9957,1.0307-.1406.1405-.2813.281-.4334.4216-.1407.1405-.2928.2928-.445.4333-.4449.4334-.9018.8667-1.37,1.2883-.3631.3515-.75.6911-1.1243,1.019-.5856.5388-1.1832,1.0424-1.7923,1.5343-.5622.48-1.1243.9253-1.6979,1.37-.5742.4568-1.1478.89-1.7334,1.3235q-2.987,2.2137-6.1609,4.111c.0235.55.0589,1.1009.0938,1.6514l.07.773c.0355.3982.07.7964.1053,1.1829.0823.773.1641,1.5226.2459,2.2371.0469.3513.0823.6909.1292,1.0306.0235.1639.0469.3279.07.48.0589.48.1292.937.2,1.3469l.0818.5154c.0823.4919.1755.9955.2693,1.4874.211,1.1595.4684,2.3307.7377,3.4785.2694,1.1595.5742,2.3073.9019,3.4434.1293.4684.2694.9487.4221,1.4171a6.5035,6.5035,0,0,0,.21.6793c.1293.4334.2694.855.4221,1.2884.5387,1.6162,1.1357,3.2091,1.78,4.7785a1.3456,1.3456,0,0,0,.0823.1875c.2345.55.4684,1.0892.7029,1.6279a73.8337,73.8337,0,0,0,3.5485,6.9922c.2813.5036.5742,1.0072.8784,1.4991q.4924.8258,1.0191,1.6515c.3746.5973.7612,1.1829,1.1478,1.7568q1.8622,2.7406,3.9351,5.3173c.41.5036.82.9955,1.2415,1.4874q.6855.8258,1.4057,1.6163c.48.5387.96,1.0658,1.452,1.5811s.9957,1.019,1.5,1.5226a76.7264,76.7264,0,0,0,8.4913,7.3553q6.4122-4.2692,12.6489-8.9012l.0235-.0235a.2642.2642,0,0,1,.0583-.0352c.0355-.0233.0824-.0585.1527-.1053a.4236.4236,0,0,0,.1052-.07c.0938-.07.1756-.14.2694-.1992,4.9776-3.7361,9.85-7.5542,14.6053-11.56-1.0311-.4685-2.05-.9721-3.0339-1.5109a45.5277,45.5277,0,0,1-23.7285-39.8448c0-.7847.0114-1.5694.0469-2.354,0-.1875.0114-.3748.0234-.5506,0-.1757,0-.34.0115-.5153v-.0585a.3333.3333,0,0,1,.0114-.1055c.012-.3748.0355-.7379.0589-1.1009.0469-.8315.1052-1.6514.1876-2.4713.0349-.363.07-.7378.1172-1.1126.0584-.6207.14-1.2415.2219-1.8622.0938-.7731.211-1.5343.34-2.2956.1058-.6442.211-1.2884.34-1.9209.0589-.3161.1173-.6207.1876-.9252.1521-.773.3162-1.5343.5038-2.2956.1642-.75.3512-1.4874.5622-2.2253a.4061.4061,0,0,1,.0234-.1171c.199-.7379.41-1.464.6325-2.19.2225-.75.4564-1.4874.7143-2.2253.3866-1.1595.7961-2.2956,1.253-3.4316.2928-.75.5856-1.4875.9139-2.2254.0818-.199.1641-.3982.2573-.5973.3163-.7379.656-1.4757,1.0071-2.2019.2579-.55.5273-1.1009.8087-1.64.55-1.0776,1.1243-2.1551,1.7333-3.2092.3632-.6442.7378-1.2883,1.1358-1.9208.7612-1.2414,1.5578-2.4713,2.3893-3.6659.2459-.363.5038-.7261.7612-1.0775.3282-.4685.6794-.9253,1.0311-1.3821.3162-.4216.6319-.8432.96-1.2532.1287-.1639.2693-.3279.398-.4919l.0355-.0351c.34-.445.7022-.9018,1.0888-1.3352.0938-.1054.1876-.2225.2814-.34.1172-.1289.2345-.2694.3511-.41a.506.506,0,0,0,.07-.082c.96-1.1243,1.9558-2.2252,3.01-3.2911.0709-.082.1527-.164.2345-.2459.1052-.1054.199-.2109.3048-.3162.2339-.246.48-.48.7257-.7145.211-.2108.422-.41.6325-.6207.1172-.1171.2345-.2226.3517-.3279.0818-.082.1641-.1523.2459-.2343.2225-.2108.4449-.4216.6794-.6325.3746-.34.7377-.691,1.1243-1.0189.5856-.5388,1.1827-1.0424,1.7917-1.5343.5622-.48,1.1244-.9253,1.6985-1.37.5736-.4568,1.1478-.89,1.7334-1.3235.9957-.7379,2.0027-1.4523,3.0333-2.1316h.012c.5153-.3514,1.03-.691,1.5578-1.0073.5147-.34,1.03-.6558,1.5572-.9721-.0234-.55-.0583-1.1009-.0932-1.6514-.024-.2577-.0469-.5153-.0709-.773-.0229-.3982-.0583-.7964-.1052-1.1829-.0818-.773-.1636-1.5226-.2459-2.2371-.0349-.34-.0818-.6909-.1287-1.0306-.0235-.164-.0469-.3279-.07-.48a1.3992,1.3992,0,0,0-.0235-.2225q-.0523-.3514-.1052-.7028c-.1287-.8081-.2694-1.6162-.4215-2.4127-.1058-.5856-.223-1.1712-.3517-1.7451-.0938-.4451-.1876-.89-.2928-1.3235-.0469-.2108-.0938-.41-.1407-.6207-.1172-.5036-.2459-1.0189-.386-1.5226-.1407-.5739-.3048-1.1478-.469-1.71-.1521-.55-.3162-1.1009-.48-1.6513-.0229-.0469-.0349-.0938-.0584-.1523-.1635-.5271-.3277-1.0541-.5152-1.5929-.5388-1.6046-1.1364-3.2091-1.78-4.7785a1.3406,1.3406,0,0,1-.0818-.1874c-.2345-.55-.4684-1.0893-.7028-1.6281-.5508-1.2414-1.1244-2.4595-1.7454-3.6658-.2459-.492-.5033-.9721-.7612-1.464-.3042-.5622-.62-1.1244-.9367-1.6866s-.6445-1.1244-.9842-1.6749q-.4393-.7378-.9133-1.4756c-.3981-.6559-.82-1.3-1.265-1.9443-.3981-.5973-.8081-1.1712-1.2182-1.7568-.89-1.2415-1.8151-2.4595-2.7873-3.6542-.3866-.4685-.7612-.9252-1.1592-1.382q-.6855-.8257-1.4057-1.6163c-.48-.5271-.9608-1.0541-1.4526-1.57s-.9951-1.0306-1.4989-1.5343a76.7817,76.7817,0,0,0-8.4913-7.3552q-.2281-.1757-.4569-.3513l-.0115-.0117c-.6679-.55-26.47-21.6792-63.07-13.1645-.4684.1054-.9374.2108-1.3937.3162-1.71.4333-3.2329.8433-4.58,1.2532q-.65.2107-1.3.4217a.2112.2112,0,0,0-.0818.0234c-.4455.1405-.8784.2928-1.3119.445-.199.082-.3981.1523-.5976.2226a77.8851,77.8851,0,0,0-51.2991,73.0956Z" style="fill:#e2991a"/><path d="M381.3868.2306a129.3171,129.3171,0,0,0-7.38,12.07c-1.4491,2.6967-2.8328,5.53-4.1279,8.41-.3488.7865-.6919,1.579-1.0231,2.3714-.2425-.5618-.4848-1.1236-.7334-1.6854-1.39-3.0752-2.738-5.8192-4.14-8.4154a129.8878,129.8878,0,0,0-7.83-12.7324C360.44.0828,364.7334,0,368.9972,0,373.1132,0,377.2529.0768,381.3868.2306Z" style="fill:#e9af49"/><path d="M274.0993,69.1135V70.355c-.0349,1.4289-.0932,2.811-.2105,4.1227a64.2518,64.2518,0,0,1-54.04,58.2211s-.8784.1172-1.09.1523a65.1163,65.1163,0,0,1-7.0272.5739h-.1636c-.4569.0117-.89.0117-1.3708.0117h-.2225A64.4645,64.4645,0,0,1,158.43,107.3538a66.7843,66.7843,0,0,1-3.9-5.9264,61.3017,61.3017,0,0,1-4.2983-8.8661c-.5856-1.5109-1.1243-3.0452-1.5813-4.556l.5153.0468c-.0469-.1288-.0938-.2694-.1287-.3982.1756-.1757.4215-.3982.7143-.6676.0938-.082.1876-.1757.2928-.2694s.2111-.1874.3163-.2928c.1052-.0937.2224-.1991.34-.3045.0583-.0469.1052-.1054.1755-.164a2.1308,2.1308,0,0,0,.1756-.164c.1762-.1522.3517-.3162.5387-.4919,2.7994-2.5181,7.391-6.6056,12.9543-11.2553.5616-.48,1.1358-.9487,1.7214-1.4407,1.7454-1.4523,3.584-2.94,5.4695-4.4506.1875-.1522.3751-.3045.5621-.445,10.2716-8.1751,22.1948-16.7836,32.1267-21.527A32.5215,32.5215,0,0,0,225.47,80.5446V69.1135a25.1432,25.1432,0,0,1,.4455-4.6263A23.67,23.67,0,0,1,229.16,56.23a24.402,24.402,0,0,1,20.6364-11.5014,21.9528,21.9528,0,0,1,3.0338.1875,23.6762,23.6762,0,0,1,8.4444,2.7171l.62.328A24.4472,24.4472,0,0,1,271.722,58.678c.07.1522.0469.1171.1172.2694.1052.2343.21.4684.3162.7144.1407.3163.2694.6442.3866.9722.0933.2459.187.4918.2688.7495.1527.4334.2928.8785.41,1.3235.1058.3631.2.7378.2813,1.1009.0818.3865.1642.773.2339,1.1712.012.0352.012.082.0241.1172.1286.75.21,1.5108.2687,2.2839,0,.0351.012.07.012.1171.0235.363.0349.7261.0469,1.1009C274.0993,68.7622,274.0993,68.9378,274.0993,69.1135Z" style="fill:#e9af49"/><path d="M462.665,69.1135V70.355c.0349,1.4289.0932,2.811.21,4.1227a64.2516,64.2516,0,0,0,54.04,58.2211s.8784.1172,1.0894.1523a65.12,65.12,0,0,0,7.0273.5739h.1636c.4569.0117.89.0117,1.3708.0117h.2224a64.4642,64.4642,0,0,0,51.5449-26.0829,66.8081,66.8081,0,0,0,3.9-5.9264,61.3012,61.3012,0,0,0,4.2982-8.8661c.5857-1.5109,1.1244-3.0452,1.5813-4.556l-.5153.0468c.0469-.1288.0938-.2694.1287-.3982-.1756-.1757-.4215-.3982-.7143-.6676-.0938-.082-.1875-.1757-.2928-.2694s-.211-.1874-.3162-.2928c-.1053-.0937-.2225-.1991-.34-.3045-.0584-.0469-.1053-.1054-.1756-.164a2.147,2.147,0,0,1-.1756-.164c-.1761-.1522-.3517-.3162-.5387-.4919-2.7993-2.5181-7.391-6.6056-12.9543-11.2553-.5615-.48-1.1357-.9487-1.7213-1.4407-1.7454-1.4523-3.584-2.94-5.47-4.4506-.1876-.1522-.3752-.3045-.5622-.445-10.2716-8.1751-22.1947-16.7836-32.1266-21.527a32.5217,32.5217,0,0,1-21.0464,34.3635V69.1135a25.1432,25.1432,0,0,0-.4455-4.6263,23.6742,23.6742,0,0,0-3.2443-8.257,24.402,24.402,0,0,0-20.6364-11.5014,21.9507,21.9507,0,0,0-3.0338.1875,23.6767,23.6767,0,0,0-8.4445,2.7171l-.62.328a24.4476,24.4476,0,0,0-9.8266,10.7166c-.07.1522-.0469.1171-.1172.2694-.1053.2343-.21.4684-.3163.7144-.1407.3163-.2694.6442-.3866.9722-.0932.2459-.187.4918-.2688.7495-.1527.4334-.2928.8785-.41,1.3235-.1058.3631-.2.7378-.2814,1.1009-.0818.3865-.1641.773-.2339,1.1712-.012.0352-.012.082-.024.1172-.1287.75-.21,1.5108-.2688,2.2839,0,.0351-.012.07-.012.1171-.0234.363-.0349.7261-.0469,1.1009C462.665,68.7622,462.665,68.9378,462.665,69.1135Z" style="fill:#e9af49"/><path d="M65.3536,237.792q-4.0584.3339-8.0579.9018,1.4583-5.4989,3.1271-10.9391A93.6731,93.6731,0,0,0,65.3536,237.792Z" style="fill:#e9af49"/><path d="M661.549,191.8452c-.9751-2.2049-1.973-4.3982-3.0167-6.58-.01-.02-.0183-.0406-.028-.0608a320.9816,320.9816,0,0,0-36.0269-59.1229c-.0515-.0259-.1053-.0471-.1573-.0729L622.3132,126c-3.4787-4.5444-7.2034-9.1941-11.1968-13.8673-1.7334,3.9939-3.9,7.8706-4.17,8.3391a.1354.1354,0,0,1-.0235.0469c-1.4406,2.2487-2.9984,4.474-4.638,6.6173-.5741.75-1.1477,1.4875-1.7453,2.2136-.2225.2694-.445.55-.6909.82-.012.0234-.0349.0351-.0469.0585-.0469.0586-.0938.1055-.1286.1523a1.0077,1.0077,0,0,1-.1058.1288c-.3392.4217-.6909.8316-1.054,1.2532l-.07.07c-.14.1757-.2928.34-.4449.5036-.3048.3514-.5976.6911-.89,1.019-.2339.2459-.4564.48-.6908.7261-.0092.011-.0206.022-.03.033-.1818.2221-.3906.435-.6142.6581-.3751.4216-.7732.82-1.16,1.218-.4214.4451-.8549.8668-1.2764,1.2767l-.3511.3513c-.48.4685-.9488.9136-1.4292,1.3587-.4335.4216-.89.8315-1.3353,1.23-.3163.2928-.644.5856-.9722.8667-.2574.2343-.5267.4685-.7846.6676q-.7378.65-1.4755,1.2649c-.7028.5739-1.4171,1.1361-2.132,1.6982q-2.16,1.669-4.368,3.1975c-.8556.5856-1.6985,1.1478-2.5535,1.6982-.6325.41-1.265.8082-1.9209,1.1947-.0235.0117-.0349.0351-.07.0469-.7028.4333-1.4171.8549-2.1314,1.2531a1.9039,1.9039,0,0,1-.34.1874.6341.6341,0,0,1-.0938.0586q-.9838.5622-1.9672,1.0892c-.0589.0235-.1058.0586-.1527.082-.5267.2694-1.0775.55-1.6042.82a1.1207,1.1207,0,0,0-.1172.0585l-.2814.1406c-.1521.082-.3277.1639-.48.2459-.1058.0469-.211.1054-.3282.164-.6674.3279-1.3354.6442-2.0262.9487-.8081.3747-1.64.7378-2.46,1.0892-.8315.3514-1.6516.691-2.4945,1.0307-.8436.3279-1.6751.6442-2.518.937-.7143.2693-1.4292.5153-2.1555.75a5.65,5.65,0,0,1-.5856.1873c-.1052.0352-.199.07-.3042.1055-.6908.2108-1.3937.4333-2.0965.6441s-1.4057.41-2.108.5973l-.6679.1757c-.7492.1991-1.4875.3865-2.2372.5622-.1756.0468-.3626.0819-.55.1288q-1.16.2635-2.319.4919c-.8315.1757-1.6516.328-2.4831.48a3.1561,3.1561,0,0,1-.3277.0469c-.855.164-1.71.2928-2.5769.41-.62.1054-1.2415.1757-1.862.2577a1.6077,1.6077,0,0,1-.2225.0234c-.2694.0351-.5273.07-.7966.0937-.6091.082-1.2181.1288-1.8386.1874-.5153.0586-1.0311.0937-1.5464.1288-.7257.07-1.464.1171-2.2018.1523-.0583,0-.1052.0117-.1641.0117-.7492.0351-1.5109.07-2.26.0937a1.1286,1.1286,0,0,1-.199,0c-.0823,0-.1527.0117-.2345.0117-.808.0234-1.6047.0352-2.4242.0352-1.8271,0-3.5719-.0587-5.3522-.1523-3.0687-.1757-6.2192-.5153-9.3343-.9956-1.2884-.1991-2.4482-.41-3.6429-.6441-.796-.164-1.5927-.3279-2.3893-.5036-1.5927-.3514-3.2088-.7614-4.837-1.2064-.808-.2342-1.6161-.4568-2.4362-.7145-.6674-.2108-1.3468-.4216-2.0027-.6441-.1876-.0586-.3632-.1288-.55-.1874-.1527-.0469-.3048-.1054-.4455-.164a2.02,2.02,0,0,1-.2459-.082,2.0951,2.0951,0,0,1-.2459-.0937.92.92,0,0,1-.2339-.082c-.5627-.1873-1.1014-.3981-1.6516-.5972-.75-.2695-1.4875-.574-2.2252-.8668q-.58-.2283-1.1249-.4567c-.5387-.2225-1.0654-.4568-1.5927-.6911-.2573-.117-.5267-.2342-.796-.363-.5742-.2577-1.16-.5271-1.7334-.7964l-.4569-.2343c-.8081-.3865-1.6047-.7847-2.3774-1.1829-.6565-.3514-1.3119-.7027-1.9564-1.0658a1.7753,1.7753,0,0,1-.2928-.1523c-.199-.1054-.386-.2108-.5856-.3162-.5032-.2928-1.0185-.5856-1.5109-.89-.0463-.0233-.0818-.0468-.1287-.07-.2813-.164-.5621-.3279-.8429-.5037-.668-.3981-1.3239-.7964-1.9679-1.218q-1.1416-.72-2.2486-1.4757a2.6066,2.6066,0,0,1-.2225-.164,2.6819,2.6819,0,0,1-.3517-.2459c-.609-.41-1.2181-.8316-1.8037-1.265-.7612-.5387-1.5109-1.1009-2.2486-1.6748-1.4755-1.1244-2.9161-2.3073-4.3218-3.5254-.7028-.6207-1.3936-1.23-2.0965-1.8622-.6794-.6325-1.3468-1.2766-2.0142-1.9208a96.0283,96.0283,0,0,1-14.09-17.334q-1.4934-2.3717-2.87-4.8371c-.9133-1.64-1.78-3.3028-2.5883-5.0128q-1.2294-2.5474-2.307-5.1768c-.7149-1.7568-1.37-3.537-1.9913-5.3407a99.1813,99.1813,0,0,1-3.5606-13.832l-.1755-1.0073v-.0469a97.3034,97.3034,0,0,1-1.3-15.8114A55.6357,55.6357,0,0,1,437.554,44.19c.2459-.4919.5038-.972.7617-1.464a55.6288,55.6288,0,0,1,26.715-24.5135c.07-.0351.1641-.0586.2344-.0937.5153-.2225,1.0191-.4333,1.5344-.6325.2459-.0936.4918-.1991.75-.2811a.627.627,0,0,1,.1287-.0585c.4569-.1757.9368-.3514,1.4051-.5153A316.8989,316.8989,0,0,0,425.3266,5.458q-7.1148-1.3-14.2885-2.2605v0l-.0006,0a155.5191,155.5191,0,0,0-42.6556,74.7353A155.5181,155.5181,0,0,0,325.7264,3.1975l-.0006,0v0q-7.1671.9663-14.2885,2.2605a316.8952,316.8952,0,0,0-43.7564,11.1734c.4683.1639.9481.34,1.4051.5153a.6239.6239,0,0,1,.1286.0585c.258.082.5039.1875.75.2811.5153.1992,1.0191.41,1.5343.6325.07.0351.1642.0586.2345.0937A55.6281,55.6281,0,0,1,298.4481,42.726c.258.492.5159.9721.7618,1.464a55.6357,55.6357,0,0,1,5.9144,24.9235,97.3034,97.3034,0,0,1-1.3,15.8114v.0469l-.1756,1.0073a99.1669,99.1669,0,0,1-3.56,13.832c-.6211,1.8037-1.2764,3.5839-1.9913,5.3407s-1.4875,3.4785-2.307,5.1768c-.8086,1.71-1.675,3.3731-2.5883,5.0128s-1.8741,3.256-2.87,4.8371a96.0246,96.0246,0,0,1-14.09,17.334c-.6673.6442-1.3347,1.2883-2.0141,1.9208-.7029.6325-1.3937,1.2415-2.0966,1.8622-1.4056,1.2181-2.8462,2.401-4.3217,3.5254-.7377.5739-1.4874,1.1361-2.2486,1.6748-.5856.4334-1.1947.855-1.8037,1.265a2.6819,2.6819,0,0,1-.3517.2459,2.6225,2.6225,0,0,1-.2225.164q-1.1066.7554-2.2486,1.4757c-.644.4216-1.3.82-1.9679,1.218-.2808.1758-.5616.34-.8429.5037-.0469.0234-.0824.0469-.1287.07-.4924.3046-1.0077.5974-1.5109.89-.2.1054-.3866.2108-.5856.3162a1.7753,1.7753,0,0,1-.2928.1523c-.6446.3631-1.3.7144-1.9565,1.0658-.7726.3982-1.5692.7964-2.3773,1.1829l-.4569.2343c-.5736.2693-1.1592.5387-1.7334.7964-.2693.1288-.5387.246-.796.363-.5273.2343-1.054.4686-1.5927.6911q-.5455.2285-1.1249.4567c-.7378.2928-1.4755.5973-2.2252.8668-.55.1991-1.0889.41-1.6516.5972a.92.92,0,0,1-.2339.082,2.0951,2.0951,0,0,1-.2459.0937,2.0255,2.0255,0,0,1-.2459.082c-.1407.0586-.2928.1171-.4455.164-.187.0586-.3626.1288-.55.1874-.6559.2225-1.3353.4333-2.0027.6441-.82.2577-1.6282.48-2.4362.7145-1.6282.445-3.2443.855-4.837,1.2064-.7961.1757-1.5927.34-2.3893.5036-1.1947.2342-2.3545.445-3.6429.6441-3.1151.48-6.2656.82-9.3343.9956-1.78.0936-3.5251.1523-5.3523.1523-.82,0-1.6161-.0118-2.4242-.0352-.0817,0-.1521-.0117-.2344-.0117a1.1282,1.1282,0,0,1-.199,0c-.7492-.0234-1.511-.0586-2.26-.0937-.0589,0-.1058-.0117-.1642-.0117-.7377-.0352-1.476-.082-2.2017-.1523-.5153-.0351-1.0311-.07-1.5464-.1288-.62-.0586-1.23-.1054-1.8386-.1874-.2693-.0235-.5273-.0586-.7966-.0937a1.6061,1.6061,0,0,1-.2225-.0234c-.62-.082-1.2415-.1523-1.862-.2577-.867-.1171-1.722-.2459-2.5769-.41a3.1522,3.1522,0,0,1-.3277-.0469c-.8315-.1522-1.6516-.3045-2.4831-.48q-1.16-.2283-2.319-.4919c-.1876-.0469-.3746-.082-.55-.1288-.75-.1757-1.488-.3631-2.2372-.5622l-.6679-.1757q-1.0535-.2811-2.108-.5973c-.7028-.2108-1.4057-.4333-2.0965-.6441-.1052-.0352-.199-.07-.3043-.1055a5.6649,5.6649,0,0,1-.5856-.1873c-.7262-.2343-1.4411-.48-2.1554-.75-.8429-.2928-1.6745-.6091-2.518-.937-.8429-.34-1.663-.6793-2.4945-1.0307-.82-.3514-1.6516-.7145-2.46-1.0892-.6908-.3045-1.3588-.6208-2.0262-.9487-.1172-.0586-.2224-.1171-.3282-.164-.1522-.082-.3277-.1639-.48-.2459l-.2813-.1406a1.0074,1.0074,0,0,0-.1173-.0585c-.5267-.2694-1.0774-.55-1.6041-.82-.0469-.0234-.0938-.0585-.1527-.082q-.9831-.5269-1.9673-1.0892a.638.638,0,0,1-.0937-.0586,1.9039,1.9039,0,0,1-.34-.1874c-.7143-.3982-1.4286-.82-2.1314-1.2531-.0355-.0118-.0469-.0352-.07-.0469-.6559-.3865-1.2884-.7847-1.9209-1.1947-.855-.55-1.698-1.1126-2.5535-1.6982q-2.2132-1.5284-4.368-3.1975c-.7149-.5621-1.4292-1.1243-2.132-1.6982q-.7377-.6149-1.4755-1.2649c-.2579-.1991-.5272-.4333-.7846-.6676-.3283-.2811-.6559-.5739-.9722-.8667-.4449-.3982-.9019-.8081-1.3353-1.23-.48-.4451-.9488-.89-1.4292-1.3587l-.3511-.3513c-.4215-.41-.855-.8316-1.2765-1.2767-.3865-.3982-.7846-.7964-1.16-1.218-.2231-.2231-.4318-.436-.6137-.6581l-.03-.033c-.2344-.2459-.4569-.48-.6908-.7261-.2928-.3279-.5856-.6676-.89-1.019-.1521-.1639-.3048-.3279-.4449-.5036l-.07-.07c-.3631-.4216-.7148-.8315-1.054-1.2532a1.0077,1.0077,0,0,1-.1058-.1288c-.0349-.0468-.0817-.0937-.1286-.1523-.0121-.0234-.0349-.0351-.0469-.0585-.2459-.2694-.4684-.55-.6909-.82-.5976-.7261-1.1712-1.464-1.7454-2.2136-1.6395-2.1433-3.1974-4.3686-4.6379-6.6173a.1332.1332,0,0,1-.0235-.0469c-.2693-.4685-2.4362-4.3452-4.17-8.3391-3.9934,4.6732-7.7181,9.3229-11.1969,13.8673l-.0068.0091c-.0515.0258-.1052.047-.1573.0729A320.9761,320.9761,0,0,0,78.26,185.2044l-.0274.0608c-1.0437,2.1818-2.0416,4.3751-3.0173,6.58a.9829.9829,0,0,0-.0469.1054,70.4332,70.4332,0,0,0,9.5688,32.9463,71.2876,71.2876,0,0,0,5.1418,7.6364c.34.4449.7028.89,1.0654,1.3117.3162.3982.6445.7964.9607,1.1829.0584.082.1167.1406.1756.2109.3512.3981.6908.7964,1.0426,1.1828.3745.4217.7491.8433,1.1357,1.2415q.5628.6326,1.16,1.23c.7732.7847,1.5692,1.5577,2.3773,2.319.3986.3748.8081.75,1.23,1.1127.8195.7379,1.6631,1.4406,2.506,2.1316.48.3865.9722.773,1.4526,1.1361.3746.2928.7732.5738,1.1592.8667.5393.3982,1.0894.7847,1.6282,1.1829.8315.5856,1.6864,1.1244,2.5414,1.6514.3866.2342.75.48,1.1478.7027.1527.1055.3162.1874.48.2811.3511.2226.7028.41,1.0539.6091.457.2693.9139.5153,1.3823.773.14.0819.2928.1522.4449.2342.0938.0468.1876.1054.2928.1523.3746.1991.75.3865,1.1363.5739.3043.1639.6205.3162.9368.4567.1052.0469.199.1054.3042.1406.4335.2108.867.41,1.3119.609.5856.2694,1.1947.527,1.8037.773,1.5224.6208,3.08,1.2064,4.638,1.7217.1052.0351.2345.082.34.1171.0823.0235.1407.0351.2225.0586.34.1288.7028.2342,1.0539.328.0938.0351.1876.07.27.0936.82.246,1.64.4685,2.4711.691.6439.164,1.3.3163,1.9558.48a1.322,1.322,0,0,1,.211.0352c.5033.1288,1.0071.2342,1.5224.3279.34.07.6559.1406.9836.1874.5976.1288,1.1947.2226,1.8037.3279h.0006l.8435-5.3407c.1756-1.3235.3861-2.6353.6325-3.9587.1167-.6559.246-1.3234.3746-1.9677.0115-.0468.0115-.082.0235-.1288.1052-.527.2224-1.0775.34-1.6045.0817-.41.187-.8316.2808-1.2532.0354-.1523.0817-.3046.1172-.4568.07-.3162.1521-.6442.2345-.96.2339-.9487.4918-1.874.7491-2.8109.1173-.3748.2111-.75.3283-1.1127.1636-.5388.34-1.0892.5033-1.628s.34-1.0658.5272-1.6046c.1407-.4567.2928-.89.445-1.3234s.3162-.8667.48-1.3118c.2225-.609.445-1.2063.6909-1.8154.0234-.0585.0469-.1405.07-.199.0469-.1055.0818-.2109.1287-.3163.0354-.082.07-.1874.1058-.2694.0114-.0234.0234-.0585.0349-.0819a2.5042,2.5042,0,0,0,.1052-.2694c.34-.82.6914-1.6163,1.0425-2.4244.3517-.7964.7143-1.6046,1.1009-2.4011.1762-.3864.3632-.7847.5622-1.1828.1172-.2343.2224-.4568.34-.6676.1875-.41.3986-.82.609-1.2182.34-.6675.6909-1.3234,1.066-1.991.0583-.1171.1287-.2225.1876-.3514.4215-.7612.855-1.4991,1.2764-2.237a.8.8,0,0,0,.0818-.1288c.3986-.6676.7966-1.3352,1.2067-1.9911a.6525.6525,0,0,0,.0932-.1522.2708.2708,0,0,1,.0469-.0586c.1058-.164.2-.3162.2928-.4685q.6854-1.0892,1.4057-2.1433c.4335-.6442.8784-1.2884,1.3353-1.9091.2808-.3982.55-.7964.855-1.1829.1876-.2694.3866-.5271.5856-.7848.2694-.3747.55-.7378.8315-1.1009.41-.527.82-1.0541,1.2416-1.5694.2928-.3748.609-.75.9253-1.1244.4215-.5153.855-1.0189,1.3-1.5226.2344-.2928.4918-.5738.75-.8549.3163-.3631.6325-.7262.96-1.0776.0583-.0585.1172-.1288.1756-.1874.3162-.3279.609-.6558.9253-.9838.2579-.2694.5038-.527.7732-.7964.0114-.0234.0348-.0351.0583-.0586.2814-.3045.5622-.5856.867-.8784.4683-.4919.96-.96,1.44-1.4288a95.07,95.07,0,0,1,61.0554-26.3993c1.7568-.07,3.2912-.1171,4.72-.1171.4563,0,.89,0,1.3462.0235.6211.0116,1.23.0234,1.8386.0468.2345.0117.4684.0117.7028.0235.1876,0,.3752.0116.5742.0233.55.0235,1.0889.0469,1.6276.0937h.0354c.4564.0235.9019.0469,1.3468.0938.3163.0233.6445.0585.9722.082.3981.0351.8081.07,1.23.117.41.0352.82.082,1.2415.1289.2814.0234.5742.07.8436.1054.386.0468.75.0937,1.1477.14.4221.0469.8436.1171,1.265.1874.48.082.9608.14,1.4406.2343.3632.0469.7143.1054,1.0774.1757.5267.0936,1.0655.1991,1.5927.3045a1.4845,1.4845,0,0,1,.3283.07c.6325.1171,1.2644.2459,1.8969.3981.7029.1523,1.3937.3046,2.0851.48q.8253.1932,1.651.4216h.0469c.012,0,.0355.0117.0469.0117.2814.0937.5387.1523.82.2343a.1686.1686,0,0,1,.0818.0234c.3866.0937.7612.2108,1.1363.3162.3283.0937.6445.1874.9722.2928a1.1867,1.1867,0,0,0,.14.0351c.1756.0586.34.1055.4924.164a4.855,4.855,0,0,1,.5856.1757c.187.0586.3746.1288.5736.1874.398.1171.7967.246,1.1832.3748.843.2928,1.6865.5856,2.5295.9018.6674.2459,1.3468.5154,2.0262.773.8435.328,1.7333.7028,2.74,1.1361,1.9444.8315,3.76,1.6982,5.3763,2.5181a95.8192,95.8192,0,0,1,20.8829,14.4528,96.86,96.86,0,0,1,13.5393,15.2493l.1641-.07,2.6816,4.228c.8669,1.37,1.675,2.7406,2.4716,4.146l.3512.6208c.1521.2577.3162.55.4215.75.0468.0819.0937.1991.1755.34a3.0632,3.0632,0,0,0,.1527.2694c.3043.5973.7143,1.3469.7143,1.3469l.4335.855,1.1357,2.3424c.07.1406.1876.3983.2928.6207.0355.07.07.164.1053.246l.024.0352a.7973.7973,0,0,0,.0583.1171c.3512.773.6909,1.546,1.0071,2.3073.1756.41.3517.8315.5153,1.2531.1761.41.34.8316.5158,1.265a3.1652,3.1652,0,0,0,.1167.3045,1.0274,1.0274,0,0,0,.0469.1054c.0234.07.0354.1289.0583.1874.0709.1757.1407.3631.2.5388l.0006,0v0a155.9929,155.9929,0,0,0,49.5536-79.28c.199-.7613.3866-1.5343.5621-2.3073.1756.773.3632,1.546.5622,2.3073a155.9929,155.9929,0,0,0,49.5536,79.28l.0006,0v0c.0589-.1757.1287-.3631.2-.5388.0229-.0585.0349-.1171.0583-.1874a1.0274,1.0274,0,0,0,.0469-.1054,3.1652,3.1652,0,0,0,.1167-.3045c.1761-.4334.34-.855.5158-1.265.1636-.4216.34-.8432.5153-1.2531.3162-.7613.6559-1.5343,1.0071-2.3073a.7973.7973,0,0,0,.0583-.1171l.024-.0352c.0349-.082.07-.1756.1052-.246.1053-.2224.2225-.48.2928-.6207l1.1358-2.3424.4335-.855s.41-.75.7143-1.3469a3.0632,3.0632,0,0,0,.1527-.2694c.0817-.1405.1286-.2577.1755-.34.1053-.1991.2694-.4919.4215-.75l.3511-.6208c.7967-1.4054,1.6048-2.7757,2.4717-4.146l2.6822-4.228.1635.07a96.86,96.86,0,0,1,13.5393-15.2493,95.8192,95.8192,0,0,1,20.8829-14.4528c1.6161-.82,3.4319-1.6866,5.3763-2.5181,1.007-.4333,1.8969-.8081,2.74-1.1361.6794-.2576,1.3588-.5271,2.0262-.773.843-.3162,1.6865-.609,2.5294-.9018.3866-.1288.7852-.2577,1.1833-.3748.199-.0586.3866-.1288.5736-.1874a4.85,4.85,0,0,1,.5856-.1757c.1527-.0585.3168-.1054.4924-.164a1.1867,1.1867,0,0,0,.14-.0351c.3282-.1054.6445-.1991.9722-.2928.3751-.1054.75-.2225,1.1363-.3162a.1686.1686,0,0,1,.0818-.0234c.2814-.082.5387-.1406.82-.2343.0114,0,.0348-.0117.0469-.0117h.0469q.8252-.2285,1.651-.4216c.6914-.1757,1.3822-.328,2.0851-.48.6325-.1522,1.2644-.281,1.8969-.3981a1.4845,1.4845,0,0,1,.3283-.07c.5272-.1054,1.0659-.2109,1.5927-.3045.3631-.07.7142-.1288,1.0774-.1757.48-.0938.9607-.1523,1.44-.2343.4221-.07.8436-.1405,1.2651-.1874.398-.0468.7617-.0937,1.1477-.14.2694-.0352.5622-.082.8435-.1054.4215-.0469.8316-.0937,1.2416-.1289.4215-.0468.8315-.0819,1.23-.117.3276-.0235.6559-.0587.9722-.082.4449-.0469.89-.07,1.3467-.0938h.0355c.5387-.0468,1.0774-.07,1.6276-.0937.199-.0117.3866-.0233.5741-.0233.2345-.0118.4684-.0118.7029-.0235.609-.0234,1.2175-.0352,1.8386-.0468.4569-.0235.89-.0235,1.3468-.0235,1.4291,0,2.9635.0469,4.72.1171a95.07,95.07,0,0,1,61.0553,26.3993c.48.4684.9722.9369,1.4406,1.4288.3048.2928.5856.5739.867.8784.0234.0235.0469.0352.0583.0586.2694.2694.5153.527.7732.7964.3163.328.6091.6559.9253.9838.0583.0586.1172.1289.1756.1874.3277.3514.6439.7145.96,1.0776.2579.2811.5152.5621.75.8549.4449.5037.8784,1.0073,1.3,1.5226.3163.3748.6325.75.9253,1.1244.4215.5153.8315,1.0424,1.2416,1.5694.2813.3631.5621.7262.8315,1.1009.199.2577.398.5154.5856.7848.3048.3865.5742.7847.855,1.1829.4569.6207.9018,1.2649,1.3353,1.9091q.7206,1.054,1.4057,2.1433c.0938.1523.1876.3045.2928.4685a.2414.2414,0,0,1,.0469.0586.6525.6525,0,0,0,.0932.1522c.41.6559.8081,1.3235,1.2067,1.9911a.8.8,0,0,0,.0818.1288c.4214.7379.8549,1.4758,1.2764,2.237.0589.1289.1292.2343.1876.3514.3751.6676.7263,1.3235,1.066,1.991.21.3983.4214.8082.609,1.2182.1173.2108.2225.4333.34.6676.2.3981.3866.7964.5622,1.1828.3866.7965.7491,1.6047,1.1008,2.4011.3512.8081.7029,1.6045,1.0426,2.4244a2.7575,2.7575,0,0,0,.1052.2694c.0115.0234.0235.0585.0349.0819.0355.082.07.1874.1058.2694.0469.1054.0818.2108.1287.3163.0234.0585.0469.1405.07.199.2459.6091.4684,1.2064.6908,1.8154.1642.4451.3283.8784.48,1.3118s.3043.8667.445,1.3234c.1875.5388.3631,1.0659.5272,1.6046s.34,1.0892.5033,1.628c.1172.3631.211.7379.3282,1.1127.2574.9369.5153,1.8622.7492,2.8109.0824.3162.1641.6442.2345.96.0354.1522.0818.3045.1172.4568.0938.4216.199.8433.2808,1.2532.1173.527.2345,1.0775.34,1.6045.012.0468.012.082.0235.1288.1286.6443.2579,1.3118.3745,1.9677.2465,1.3234.457,2.6352.6325,3.9587l.8436,5.3407h0c.6091-.1053,1.2061-.1991,1.8038-.3279.3277-.0468.6439-.1171.9836-.1874.5153-.0937,1.0191-.1991,1.5224-.3279a1.322,1.322,0,0,1,.211-.0352c.6559-.1639,1.3119-.3162,1.9558-.48.8315-.2225,1.6516-.445,2.4711-.691.0824-.0234.1762-.0585.27-.0936a11.0332,11.0332,0,0,0,1.054-.328c.0818-.0235.14-.0351.2225-.0586.1052-.0351.2345-.082.34-.1171,1.5578-.5153,3.1156-1.1009,4.638-1.7217.609-.246,1.2181-.5036,1.8037-.773.4449-.1991.8784-.3982,1.3119-.609.1052-.0352.199-.0937.3042-.1406.3163-.1405.6325-.2928.9368-.4567.3865-.1874.7617-.3748,1.1363-.5739.1052-.0469.199-.1055.2928-.1523.1521-.082.3048-.1523.4449-.2342.4684-.2577.9253-.5037,1.3823-.773.3511-.1991.7028-.3865,1.0539-.6091.1642-.0937.3277-.1756.48-.2811.398-.2225.7612-.4685,1.1478-.7027.8549-.527,1.71-1.0658,2.5414-1.6514.5387-.3982,1.0889-.7847,1.6282-1.1829.386-.2929.7846-.5739,1.1592-.8667.48-.3631.9722-.75,1.4526-1.1361.8429-.691,1.6865-1.3937,2.506-2.1316.422-.3631.8315-.7379,1.23-1.1127.808-.7613,1.6041-1.5343,2.3773-2.319q.597-.5973,1.16-1.23c.3866-.3982.7611-.82,1.1357-1.2415.3517-.3864.6914-.7847,1.0426-1.1828.0589-.07.1172-.1289.1755-.2109.3163-.3865.6446-.7847.9608-1.1829.3626-.4217.7257-.8668,1.0654-1.3117a71.2876,71.2876,0,0,0,5.1418-7.6364,70.4332,70.4332,0,0,0,9.5688-32.9463A1.0108,1.0108,0,0,0,661.549,191.8452Z" style="fill:#e9af49"/><path d="M670.7547,237.792q4.0584.3339,8.0579.9018-1.4583-5.4989-3.1271-10.9391A93.6731,93.6731,0,0,1,670.7547,237.792Z" style="fill:#e9af49"/><path d="M64.1355,343.81q-1.2121.4216-2.3539.9487l.5621-.2811c.1991-.082.48-.1991.75-.3045l.1052-.0351c.2459-.0937.4335-.1757.6091-.2343Z" style="fill:#f0ad1e"/><path d="M70.1322,342.6041a23.6143,23.6143,0,0,0-5.8441,1.1595A22.4009,22.4009,0,0,1,70.1322,342.6041Z" style="fill:#f0ad1e"/><path d="M49.9173,356.483c-.07.1639-.1521.3279-.211.4919-.07.1406-.1407.2811-.199.4334v-.0352c.0583-.1405.1286-.2928.187-.4334C49.7652,356.7875,49.835,356.6352,49.9173,356.483Z" style="fill:#f0ad1e"/><path d="M61.7816,344.7591a23.96,23.96,0,0,0-3.9351,2.2956,24.649,24.649,0,0,0-4.4979,4.1227,23.7145,23.7145,0,0,1,4.4979-4.1578c.2224-.164.4449-.3163.6788-.4685.1292-.082.3866-.2577.3866-.2577.1641-.0937.34-.2108.5158-.3162l.21-.1288.1755-.0937c.5153-.2928.9019-.5154,1.3-.7028l.1876-.0937Z" style="fill:#f0ad1e"/><path d="M140.2416,489.8375a46.7578,46.7578,0,0,0-18.4238-7.73c.3866.0586.7618.1289,1.1484.2109A45.8074,45.8074,0,0,1,140.2416,489.8375Z" style="fill:#f0ad1e"/><path d="M153.9325,463.8834c-.5267-.3279-1.054-.6558-1.5927-.9721.0469-.55.0938-1.1009.1286-1.6514-.0348.55-.07,1.101-.0932,1.6514C152.9019,463.2276,153.4178,463.5438,153.9325,463.8834Z" style="fill:#f0ad1e"/><path d="M158.1141,437.1212c-.644,1.5694-1.2416,3.1739-1.78,4.7785C156.8605,440.2951,157.4581,438.7023,158.1141,437.1212Z" style="fill:#f0ad1e"/><path d="M248.45,391.3149c-.4564-.1054-.9253-.2108-1.3937-.3162.2345.0351.4684.0937.7028.1523S248.2273,391.2681,248.45,391.3149Z" style="fill:#f0ad1e"/><path d="M155.9123,508.4013c-.5507-1.1477-1.1478-2.2721-1.7688-3.3613C154.788,506.1292,155.3736,507.2536,155.9123,508.4013Z" style="fill:#f0ad1e"/><path d="M173.55,481.6976c-.21-.281-.4329-.5622-.6554-.8433.1287.164.2694.328.3981.4919C173.3747,481.4634,173.4685,481.5805,173.55,481.6976Z" style="fill:#f0ad1e"/><path d="M167.2024,474.5064c-.3866-.3866-.7726-.7614-1.1712-1.1362-.187-.1873-.3746-.363-.5736-.55a.6433.6433,0,0,0,.1052.082c.0818.082.1642.1523.2459.2343.1173.1053.2345.2108.3517.3279.21.2108.4215.41.6326.6207A4.7079,4.7079,0,0,1,167.2024,474.5064Z" style="fill:#f0ad1e"/><path d="M168.058,475.3613c-.2928-.2928-.5742-.5739-.8556-.8549.1058.0937.211.1991.3163.2928.1058.1053.2.2108.3048.3162C167.9053,475.1973,167.987,475.2793,168.058,475.3613Z" style="fill:#f0ad1e"/><path d="M183.5177,404.5262a76.7919,76.7919,0,0,0-8.4914,7.3552c-.5038.5037-1.007,1.0191-1.4989,1.5343.48-.527.9837-1.0423,1.4989-1.5576,1.6162-1.628,3.4085-3.2561,5.27-4.8372,1.0071-.8316,2.0731-1.6748,3.1974-2.5181C183.5056,404.5028,183.5056,404.5145,183.5177,404.5262Z" style="fill:#f0ad1e"/><path d="M187.172,486.3708c-.3866-1.4523-.7383-2.9163-1.0311-4.3921C186.4457,483.4545,186.7974,484.9185,187.172,486.3708Z" style="fill:#f0ad1e"/><path d="M49.9173,356.483c-.07.1639-.1521.3279-.211.4919a.0424.0424,0,0,1-.012-.0352C49.7652,356.7875,49.835,356.6352,49.9173,356.483Z" style="fill:#f0ad1e"/><path d="M57.8465,347.02v.0351a24.649,24.649,0,0,0-4.4979,4.1227A23.7145,23.7145,0,0,1,57.8465,347.02Z" style="fill:#f0ad1e"/><path d="M672.6288,343.81q1.2122.4216,2.3539.9487l-.5622-.2811c-.199-.082-.48-.1991-.75-.3045l-.1053-.0351c-.2459-.0937-.4334-.1757-.609-.2343Z" style="fill:#f0ad1e"/><path d="M666.632,342.6041a23.6134,23.6134,0,0,1,5.8441,1.1595A22.4,22.4,0,0,0,666.632,342.6041Z" style="fill:#f0ad1e"/><path d="M686.8469,356.483c.07.1639.1522.3279.2111.4919.07.1406.1406.2811.199.4334v-.0352c-.0584-.1405-.1287-.2928-.187-.4334C686.9991,356.7875,686.9293,356.6352,686.8469,356.483Z" style="fill:#f0ad1e"/><path d="M674.9827,344.7591a23.9685,23.9685,0,0,1,3.9351,2.2956,24.6517,24.6517,0,0,1,4.4978,4.1227,23.7139,23.7139,0,0,0-4.4978-4.1578c-.2225-.164-.4449-.3163-.6788-.4685-.1293-.082-.3866-.2577-.3866-.2577-.1642-.0937-.34-.2108-.5159-.3162l-.21-.1288-.1756-.0937c-.5153-.2928-.9018-.5154-1.3-.7028l-.1876-.0937Z" style="fill:#f0ad1e"/><path d="M596.5227,489.8375a46.7574,46.7574,0,0,1,18.4237-7.73c-.3866.0586-.7617.1289-1.1483.2109A45.8067,45.8067,0,0,0,596.5227,489.8375Z" style="fill:#f0ad1e"/><path d="M582.8318,463.8834c.5267-.3279,1.054-.6558,1.5927-.9721-.0469-.55-.0938-1.1009-.1287-1.6514.0349.55.07,1.101.0932,1.6514C583.8623,463.2276,583.3465,463.5438,582.8318,463.8834Z" style="fill:#f0ad1e"/><path d="M578.65,437.1212c.6439,1.5694,1.2415,3.1739,1.78,4.7785C579.9038,440.2951,579.3061,438.7023,578.65,437.1212Z" style="fill:#f0ad1e"/><path d="M488.3145,391.3149c.4563-.1054.9253-.2108,1.3937-.3162-.2345.0351-.4684.0937-.7029.1523S488.5369,391.2681,488.3145,391.3149Z" style="fill:#f0ad1e"/><path d="M580.8519,508.4013c.5508-1.1477,1.1478-2.2721,1.7689-3.3613C581.9763,506.1292,581.3907,507.2536,580.8519,508.4013Z" style="fill:#f0ad1e"/><path d="M563.2139,481.6976c.2105-.281.433-.5622.6554-.8433-.1287.164-.2693.328-.398.4919C563.39,481.4634,563.2957,481.5805,563.2139,481.6976Z" style="fill:#f0ad1e"/><path d="M569.5618,474.5064c.3866-.3866.7726-.7614,1.1712-1.1362.1871-.1873.3746-.363.5736-.55a.6391.6391,0,0,1-.1052.082c-.0818.082-.1641.1523-.2459.2343-.1172.1053-.2345.2108-.3517.3279-.2105.2108-.4215.41-.6325.6207A4.7088,4.7088,0,0,0,569.5618,474.5064Z" style="fill:#f0ad1e"/><path d="M568.7063,475.3613c.2928-.2928.5742-.5739.8555-.8549-.1058.0937-.211.1991-.3162.2928-.1058.1053-.2.2108-.3048.3162C568.859,475.1973,568.7772,475.2793,568.7063,475.3613Z" style="fill:#f0ad1e"/><path d="M553.2466,404.5262a76.7817,76.7817,0,0,1,8.4913,7.3552c.5038.5037,1.0071,1.0191,1.4989,1.5343-.48-.527-.9836-1.0423-1.4989-1.5576-1.6161-1.628-3.4084-3.2561-5.27-4.8372-1.007-.8316-2.073-1.6748-3.1974-2.5181C553.2586,404.5028,553.2586,404.5145,553.2466,404.5262Z" style="fill:#f0ad1e"/><path d="M549.5923,486.3708c.3866-1.4523.7383-2.9163,1.0311-4.3921C550.3186,483.4545,549.9668,484.9185,549.5923,486.3708Z" style="fill:#f0ad1e"/><path d="M686.8469,356.483c.07.1639.1522.3279.2111.4919a.0424.0424,0,0,0,.012-.0352C686.9991,356.7875,686.9293,356.6352,686.8469,356.483Z" style="fill:#f0ad1e"/><path d="M678.9178,347.02v.0351a24.6517,24.6517,0,0,1,4.4978,4.1227A23.7139,23.7139,0,0,0,678.9178,347.02Z" style="fill:#f0ad1e"/><path d="M398.6113,403.1793l-12.2509,8.14a32.8359,32.8359,0,0,1-13.469,5.3876,25.2869,25.2869,0,0,1-4.5093.2694,31.36,31.36,0,0,1-16.76-5.657l-12.2389-8.14a1.4367,1.4367,0,0,1,.4569-2.6l11.782-2.846c1.9209-.4685,3.8533-.855,5.8091-1.16a16.4038,16.4038,0,0,1,10.33,1.7568l.34.1757a1.441,1.441,0,0,0,.2808.1171,1.7932,1.7932,0,0,0,1.3468-.1054l.5742-.2928a16.5593,16.5593,0,0,1,10.2367-1.6514c1.9558.3045,3.9.691,5.8206,1.16l11.7945,2.846A1.4394,1.4394,0,0,1,398.6113,403.1793Z" style="fill:#f0ad1e"/><path d="M293.3426,267.0372a103.8069,103.8069,0,0,1-103.9569,102.95h-.2579c-.4569,0-.8784,0-1.2764-.0117l-.211-.0117a104.3191,104.3191,0,0,1-30.2292-4.9543c-.7966-1.628-1.651-3.2443-2.5414-4.8488a95.6919,95.6919,0,0,0-60.985-46.0873,98.6618,98.6618,0,0,0-12.6964-2.1083c-.0349,0-.0583-.0116-.0932-.0116-9.1478-.8668-19.0677-.34-27.758,2.764-1.3.4685-2.5769,1.0073-3.8419,1.5578-.5622.2459-1.1244.5036-1.6745.773.0234-2.1317.07-4.2867.1407-6.4535q.2632-6.7461.796-13.4807a324.0756,324.0756,0,0,1,4.2983-32.5363c1.7923-.328,3.5726-.5973,5.3763-.8316,1.7917-.2225,3.584-.41,5.3757-.55l1.0425-.07.843-.0586,2.3893-.1171.3751-.0117c.1522,0,.3157-.0117.4684-.0117l.7726-.0118c.1762-.0116.3517-.0116.5273-.0116l.9836-.0117,2.5186.082A102.9988,102.9988,0,0,0,140.78,292.4409a55.6151,55.6151,0,0,0,48.6054,28.9173,55.0576,55.0576,0,0,0,32.7586-10.7635c13.6566-10.0607,15.987-27.6523,8.9483-40.8753a31.9756,31.9756,0,0,0-17.3813-15.097v10.81a24.81,24.81,0,0,1-.48,4.8723,24.2546,24.2546,0,0,1-48.137-3.7362c.0234-1.6866.1172-3.3615.2693-5.0128A64.2448,64.2448,0,0,1,228.34,203.3934h.867a66.2457,66.2457,0,0,1,7.554.4334A64.2094,64.2094,0,0,1,291.3284,251.53a61.7209,61.7209,0,0,1,1.37,6.8515A66.227,66.227,0,0,1,293.3426,267.0372Z" style="fill:#f0ad1e"/><path d="M182.9086,384.557a97.3646,97.3646,0,0,0-12.5437,10.5994,94.278,94.278,0,0,0-6.8751,7.6716v-.3046a83.63,83.63,0,0,0-3.1271-22.7216c.7023.2226,1.4051.4334,2.108.6442A121.0264,121.0264,0,0,0,182.9086,384.557Z" style="fill:#f0ad1e"/><path d="M443.4217,267.0372a103.8069,103.8069,0,0,0,103.9568,102.95h.2579c.457,0,.8784,0,1.2765-.0117l.211-.0117a104.319,104.319,0,0,0,30.2291-4.9543c.7967-1.628,1.6511-3.2443,2.5415-4.8488a95.6917,95.6917,0,0,1,60.985-46.0873,98.66,98.66,0,0,1,12.6963-2.1083c.0349,0,.0584-.0116.0932-.0116,9.1479-.8668,19.0678-.34,27.7581,2.764,1.3.4685,2.5769,1.0073,3.8419,1.5578.5621.2459,1.1243.5036,1.6745.773-.0235-2.1317-.07-4.2867-.1407-6.4535q-.2634-6.7461-.7961-13.4807a324.0467,324.0467,0,0,0-4.2983-32.5363c-1.7922-.328-3.5725-.5973-5.3762-.8316-1.7917-.2225-3.584-.41-5.3757-.55l-1.0426-.07-.8429-.0586-2.3893-.1171-.3752-.0117c-.1521,0-.3157-.0117-.4684-.0117l-.7726-.0118c-.1761-.0116-.3517-.0116-.5273-.0116l-.9836-.0117-2.5186.082a102.9988,102.9988,0,0,1-67.052,29.4677,55.6154,55.6154,0,0,1-48.6055,28.9173A55.0576,55.0576,0,0,1,514.62,310.5947c-13.6565-10.0607-15.9869-27.6523-8.9482-40.8753a31.9754,31.9754,0,0,1,17.3812-15.097v10.81a24.818,24.818,0,0,0,.48,4.8723,24.2547,24.2547,0,0,0,48.1371-3.7362c-.0235-1.6866-.1172-3.3615-.2694-5.0128a64.2448,64.2448,0,0,0-62.9762-58.1626h-.867a66.2444,66.2444,0,0,0-7.554.4334A64.2094,64.2094,0,0,0,445.4359,251.53a61.7441,61.7441,0,0,0-1.37,6.8515A66.21,66.21,0,0,0,443.4217,267.0372Z" style="fill:#f0ad1e"/><path d="M553.828,384.557a97.3646,97.3646,0,0,1,12.5437,10.5994,94.298,94.298,0,0,1,6.8752,7.6716v-.3046a83.63,83.63,0,0,1,3.127-22.7216c-.7023.2226-1.4051.4334-2.1079.6442A121.03,121.03,0,0,1,553.828,384.557Z" style="fill:#f0ad1e"/><path d="M115.7042,361.3318a63.7235,63.7235,0,0,0-39.3409-18.5169c-1.6516-.1523-3.3147-.246-5.0017-.2694h-.0349c-.398.0117-.7966.0234-1.1947.0586a23.6135,23.6135,0,0,0-5.844,1.1595,1.1046,1.1046,0,0,1-.1527.0468q-1.2122.4216-2.3539.9487a23.9572,23.9572,0,0,0-3.9351,2.2956,24.6523,24.6523,0,0,0-4.4979,4.1227c-.187.2225-.3746.4567-.55.6792-.2459.3045-.469.6091-.7029.9253-.2224.3162-.4449.6442-.6559.9722a24.8977,24.8977,0,0,0-1.5224,2.7288c-.07.164-.1521.328-.211.492-.07.1405-.1407.2811-.199.4333a24.0435,24.0435,0,0,0-1.78,12.1689,23.6707,23.6707,0,0,0,5.3643,12.5438c.1287.14.2459.281.3746.4216a25.2049,25.2049,0,0,0,14.1483,8.14c.7143.1406,1.4406.2577,2.1669.328a22.9848,22.9848,0,0,0,2.7056.1522h10.81a31.9534,31.9534,0,0,1-9.7329,13.797A32.45,32.45,0,0,1,68.2,408.5435a32.8413,32.8413,0,0,1-7.976,2.9983q1.4231,5.1125,2.9515,9.9553c2.0262,6.4769,4.17,12.5906,6.3364,18.3178.1991.5154.3981,1.019.5971,1.5343,2.5883,6.5471,5.3877,13.0239,8.41,19.3836A73.873,73.873,0,0,1,85.932,457.36c.5622-.2225,1.1123-.4216,1.6745-.6324a75.7127,75.7127,0,0,1,25.8491-4.5092c.6794,0,1.3468.0117,2.0141.0352.48,0,.9722.0117,1.4526.0351l.1081-.107a52.9054,52.9054,0,0,0,12.4711-20.0358c1.784-5.0532,3.75-11.2249,4.1541-14.8974.0029-.0243,0-.0425.0023-.0662.1647-.9862.3145-1.9753.4346-2.97a66.25,66.25,0,0,0,.4329-7.5544v-.8666A63.7287,63.7287,0,0,0,115.7042,361.3318Z" style="fill:#f0ad1e"/><path d="M689.0336,369.5755a23.6745,23.6745,0,0,1-5.3642,12.5437c-.1287.1406-.2459.2811-.3752.4216a25.2028,25.2028,0,0,1-14.1478,8.14c-.7143.1405-1.4406.2576-2.1668.3279a22.9932,22.9932,0,0,1-2.7056.1523h-10.81a31.9473,31.9473,0,0,0,9.7329,13.7969,32.4493,32.4493,0,0,0,5.3642,3.5839,32.8152,32.8152,0,0,0,7.9761,2.9983q-1.4232,5.1125-2.9515,9.9554c-2.0262,6.4768-4.17,12.5905-6.3365,18.3178-.199.5153-.398,1.019-.5976,1.5343-2.5883,6.547-5.3871,13.0239-8.409,19.3836a73.91,73.91,0,0,0-7.4138-3.3731c-.5622-.2225-1.1129-.4216-1.6751-.6324a75.7044,75.7044,0,0,0-25.8485-4.5093c-.6794,0-1.3468.0118-2.0142.0352-.48,0-.9722.0117-1.4526.0351l-.1052-.1054c-.3517-.3513-.7028-.7027-1.0425-1.0658a51.5129,51.5129,0,0,1-8.9483-13.0356,56.349,56.349,0,0,1-2.4831-5.938c-.9836-2.7759-2.0142-5.903-2.8108-8.7608a59.6831,59.6831,0,0,1-1.3353-6.102v-.0351c-.0115-.0235,0-.0351-.0115-.0586-.07-.4333-.1407-.8667-.211-1.3117-.07-.5506-.1521-1.101-.2225-1.6632a66.25,66.25,0,0,1-.4335-7.5543V405.79a64.2454,64.2454,0,0,1,58.1628-62.9763c1.6516-.1522,3.3146-.246,5.0011-.2693h.0349c.3986.0116.7966.0233,1.1952.0585a23.6244,23.6244,0,0,1,5.8441,1.16,1.0854,1.0854,0,0,0,.1521.0468q1.2121.4217,2.3545.9487a23.9935,23.9935,0,0,1,3.9351,2.2956,24.6555,24.6555,0,0,1,4.4973,4.1227c.1875.2226.3751.4567.5507.6793.2459.3045.4684.609.7028.9253.2225.3162.445.6441.656.972a24.9,24.9,0,0,1,1.5223,2.729c.07.164.1521.328.2111.4919.07.14.14.2811.199.4333A24.0451,24.0451,0,0,1,689.0336,369.5755Z" style="fill:#f0ad1e"/><path d="M604.4482,423.3811a41.03,41.03,0,0,1-1.3353-6.102A59.6831,59.6831,0,0,0,604.4482,423.3811Z" style="fill:#f0ad1e"/></g></g></g></svg>