<svg xmlns="http://www.w3.org/2000/svg" viewBox="0 0 579.2394 452.5719"><g id="Layer_2" data-name="Layer 2"><g id="Components"><g id="dc273bc5-7f1d-4fbd-b708-d896875e124d_1" data-name="dc273bc5-7f1d-4fbd-b708-d896875e124d@1"><path d="M468.3748.026v21.28q21.1844-1.5543,28.6606,13.82,6.79,13.94,6.79,32.0242V385.4472Q323.5408,44.5554,300.188,3.8038C298.69,1.3013,295.4059.026,290.3693.026h-95.02Q144.0608-.7153,99.1811,19.6485,54.3244,40.02,27.1624,77.7191,0,115.45,0,162.9521q0,30.1751,15.478,60.3341a131.7313,131.7313,0,0,0,44.5053,49.7817q29.0275,19.63,68.2406,19.6066,44.4983,0,75.0472-23.0019,30.5337-23.0019,30.5419-62.2151,0-26.3972-13.5812-39.2291a45.5661,45.5661,0,0,0-32.4068-12.816q-13.605,0-23.7673,6.0254c-6.79,4.0489-10.1861,8.7991-10.1861,14.3463a14.2764,14.2764,0,0,0,2.28,7.5238q5.2608,6.8145,5.2608,24.8829,0,20.3718-9.0381,35.8338-9.0621,15.47-29.4265,15.4621-27.1387,0-39.9777-27.9115-12.84-27.88-12.8161-68.6231,0-30.151,12.8161-62.5977a137.0424,137.0424,0,0,1,40.3606-55.44q27.52-23.0019,69.7545-23.7511,17.335.7651,23.7509,14.3144,6.4084,13.605,6.4244,31.6735v89.76c0,.51.4943,1.2752,1.5147,2.2794q9.0376,6.7666,13.9477,19.6066a79.6792,79.6792,0,0,1,4.8934,28.6607,97.1184,97.1184,0,0,1-5.6429,32.056q-5.667,16.2113-13.9641,25.2654l-.7488,2.2476V385.4472q0,18.1-6.7746,32.056c-5.0055,10.25-14.5378,14.8245-28.6607,13.8043v21.2644H298.69V431.3075c-14.1385,1.02-23.6871-3.5547-28.6607-13.8043q-6.8136-13.94-6.79-32.056V79.9827L461.5838,444.267c3.0293,5.5473,6.0414,8.3049,9.0544,8.3049h69.3879a3.7721,3.7721,0,0,0,3.7624-3.7778V60.3761q.7414-15.8288,7.9383-27.5289,7.9378-12.96,27.5126-11.5408V.026Z" style="fill:#f3f3f2"/></g></g></g></svg>