<svg xmlns="http://www.w3.org/2000/svg" viewBox="0 0 1191.7706 450.5719"><g id="Layer_2" data-name="Layer 2"><g id="Components"><g id="_4534d1dd-6903-44f4-b00c-35168e7c8422_1" data-name="4534d1dd-6903-44f4-b00c-35168e7c8422@1"><path d="M293.83,6.15V19.5q13.29-.975,17.98,8.67a45.334,45.334,0,0,1,4.26,20.09V247.94Q202.97,34.085,188.32,8.52c-.94-1.57-3-2.37-6.16-2.37H122.55A139.4031,139.4031,0,0,0,62.22,18.46Q34.08,31.24,17.04,54.89A89.2474,89.2474,0,0,0,0,108.36q0,18.93,9.71,37.85a82.64,82.64,0,0,0,27.92,31.23q18.21,12.315,42.81,12.3,27.9156,0,47.08-14.43,19.155-14.43,19.16-39.03,0-16.56-8.52-24.61a30.339,30.339,0,0,0-35.24-4.26c-4.26,2.54-6.39,5.52-6.39,9a8.9559,8.9559,0,0,0,1.43,4.72q3.3,4.275,3.3,15.61a43.7094,43.7094,0,0,1-5.67,22.48q-5.685,9.705-18.46,9.7-17.0252,0-25.08-17.51-8.0552-17.49-8.04-43.05,0-18.915,8.04-39.27A85.9726,85.9726,0,0,1,77.37,34.31q17.2647-14.43,43.76-14.9,10.875.48,14.9,8.98a46.1562,46.1562,0,0,1,4.03,19.87v56.31c0,.32.31.8.95,1.43a26.8266,26.8266,0,0,1,8.75,12.3,49.9869,49.9869,0,0,1,3.07,17.98,60.9256,60.9256,0,0,1-3.54,20.11q-3.5551,10.17-8.76,15.85l-.47,1.41v74.29a45.5255,45.5255,0,0,1-4.25,20.11c-3.14,6.43-9.12,9.3-17.98,8.66v13.34h69.55V276.71c-8.87.64-14.86-2.23-17.98-8.66a45.2576,45.2576,0,0,1-4.26-20.11V56.31L289.57,284.84c1.9,3.48,3.79,5.21,5.68,5.21h43.53a2.3664,2.3664,0,0,0,2.36-2.37V44.01a35.5929,35.5929,0,0,1,4.98-17.27q4.98-8.13,17.26-7.24V6.15Z" style="fill:#f3f3f2"/><path d="M665.42,74.27a148.7319,148.7319,0,0,0-51.34-54.16,131.154,131.154,0,0,0-139.58,0,146.73,146.73,0,0,0-51.1,54.16,149.5494,149.5494,0,0,0-18.92,73.82q0,40.695,18.92,74.99,18.9156,34.32,51.1,54.41a131.154,131.154,0,0,0,139.58,0q32.1746-20.085,51.34-54.41,19.155-34.29,19.16-74.99A148.1867,148.1867,0,0,0,665.42,74.27Zm-40.46,137.7q-11.34,29.34-32.17,47.07-20.8351,17.745-48.74,17.74a71.2666,71.2666,0,0,1-48.02-17.74q-20.58-17.745-31.7-47.07-11.1153-29.34-11.11-63.88a176.1591,176.1591,0,0,1,11.11-62.93q11.1151-29.325,31.7-46.84,20.58-17.505,48.02-17.51a73.69,73.69,0,0,1,48.5,17.51q21.0447,17.52,32.41,46.84a172.8531,172.8531,0,0,1,11.36,62.93Q636.32,182.635,624.96,211.97Z" style="fill:#f3f3f2"/><path d="M884.55,8.17V21.51c7.45-.54,13.13,1.42,17.03,5.83a21.1011,21.1011,0,0,1,5.21,14.43,26.9436,26.9436,0,0,1-1.42,8.52L838.65,240.5,773.83,50.29a28.4447,28.4447,0,0,1-1.42-8.99,20.7893,20.7893,0,0,1,4.97-14.2q4.965-5.685,14.44-5.67c.76,0,1.55.02,2.36.08V8.17H705.22V21.72h.01q7.6654-1.845,13.01,7.99a176.6785,176.6785,0,0,1,9.22,20.58l85.16,239.88.64,1.9h42.75l-.79-2.37-3.79-11.83,81.86-227.58a173.3107,173.3107,0,0,1,9.22-20.58q5.3247-9.825,13-7.99h.01V8.17Z" style="fill:#f3f3f2"/><path d="M1073.38,7.46a.6182.6182,0,0,0-.1407.01h.53l1.16-.01Z" style="fill:#f3f3f2"/><path d="M1178.76,269.82a174.1494,174.1494,0,0,1-9.22-20.58L1084.56,7.48l-1.61-.02H1049.47c-1.17,0-2.3506.01-3.51.01h-.54c-.99.01-1.98.01-2.9707.01l4.5508,14.65L965.14,249.24a175.7867,175.7867,0,0,1-9.23,20.58q-5.3541,9.84-13,7.99v13.54h69.54c0-2.4-.0195-10.81-.0195-13.24h-2.3c-6.02,0-10.53-1.96-13.53-5.92a23.1257,23.1257,0,0,1-4.49-14.44,26.95,26.95,0,0,1,1.41-8.51l17.03-48.26h96.54l6.14,17.51q10.3945,30.285,10.41,30.75a42.404,42.404,0,0,1,.95,8.05,23.3457,23.3457,0,0,1-4.73,14.66q-5.3394,6.945-16.09,6.06v13.34h88V277.82Q1184.09,279.65,1178.76,269.82ZM1019.07,175.9l40.69-115.91,38.81,115.91Z" style="fill:#f3f3f2"/><polygon points="127.923 423.97 153.734 423.97 153.734 413.904 127.923 413.904 127.923 399.742 156.9 399.742 156.9 389.677 117.463 389.677 117.463 448.513 158.008 448.513 158.008 438.448 127.923 438.448 127.923 423.97" style="fill:#f0ad1e"/><polygon points="243.733 427.731 203.356 387.87 203.18 387.697 201.861 387.697 201.861 448.513 212.403 448.513 212.255 411.173 252.889 450.572 253.967 450.572 253.967 389.677 243.582 389.677 243.733 427.731" style="fill:#f0ad1e"/><polygon points="296.867 399.742 311.357 399.742 311.357 448.513 321.739 448.513 321.739 399.742 336.624 399.742 336.624 389.677 296.867 389.677 296.867 399.742" style="fill:#f0ad1e"/><polygon points="389.907 423.97 415.718 423.97 415.718 413.904 389.907 413.904 389.907 399.742 418.884 399.742 418.884 389.677 379.446 389.677 379.446 448.513 419.992 448.513 419.992 438.448 389.907 438.448 389.907 423.97" style="fill:#f0ad1e"/><path d="M493.45,425.87a16.3138,16.3138,0,0,0,4.58-3.7,17.668,17.668,0,0,0,3.48-6.39,24.0925,24.0925,0,0,0,1.06-6.98,20.0317,20.0317,0,0,0-1.56-8.16,16.1106,16.1106,0,0,0-4.48-5.96,20.7184,20.7184,0,0,0-6.93-3.71,28.8,28.8,0,0,0-8.85-1.29H463.84v58.83H474.3V428.48h7.8c.16,0,.32-.01.47-.01L495.55,448.51h12.18Zm-2.07-13.72a9.04,9.04,0,0,1-1.6,3.01,8.114,8.114,0,0,1-3.02,2.28,11.4571,11.4571,0,0,1-4.82.9H474.3v-18.6h7.96a10.55,10.55,0,0,1,4.72.93,7.9556,7.9556,0,0,1,2.91,2.39,9.9,9.9,0,0,1,1.53,3.09,11.2181,11.2181,0,0,1,.45,2.97A10.4342,10.4342,0,0,1,491.38,412.15Z" style="fill:#f0ad1e"/><polygon points="544.125 399.742 558.614 399.742 558.614 448.513 568.997 448.513 568.997 399.742 583.882 399.742 583.882 389.677 544.125 389.677 544.125 399.742" style="fill:#f0ad1e"/><path d="M643.29,387.67l-.15-.37h-1.35l-26.08,61.21h10.41l5.61-13.61h20.18l5.39,13.61h11.84Zm-7.87,38.27,6.6-16.02,6.34,16.02Z" style="fill:#f0ad1e"/><rect x="709.7555" y="389.6771" width="10.4616" height="58.836" style="fill:#f0ad1e"/><polygon points="809.026 427.731 768.649 387.87 768.474 387.697 767.154 387.697 767.154 448.513 777.697 448.513 777.547 411.173 818.181 450.572 819.261 450.572 819.261 389.677 808.876 389.677 809.026 427.731" style="fill:#f0ad1e"/><polygon points="895.723 427.906 867.447 387.871 867.188 387.618 866.279 387.618 866.279 448.513 876.425 448.513 876.425 417.775 895.152 443.843 895.928 443.843 915.288 416.386 915.288 448.513 925.669 448.513 925.669 387.618 924.606 387.618 895.723 427.906" style="fill:#f0ad1e"/><polygon points="983.071 423.97 1008.881 423.97 1008.881 413.904 983.071 413.904 983.071 399.742 1012.047 399.742 1012.047 389.677 972.61 389.677 972.61 448.513 1013.156 448.513 1013.156 438.448 983.071 438.448 983.071 423.97" style="fill:#f0ad1e"/><polygon points="1098.879 427.731 1058.502 387.87 1058.326 387.697 1057.007 387.697 1057.007 448.513 1067.549 448.513 1067.4 411.173 1108.035 450.572 1109.113 450.572 1109.113 389.677 1098.728 389.677 1098.879 427.731" style="fill:#f0ad1e"/><polygon points="1152.015 389.677 1152.015 399.742 1166.504 399.742 1166.504 448.513 1176.886 448.513 1176.886 399.742 1191.771 399.742 1191.771 389.677 1152.015 389.677" style="fill:#f0ad1e"/></g></g></g></svg>