<svg xmlns="http://www.w3.org/2000/svg" viewBox="0 0 641.61 617.9451"><g id="Layer_2" data-name="Layer 2"><g id="Components"><g id="_6d2b4950-335a-4ac3-9dcd-0e2a338d5c9c_1" data-name="6d2b4950-335a-4ac3-9dcd-0e2a338d5c9c@1"><path d="M101.5906,88.0521l-.5153-.0468s.1287-.1171.3866-.3514C101.4968,87.7827,101.5437,87.9233,101.5906,88.0521Z" style="fill:#e29900"/><path d="M101.5906,88.0521l-.5153-.0468s.1287-.1171.3866-.3514C101.4968,87.7827,101.5437,87.9233,101.5906,88.0521Z" style="fill:#e29900"/><path d="M540.0232,88.0521l.5153-.0468s-.1287-.1171-.3866-.3514C540.117,87.7827,540.07,87.9233,540.0232,88.0521Z" style="fill:#e29900"/><path d="M540.0232,88.0521l.5153-.0468s-.1287-.1171-.3866-.3514C540.117,87.7827,540.07,87.9233,540.0232,88.0521Z" style="fill:#e29900"/><path d="M94.9733,544.3577q-.4392-.0353-.8784-.1055l-.597-.1053a.5367.5367,0,0,1-.1293-.0352C93.8959,544.2171,94.4346,544.2991,94.9733,544.3577Z" style="fill:#e2991a"/><path d="M97.14,544.4279c-.0818,0-.1756.0118-.2579.0118a1.9118,1.9118,0,0,1-.2574.0116,15.2831,15.2831,0,0,1-1.6516-.0936,16.9122,16.9122,0,0,0,1.8976.07Z" style="fill:#e2991a"/><path d="M99.0371,544.2522a.0416.0416,0,0,1-.0348.0118.887.887,0,0,1-.1756.0117A1.269,1.269,0,0,0,99.0371,544.2522Z" style="fill:#e2991a"/><path d="M112.7989,527.094v1.1477a16.1379,16.1379,0,0,1-12.3441,15.7529,10.8383,10.8383,0,0,1-1.23.2225,16.5145,16.5145,0,0,0,13.5628-16.3853V527.34c-.0114-.3982-.0235-.7964-.0349-1.183C112.7761,526.4732,112.7875,526.7777,112.7989,527.094Z" style="fill:#e2991a"/><path d="M153.0423,581.6491c-.4918.5271-.9956,1.0424-1.5,1.546-1.6161,1.6281-3.4078,3.2561-5.27,4.8372-1.0071.8316-2.0725,1.6748-3.1974,2.5181-.0115,0-.0115-.0117-.0235-.0234a76.7173,76.7173,0,0,0,8.4913-7.3553C152.0467,582.6681,152.5505,582.1645,153.0423,581.6491Z" style="fill:#e2991a"/><path d="M158.3477,519.5162c-.246-.246-.4919-.5036-.7258-.75-.223-.2343-.4334-.4685-.6445-.7145C157.4344,518.544,157.8907,519.036,158.3477,519.5162Z" style="fill:#e2991a"/><path d="M160.5849,521.73c-.0818-.07-.1756-.1523-.2694-.2343-.1521-.14-.3042-.2928-.4449-.4333-.1521-.1406-.2928-.2811-.4335-.4216-.34-.34-.6794-.6794-.9957-1.0307.3049.3162.6091.6324.9254.9369C159.7648,520.9451,160.1748,521.3433,160.5849,521.73Z" style="fill:#e2991a"/><path d="M85.5218,539.9656c-.1526-.14-.3048-.2928-.4455-.4451-.1166-.1171-.2339-.2459-.3625-.3865C84.9711,539.4151,85.2405,539.6962,85.5218,539.9656Z" style="fill:#e2991a"/><path d="M80.4738,528.8859a.9245.9245,0,0,1-.012-.1874c0-.14-.0114-.2811-.0114-.4217V516.8575h.0114v11.4193C80.4618,528.476,80.4618,528.6751,80.4738,528.8859Z" style="fill:#e2991a"/><path d="M80.5087,529.4364c-.0234-.1289-.0234-.2694-.0349-.3982v-.1523A4.488,4.488,0,0,0,80.5087,529.4364Z" style="fill:#e2991a"/><path d="M85.5218,539.9656c-.1526-.14-.3048-.2928-.4455-.4451-.1166-.1171-.2339-.2459-.3625-.3865C84.9711,539.4151,85.2405,539.6962,85.5218,539.9656Z" style="fill:#e2991a"/><path d="M98.3463,544.3342a8.0218,8.0218,0,0,1-.9133.082c.14-.0117.2808-.0352.4215-.0468Z" style="fill:#e2991a"/><path d="M115.1883,569.6325c4.7552,4.0056,9.6276,7.8237,14.6053,11.56-.0584-.0351-.1173-.0819-.1876-.1288q-.579-.4039-1.5458-1.1243c-.1876-.1289-.3866-.2811-.6091-.4451-1.6979-1.2649-4.0758-3.08-7.0038-5.4227-.7029-.5739-1.4406-1.1712-2.2138-1.8037-1.0185-.8315-2.0965-1.7334-3.2208-2.6821,1.066-.48,2.0965-1.0072,3.1156-1.5694a46.999,46.999,0,0,0,23.7754-42.0934c.0355.7846.0469,1.5693.0469,2.354a45.5277,45.5277,0,0,1-23.7285,39.8448C117.2379,568.66,116.2194,569.164,115.1883,569.6325Z" style="fill:#e2991a"/><path d="M172.1918,546.3253c-.2694,1.1595-.5622,2.3073-.9019,3.4434C171.6176,548.6326,171.9224,547.4848,172.1918,546.3253Z" style="fill:#e2991a"/><path d="M174.1007,533.7933c.0349-.5505.07-1.101.0938-1.6514q-3.18-1.8974-6.1609-4.111,2.987,2.196,6.1958,4.111C174.1945,532.6923,174.1476,533.2428,174.1007,533.7933Z" style="fill:#e2991a"/><path d="M80.4738,528.8859a.9245.9245,0,0,1-.012-.1874c0-.14-.0114-.2811-.0114-.4217v-2.0612l.0114.0116v2.05C80.4618,528.476,80.4618,528.6751,80.4738,528.8859Z" style="fill:#e2991a"/><path d="M80.5087,529.4364c-.0234-.1289-.0234-.2694-.0349-.3982v-.1523A4.488,4.488,0,0,0,80.5087,529.4364Z" style="fill:#e2991a"/><path d="M85.5218,539.9656c-.1526-.14-.3048-.2928-.4455-.4451-.1166-.1171-.2339-.2459-.3625-.3865C84.9711,539.4151,85.2405,539.6962,85.5218,539.9656Z" style="fill:#e2991a"/><path d="M94.9733,544.3577q-.4392-.0353-.8784-.1055l-.597-.1053a.5367.5367,0,0,1-.1293-.0352C93.8959,544.2171,94.4346,544.2991,94.9733,544.3577Z" style="fill:#e2991a"/><path d="M96.8823,544.44a1.9118,1.9118,0,0,1-.2574.0116,15.2831,15.2831,0,0,1-1.6516-.0936,16.9122,16.9122,0,0,0,1.8976.07Z" style="fill:#e2991a"/><path d="M129.7936,581.1923c-.0584-.0351-.1173-.0819-.1876-.1288q-.579-.4039-1.5458-1.1243c-.1876-.1289-.3866-.2811-.6091-.4451-1.6979-1.2649-4.0758-3.08-7.0038-5.4227-.7029-.5622-1.4406-1.16-2.2138-1.8037-1.0185-.8315-2.0965-1.7334-3.2208-2.6821,1.066-.48,2.0965-1.0072,3.1156-1.5694l.0938.1054c-.9842.5388-2.0027,1.0424-3.0338,1.5109C119.9435,573.6381,124.8159,577.4562,129.7936,581.1923Z" style="fill:#e2991a"/><path d="M236.5028,539.1808a140.9674,140.9674,0,0,1-14.16,39.8916,164.8853,164.8853,0,0,1-26.5633,36.542l-.0115.0234h-.5038l-2.0845,2.3073c-8.023-3.49-15.9641-7.3552-23.7291-11.5247.89-.8316,1.78-1.6983,2.6821-2.6a106.6929,106.6929,0,0,0,30.4281-61.7,77.3,77.3,0,0,0,10.553.7262A75.379,75.379,0,0,0,236.5028,539.1808Z" style="fill:#e2991a"/><path d="M112.7875,527.34v.4919a16.5145,16.5145,0,0,1-13.5628,16.3853.53.53,0,0,1-.1876.0351,1.269,1.269,0,0,1-.21.0235c-.1641.0234-.3163.0468-.48.0585l-.4918.0352c-.1407.0116-.2814.0351-.4215.0468a2.4505,2.4505,0,0,1-.2928.0117h-.2693a16.9122,16.9122,0,0,1-1.8976-.07c-.5387-.0586-1.0774-.1406-1.6047-.246l-.4563-.1054c-.1641-.0351-.3283-.07-.48-.1171a.8769.8769,0,0,1-.1876-.0586,5.8494,5.8494,0,0,1-.597-.1874c-.2694-.0819-.5273-.1757-.7846-.2694q-.4754-.1756-.9139-.3865a5.2032,5.2032,0,0,1-.5742-.2811,2.005,2.005,0,0,1-.2688-.1522.9278.9278,0,0,1-.1875-.0937c-.07-.0352-.1407-.07-.1991-.1054-.1292-.07-.2459-.1406-.3751-.2226a.2354.2354,0,0,1-.07-.0468c-.1292-.082-.2579-.164-.3866-.2577h-.012c-.07-.0468-.1287-.082-.187-.1288-.223-.14-.4455-.2928-.6565-.4568a.66.66,0,0,1-.1052-.082c-.0818-.0585-.1756-.1288-.2694-.2108a6.0171,6.0171,0,0,1-.6091-.5036,6.5462,6.5462,0,0,1-.5267-.48c-.2813-.2694-.5507-.55-.808-.8316l-.0355-.0351c-.199-.2225-.398-.4568-.5856-.691-.1052-.1406-.2225-.2694-.3277-.41a6.7349,6.7349,0,0,1-.4684-.6676.4786.4786,0,0,1-.0937-.1406.2385.2385,0,0,1-.0469-.07c-.0235-.0235-.0355-.0469-.0589-.07a.6069.6069,0,0,0-.07-.1172c-.14-.2225-.2808-.4568-.4215-.6793-.0937-.1756-.187-.34-.2808-.5153s-.1875-.3514-.27-.527a1.433,1.433,0,0,1-.0932-.1875c-.0823-.1756-.1527-.34-.2225-.5153a5.4221,5.4221,0,0,1-.2459-.609c-.024-.07-.0469-.1289-.07-.1874-.0235-.07-.0469-.1523-.07-.2225l-.211-.6325c-.0469-.1874-.1052-.3865-.1521-.5856-.0589-.2342-.1287-.4685-.1756-.7028-.0469-.1873-.0823-.3747-.1172-.55a4.6517,4.6517,0,0,1-.0818-.5621c-.012-.1172-.0354-.2226-.0469-.328a4.4281,4.4281,0,0,1-.0589-.691,4.488,4.488,0,0,1-.0349-.5505c-.012-.2108-.012-.41-.012-.6091V516.8575H80.45a29.5491,29.5491,0,0,0-5.7389,2.9983,27.3665,27.3665,0,0,0-4.58,3.8064,288.6077,288.6077,0,0,1-25.5208-37.1977,44.9658,44.9658,0,0,1,4.6265-2.038,46.3053,46.3053,0,0,1,7.9995-2.2721c.4215-.07.843-.1522,1.2764-.2226.4335-.0585.8664-.1288,1.3119-.1873.1991-.0235.41-.0469.62-.07a5.7142,5.7142,0,0,1,.644-.07c.4335-.0468.8784-.082,1.3119-.1171.7143-.0586,1.4291-.0937,2.1554-.1054.3626-.0117.7257-.0235,1.0889-.0235h.2344c1.5693,0,3.1385.082,4.6963.2226,1.2416.1289,2.46.3045,3.6658.527a46.7578,46.7578,0,0,1,18.4238,7.73c.6085.4335,1.2061.8668,1.7917,1.3235.2693.2109.5387.4217.7966.6208.3157.2693.6325.5271.9368.7847.21.1757.41.3513.609.5388.3746.3279.75.6558,1.1009.9955.4449.41.8784.8316,1.3119,1.2766.4449.4568.89.9135,1.3233,1.3938l.0355.0351c.3746.4217.7612.855,1.1243,1.2884a1.4219,1.4219,0,0,1,.1756.2108c.398.48.7846.96,1.1712,1.4523a.3012.3012,0,0,1,.0583.07c.8784,1.1478,1.71,2.3307,2.4831,3.5605V503.4c.34.5388.6674,1.0893.9837,1.64.621,1.0892,1.2181,2.2136,1.7688,3.3613.2808.5739.5387,1.1595.7846,1.7451v.0118c.2808.6676.55,1.3468.8081,2.0261.3746,1.0307.7263,2.0731,1.0305,3.1389.1876.6325.3517,1.2649.5153,1.8974.1407.5973.2814,1.2063.41,1.8037.0818.4333.1642.8784.2345,1.3235.07.3748.1287.7612.187,1.136.0589.3865.1058.773.1527,1.1595q.0695.492.1052.9838.018.1933.0349.3866c.07.7144.1172,1.4288.1527,2.1432C112.764,526.5435,112.7761,526.9417,112.7875,527.34Z" style="fill:#e2991a"/><path d="M260.0444,466.7764a46.9236,46.9236,0,0,1-93.8379.9369v-.4919c0-8.69,6.6761-16.1745,15.355-16.5844a16.1788,16.1788,0,0,1,16.9826,16.1394v11.4193a28.7074,28.7074,0,0,0,18.4-27.1019,27.8577,27.8577,0,0,0-17.6271-26.329,45.067,45.067,0,0,0-17.0061-3.2911c-25.7782.0234-45.7826,21.9955-45.22,47.6568a4.3155,4.3155,0,0,0,.0235.55c0,.1873.012.3865.012.5738.0114.41.0349.8082.07,1.2064.0469.8315.1058,1.6514.1876,2.4713.0355.3748.07.7379.1173,1.1126.0583.6208.1406,1.2532.2224,1.8622.0938.7731.211,1.5343.34,2.2956.1052.6559.2225,1.3.3511,1.956.0469.2693.1058.55.1522.82.2928,1.4758.6445,2.94,1.0311,4.3921l.0349.1054c.1761.6442.3517,1.2883.5387,1.9208q.5626,1.9149,1.23,3.7947c.2225.6208.4569,1.2415.6908,1.8623.3048.8315.6445,1.6513.9957,2.46.199.4685.398.9369.609,1.3937.3277.7379.6794,1.4758,1.0306,2.2019.7142,1.4523,1.464,2.893,2.272,4.2984.3981.7027.8081,1.4054,1.2416,2.0965.7143,1.1712,1.476,2.319,2.2607,3.4551.2573.3864.5152.7612.796,1.1243.34.48.6914.9487,1.0546,1.4172.2459.3279.5032.6559.7611.9838a3.4243,3.4243,0,0,0,.3163.41q.2111.2811.4564.5622c.2579.328.5272.6676.82.9956,0,.0116,0,.0116.0115.0234.9138,1.1244,1.8975,2.2253,2.9051,3.2911.2225.2577.4684.5036.7258.75a.7325.7325,0,0,0,.0937.0937c.3049.34.656.7027.9957,1.0307.1407.1405.2814.281.4335.4216.1407.1405.2928.2928.4449.4333.4449.4334.9019.8667,1.37,1.2883.3632.3515.75.6911,1.1244,1.019.5856.5388,1.1832,1.0424,1.7922,1.5343.5622.48,1.1244.9253,1.698,1.37.5741.4568,1.1477.89,1.7333,1.3235q2.987,2.2137,6.1609,4.111c-.0234.55-.0589,1.1009-.0938,1.6514l-.07.773c-.0355.3982-.07.7964-.1052,1.1829-.0824.773-.1642,1.5226-.2459,2.2371-.0469.3513-.0824.6909-.1293,1.0306-.0234.1639-.0469.3279-.07.48-.0589.48-.1292.937-.2,1.3469l-.0818.5154c-.0824.4919-.1756.9955-.2694,1.4874-.211,1.1595-.4684,2.3307-.7377,3.4785-.2694,1.1595-.5742,2.3073-.9019,3.4434-.1292.4684-.2693.9487-.422,1.4171a6.5039,6.5039,0,0,1-.21.6793c-.1292.4334-.2693.855-.422,1.2884-.5387,1.6162-1.1358,3.2091-1.78,4.7785a1.3347,1.3347,0,0,1-.0824.1875c-.2344.55-.4683,1.0892-.7028,1.6279a73.8574,73.8574,0,0,1-3.5485,6.9922c-.2814.5036-.5742,1.0072-.8785,1.4991q-.4923.8258-1.0191,1.6515c-.3745.5973-.7611,1.1829-1.1477,1.7568q-1.8624,2.7406-3.9351,5.3173c-.41.5036-.82.9955-1.2416,1.4874q-.6854.8258-1.4057,1.6163c-.48.5387-.96,1.0658-1.452,1.5811s-.9956,1.019-1.5,1.5226a76.7173,76.7173,0,0,1-8.4913,7.3553q-6.4122-4.2692-12.6489-8.9012l-.0234-.0235a.2629.2629,0,0,0-.0584-.0352c-.0354-.0233-.0823-.0585-.1527-.1053a.4273.4273,0,0,1-.1052-.07c-.0938-.07-.1756-.14-.2693-.1992-4.9777-3.7361-9.85-7.5542-14.6053-11.56,1.0311-.4685,2.05-.9721,3.0338-1.5109a45.5277,45.5277,0,0,0,23.7285-39.8448c0-.7847-.0114-1.5694-.0469-2.354,0-.1875-.0114-.3748-.0234-.5506,0-.1757,0-.34-.0114-.5153v-.0585a.3305.3305,0,0,0-.0115-.1055c-.012-.3748-.0354-.7379-.0589-1.1009-.0469-.8315-.1052-1.6514-.1876-2.4713-.0348-.363-.07-.7378-.1172-1.1126-.0583-.6207-.14-1.2415-.2219-1.8622-.0938-.7731-.211-1.5343-.34-2.2956-.1058-.6442-.211-1.2884-.34-1.9209-.0589-.3161-.1172-.6207-.1876-.9252-.1521-.773-.3162-1.5343-.5038-2.2956-.1641-.75-.3511-1.4874-.5621-2.2253a.4063.4063,0,0,0-.0235-.1171c-.199-.7379-.41-1.464-.6325-2.19-.2225-.75-.4564-1.4874-.7143-2.2253-.3866-1.1595-.796-2.2956-1.253-3.4316-.2928-.75-.5856-1.4875-.9138-2.2254-.0818-.199-.1642-.3982-.2574-.5973-.3162-.7379-.6559-1.4757-1.0071-2.2019-.2579-.55-.5272-1.1009-.8086-1.64-.55-1.0776-1.1243-2.1551-1.7334-3.2092-.3631-.6442-.7377-1.2883-1.1357-1.9208-.7612-1.2414-1.5579-2.4713-2.3894-3.6659-.2459-.363-.5038-.7261-.7612-1.0775-.3282-.4685-.6793-.9253-1.0311-1.3821-.3162-.4216-.6319-.8432-.96-1.2532-.1287-.1639-.2694-.3279-.3981-.4919l-.0354-.0351c-.34-.445-.7023-.9018-1.0889-1.3352-.0938-.1054-.1876-.2225-.2814-.34-.1172-.1289-.2344-.2694-.3511-.41a.5058.5058,0,0,1-.07-.082c-.96-1.1243-1.9559-2.2252-3.01-3.2911-.0709-.082-.1527-.164-.2344-.2459-.1053-.1054-.199-.2109-.3048-.3162-.2339-.246-.48-.48-.7258-.7145-.211-.2108-.422-.41-.6325-.6207-.1172-.1171-.2344-.2226-.3517-.3279-.0818-.082-.1641-.1523-.2459-.2343-.2224-.2108-.4449-.4216-.6794-.6325-.3746-.34-.7377-.691-1.1243-1.0189-.5856-.5388-1.1827-1.0424-1.7917-1.5343-.5622-.48-1.1243-.9253-1.6985-1.37-.5736-.4568-1.1478-.89-1.7334-1.3235-.9956-.7379-2.0027-1.4523-3.0332-2.1316h-.0121c-.5152-.3514-1.0305-.691-1.5578-1.0073-.5147-.34-1.0305-.6558-1.5572-.9721.0235-.55.0583-1.1009.0932-1.6514.024-.2577.0469-.5153.0709-.773.0229-.3982.0584-.7964.1053-1.1829.0817-.773.1635-1.5226.2459-2.2371.0349-.34.0818-.6909.1286-1.0306.0235-.164.0469-.3279.07-.48a1.399,1.399,0,0,1,.0234-.2225q.0523-.3514.1053-.7028c.1286-.8081.2693-1.6162.4214-2.4127.1058-.5856.2231-1.1712.3517-1.7451.0938-.4451.1876-.89.2928-1.3235.0469-.2108.0938-.41.1407-.6207.1173-.5036.2459-1.0189.3861-1.5226.1406-.5739.3048-1.1478.4689-1.71.1521-.55.3162-1.1009.48-1.6513.0229-.0469.0349-.0938.0583-.1523.1636-.5271.3277-1.0541.5153-1.5929.5387-1.6046,1.1363-3.2091,1.78-4.7785a1.3289,1.3289,0,0,0,.0818-.1874c.2345-.55.4684-1.0893.7029-1.6281.5507-1.2414,1.1243-2.4595,1.7454-3.6658.2459-.492.5032-.9721.7611-1.464.3043-.5622.6205-1.1244.9368-1.6866s.6445-1.1244.9842-1.6749q.4392-.7378.9133-1.4756c.398-.6559.82-1.3,1.265-1.9443.398-.5973.8081-1.1712,1.2181-1.7568.89-1.2415,1.8152-2.4595,2.7874-3.6542.3865-.4685.7611-.9252,1.1592-1.382q.6853-.8257,1.4056-1.6163c.48-.5271.9608-1.0541,1.4526-1.57s.9951-1.0306,1.4989-1.5343a76.8,76.8,0,0,1,8.4913-7.3552q.2283-.1757.457-.3513l.0114-.0117c.668-.55,26.47-21.6792,63.07-13.1645.4684.1054.9373.2108,1.3937.3162,1.71.4333,3.2328.8433,4.58,1.2532q.65.2107,1.3.4217a.2122.2122,0,0,1,.0818.0234c.4455.1405.8784.2928,1.3119.445.199.082.398.1523.5976.2226a77.8849,77.8849,0,0,1,51.299,73.0956Z" style="fill:#e2991a"/><path d="M546.6405,544.3577q.4392-.0353.8784-.1055l.597-.1053a.5367.5367,0,0,0,.1293-.0352C547.7179,544.2171,547.1792,544.2991,546.6405,544.3577Z" style="fill:#e2991a"/><path d="M544.4736,544.4279c.0818,0,.1756.0118.2579.0118a1.9118,1.9118,0,0,0,.2574.0116,15.2816,15.2816,0,0,0,1.6516-.0936,16.9113,16.9113,0,0,1-1.8975.07Z" style="fill:#e2991a"/><path d="M542.5767,544.2522a.0418.0418,0,0,0,.0349.0118.8855.8855,0,0,0,.1755.0117A1.269,1.269,0,0,1,542.5767,544.2522Z" style="fill:#e2991a"/><path d="M528.8149,527.094v1.1477a16.1379,16.1379,0,0,0,12.3441,15.7529,10.8423,10.8423,0,0,0,1.23.2225,16.5146,16.5146,0,0,1-13.5628-16.3853V527.34c.0115-.3982.0235-.7964.0349-1.183C528.8378,526.4732,528.8263,526.7777,528.8149,527.094Z" style="fill:#e2991a"/><path d="M488.5715,581.6491c.4918.5271.9957,1.0424,1.5,1.546,1.6161,1.6281,3.4078,3.2561,5.27,4.8372,1.0071.8316,2.0725,1.6748,3.1974,2.5181.0114,0,.0114-.0117.0234-.0234a76.7264,76.7264,0,0,1-8.4913-7.3553C489.5672,582.6681,489.0633,582.1645,488.5715,581.6491Z" style="fill:#e2991a"/><path d="M483.2662,519.5162c.2459-.246.4918-.5036.7257-.75.223-.2343.4335-.4685.6445-.7145C484.18,518.544,483.7231,519.036,483.2662,519.5162Z" style="fill:#e2991a"/><path d="M481.029,521.73c.0817-.07.1755-.1523.2693-.2343.1521-.14.3043-.2928.4449-.4333.1522-.1406.2928-.2811.4335-.4216.34-.34.6794-.6794.9957-1.0307-.3048.3162-.6091.6324-.9253.9369C481.849,520.9451,481.439,521.3433,481.029,521.73Z" style="fill:#e2991a"/><path d="M556.092,539.9656c.1527-.14.3048-.2928.4455-.4451.1166-.1171.2339-.2459.3625-.3865C556.6427,539.4151,556.3733,539.6962,556.092,539.9656Z" style="fill:#e2991a"/><path d="M561.14,528.8859a.9245.9245,0,0,0,.012-.1874c0-.14.0114-.2811.0114-.4217V516.8575h-.0114v11.4193C561.152,528.476,561.152,528.6751,561.14,528.8859Z" style="fill:#e2991a"/><path d="M561.1051,529.4364c.0234-.1289.0234-.2694.0349-.3982v-.1523A4.488,4.488,0,0,1,561.1051,529.4364Z" style="fill:#e2991a"/><path d="M556.092,539.9656c.1527-.14.3048-.2928.4455-.4451.1166-.1171.2339-.2459.3625-.3865C556.6427,539.4151,556.3733,539.6962,556.092,539.9656Z" style="fill:#e2991a"/><path d="M543.2675,544.3342a8.0259,8.0259,0,0,0,.9133.082c-.14-.0117-.2808-.0352-.4215-.0468Z" style="fill:#e2991a"/><path d="M526.4256,569.6325c-4.7552,4.0056-9.6277,7.8237-14.6053,11.56.0583-.0351.1172-.0819.1875-.1288q.5792-.4039,1.5458-1.1243c.1876-.1289.3866-.2811.6091-.4451,1.6979-1.2649,4.0758-3.08,7.0038-5.4227.7029-.5739,1.4406-1.1712,2.2138-1.8037,1.0185-.8315,2.0965-1.7334,3.2208-2.6821-1.0659-.48-2.0965-1.0072-3.1156-1.5694A46.999,46.999,0,0,1,499.71,525.9228c-.0355.7846-.0469,1.5693-.0469,2.354a45.5277,45.5277,0,0,0,23.7285,39.8448C524.3759,568.66,525.3945,569.164,526.4256,569.6325Z" style="fill:#e2991a"/><path d="M469.422,546.3253c.2694,1.1595.5622,2.3073.9019,3.4434C469.9962,548.6326,469.6914,547.4848,469.422,546.3253Z" style="fill:#e2991a"/><path d="M467.5131,533.7933c-.0349-.5505-.07-1.101-.0938-1.6514q3.18-1.8974,6.1609-4.111-2.9869,2.196-6.1958,4.111C467.4193,532.6923,467.4662,533.2428,467.5131,533.7933Z" style="fill:#e2991a"/><path d="M561.14,528.8859a.9245.9245,0,0,0,.012-.1874c0-.14.0114-.2811.0114-.4217v-2.0612l-.0114.0116v2.05C561.152,528.476,561.152,528.6751,561.14,528.8859Z" style="fill:#e2991a"/><path d="M561.1051,529.4364c.0234-.1289.0234-.2694.0349-.3982v-.1523A4.488,4.488,0,0,1,561.1051,529.4364Z" style="fill:#e2991a"/><path d="M556.092,539.9656c.1527-.14.3048-.2928.4455-.4451.1166-.1171.2339-.2459.3625-.3865C556.6427,539.4151,556.3733,539.6962,556.092,539.9656Z" style="fill:#e2991a"/><path d="M546.6405,544.3577q.4392-.0353.8784-.1055l.597-.1053a.5367.5367,0,0,0,.1293-.0352C547.7179,544.2171,547.1792,544.2991,546.6405,544.3577Z" style="fill:#e2991a"/><path d="M544.7315,544.44a1.9118,1.9118,0,0,0,.2574.0116,15.2816,15.2816,0,0,0,1.6516-.0936,16.9113,16.9113,0,0,1-1.8975.07Z" style="fill:#e2991a"/><path d="M511.82,581.1923c.0583-.0351.1172-.0819.1875-.1288q.5792-.4039,1.5458-1.1243c.1876-.1289.3866-.2811.6091-.4451,1.6979-1.2649,4.0758-3.08,7.0038-5.4227.7029-.5622,1.4406-1.16,2.2138-1.8037,1.0185-.8315,2.0965-1.7334,3.2208-2.6821-1.0659-.48-2.0965-1.0072-3.1156-1.5694l-.0938.1054c.9842.5388,2.0028,1.0424,3.0339,1.5109C521.67,573.6381,516.7979,577.4562,511.82,581.1923Z" style="fill:#e2991a"/><path d="M405.111,539.1808a140.9736,140.9736,0,0,0,14.16,39.8916,164.8826,164.8826,0,0,0,26.5634,36.542l.0114.0234h.5038l2.0845,2.3073c8.023-3.49,15.9641-7.3552,23.7292-11.5247-.89-.8316-1.78-1.6983-2.6822-2.6a106.6929,106.6929,0,0,1-30.4281-61.7,77.3,77.3,0,0,1-10.553.7262A75.379,75.379,0,0,1,405.111,539.1808Z" style="fill:#e2991a"/><path d="M528.8263,527.34v.4919a16.5146,16.5146,0,0,0,13.5628,16.3853.53.53,0,0,0,.1876.0351,1.269,1.269,0,0,0,.21.0235c.1642.0234.3163.0468.48.0585l.4918.0352c.1407.0116.2814.0351.4215.0468a2.4505,2.4505,0,0,0,.2928.0117h.2694a16.9113,16.9113,0,0,0,1.8975-.07c.5387-.0586,1.0774-.1406,1.6047-.246l.4563-.1054c.1642-.0351.3283-.07.48-.1171a.8734.8734,0,0,0,.1876-.0586,5.8494,5.8494,0,0,0,.597-.1874c.2694-.0819.5273-.1757.7847-.2694q.4752-.1756.9138-.3865a5.1945,5.1945,0,0,0,.5742-.2811,2.005,2.005,0,0,0,.2688-.1522.9312.9312,0,0,0,.1876-.0937c.07-.0352.1407-.07.199-.1054.1292-.07.2459-.1406.3751-.2226a.2354.2354,0,0,0,.07-.0468c.1293-.082.2579-.164.3866-.2577h.012c.07-.0468.1287-.082.187-.1288.2231-.14.4455-.2928.6565-.4568a.6645.6645,0,0,0,.1053-.082c.0817-.0585.1755-.1288.2693-.2108a6.0061,6.0061,0,0,0,.6091-.5036,6.5462,6.5462,0,0,0,.5267-.48c.2813-.2694.5507-.55.808-.8316l.0355-.0351c.199-.2225.398-.4568.5856-.691.1052-.1406.2225-.2694.3277-.41a6.7182,6.7182,0,0,0,.4684-.6676.4791.4791,0,0,0,.0938-.1406.2425.2425,0,0,0,.0469-.07c.0234-.0235.0354-.0469.0589-.07a.6063.6063,0,0,1,.07-.1172c.14-.2225.2808-.4568.4215-.6793.0938-.1756.187-.34.2808-.5153s.1876-.3514.27-.527a1.4206,1.4206,0,0,0,.0932-.1875c.0824-.1756.1527-.34.2225-.5153a5.4032,5.4032,0,0,0,.2459-.609c.024-.07.0469-.1289.07-.1874.0235-.07.0469-.1523.07-.2225l.211-.6325c.0469-.1874.1052-.3865.1521-.5856.0589-.2342.1287-.4685.1756-.7028.0469-.1873.0823-.3747.1172-.55a4.6319,4.6319,0,0,0,.0818-.5621c.012-.1172.0355-.2226.0469-.328a4.416,4.416,0,0,0,.0589-.691,4.488,4.488,0,0,0,.0349-.5505c.012-.2108.012-.41.012-.6091V516.8575h.0114a29.5491,29.5491,0,0,1,5.7389,2.9983,27.3625,27.3625,0,0,1,4.58,3.8064,288.6077,288.6077,0,0,0,25.5208-37.1977,44.9658,44.9658,0,0,0-4.6265-2.038,46.3053,46.3053,0,0,0-8-2.2721c-.4215-.07-.8429-.1522-1.2764-.2226-.4335-.0585-.8664-.1288-1.3119-.1873-.199-.0235-.4095-.0469-.62-.07a5.7116,5.7116,0,0,0-.644-.07c-.4334-.0468-.8784-.082-1.3119-.1171-.7142-.0586-1.4291-.0937-2.1554-.1054-.3626-.0117-.7257-.0235-1.0888-.0235h-.2345c-1.5693,0-3.1385.082-4.6963.2226-1.2416.1289-2.46.3045-3.6658.527a46.7574,46.7574,0,0,0-18.4237,7.73c-.6085.4335-1.2061.8668-1.7918,1.3235-.2693.2109-.5387.4217-.7966.6208-.3157.2693-.6325.5271-.9367.7847-.2105.1757-.41.3513-.6091.5388-.3746.3279-.75.6558-1.1009.9955-.4449.41-.8784.8316-1.3119,1.2766-.4449.4568-.89.9135-1.3233,1.3938l-.0355.0351c-.3745.4217-.7611.855-1.1243,1.2884a1.4271,1.4271,0,0,0-.1755.2108c-.3981.48-.7847.96-1.1713,1.4523a.3012.3012,0,0,0-.0583.07c-.8784,1.1478-1.71,2.3307-2.4831,3.5605V503.4c-.34.5388-.6674,1.0893-.9836,1.64-.6211,1.0892-1.2182,2.2136-1.7689,3.3613-.2808.5739-.5387,1.1595-.7846,1.7451v.0118c-.2808.6676-.55,1.3468-.8081,2.0261-.3746,1.0307-.7263,2.0731-1.03,3.1389-.1876.6325-.3517,1.2649-.5153,1.8974-.1406.5973-.2813,1.2063-.41,1.8037-.0818.4333-.1641.8784-.2345,1.3235-.07.3748-.1287.7612-.187,1.136-.0589.3865-.1058.773-.1527,1.1595q-.0694.492-.1052.9838-.018.1933-.0349.3866c-.07.7144-.1172,1.4288-.1527,2.1432C528.85,526.5435,528.8378,526.9417,528.8263,527.34Z" style="fill:#e2991a"/><path d="M381.5694,466.7764a46.9236,46.9236,0,0,0,93.838.9369v-.4919c0-8.69-6.6762-16.1745-15.3551-16.5844A16.1788,16.1788,0,0,0,443.07,466.7764v11.4193a28.7075,28.7075,0,0,1-18.4-27.1019,27.8576,27.8576,0,0,1,17.6272-26.329,45.0661,45.0661,0,0,1,17.006-3.2911c25.7782.0234,45.7827,21.9955,45.2205,47.6568a4.3338,4.3338,0,0,1-.0234.55c0,.1873-.012.3865-.012.5738-.0115.41-.0349.8082-.07,1.2064-.0469.8315-.1058,1.6514-.1876,2.4713-.0354.3748-.07.7379-.1172,1.1126-.0584.6208-.1407,1.2532-.2225,1.8622-.0938.7731-.211,1.5343-.34,2.2956-.1052.6559-.2224,1.3-.3511,1.956-.0469.2693-.1058.55-.1521.82-.2928,1.4758-.6446,2.94-1.0311,4.3921l-.0349.1054c-.1762.6442-.3517,1.2883-.5387,1.9208q-.5628,1.9149-1.23,3.7947c-.2224.6208-.4569,1.2415-.6908,1.8623-.3048.8315-.6445,1.6513-.9956,2.46-.1991.4685-.3981.9369-.6091,1.3937-.3277.7379-.6794,1.4758-1.0305,2.2019-.7143,1.4523-1.4641,2.893-2.2721,4.2984-.3981.7027-.8081,1.4054-1.2416,2.0965-.7143,1.1712-1.476,2.319-2.2606,3.4551-.2574.3864-.5153.7612-.7961,1.1243-.34.48-.6914.9487-1.0545,1.4172-.246.3279-.5033.6559-.7612.9838a3.4037,3.4037,0,0,1-.3163.41q-.2111.2811-.4563.5622c-.258.328-.5273.6676-.82.9956,0,.0116,0,.0116-.0115.0234-.9138,1.1244-1.8975,2.2253-2.9051,3.2911-.2225.2577-.4684.5036-.7257.75a.7337.7337,0,0,1-.0938.0937c-.3048.34-.656.7027-.9957,1.0307-.1407.1405-.2813.281-.4335.4216-.1406.1405-.2928.2928-.4449.4333-.4449.4334-.9018.8667-1.37,1.2883-.3632.3515-.75.6911-1.1243,1.019-.5856.5388-1.1833,1.0424-1.7923,1.5343-.5622.48-1.1243.9253-1.6979,1.37-.5742.4568-1.1478.89-1.7334,1.3235q-2.9869,2.2137-6.1609,4.111c.0234.55.0589,1.1009.0938,1.6514l.07.773c.0355.3982.07.7964.1053,1.1829.0823.773.1641,1.5226.2459,2.2371.0469.3513.0823.6909.1292,1.0306.0235.1639.0469.3279.07.48.0589.48.1292.937.2,1.3469l.0817.5154c.0824.4919.1756.9955.2694,1.4874.211,1.1595.4684,2.3307.7377,3.4785.2694,1.1595.5742,2.3073.9019,3.4434.1292.4684.2693.9487.422,1.4171a6.5279,6.5279,0,0,0,.21.6793c.1292.4334.2694.855.422,1.2884.5388,1.6162,1.1358,3.2091,1.78,4.7785a1.3464,1.3464,0,0,0,.0824.1875c.2345.55.4684,1.0892.7028,1.6279a73.8583,73.8583,0,0,0,3.5486,6.9922c.2813.5036.5741,1.0072.8784,1.4991q.4923.8258,1.0191,1.6515c.3746.5973.7612,1.1829,1.1477,1.7568q1.8624,2.7406,3.9352,5.3173c.41.5036.82.9955,1.2415,1.4874q.6855.8258,1.4057,1.6163c.48.5387.96,1.0658,1.452,1.5811s.9957,1.019,1.5,1.5226a76.7264,76.7264,0,0,0,8.4913,7.3553q6.4122-4.2692,12.6489-8.9012l.0235-.0235a.2619.2619,0,0,1,.0583-.0352c.0354-.0233.0823-.0585.1527-.1053a.4254.4254,0,0,0,.1052-.07c.0938-.07.1756-.14.2694-.1992,4.9776-3.7361,9.85-7.5542,14.6053-11.56-1.0311-.4685-2.05-.9721-3.0339-1.5109a45.5277,45.5277,0,0,1-23.7285-39.8448c0-.7847.0114-1.5694.0469-2.354,0-.1875.0114-.3748.0234-.5506,0-.1757,0-.34.0115-.5153v-.0585a.3333.3333,0,0,1,.0114-.1055c.012-.3748.0355-.7379.0589-1.1009.0469-.8315.1052-1.6514.1876-2.4713.0349-.363.07-.7378.1172-1.1126.0583-.6207.14-1.2415.2219-1.8622.0938-.7731.211-1.5343.34-2.2956.1058-.6442.211-1.2884.34-1.9209.0589-.3161.1172-.6207.1876-.9252.1521-.773.3162-1.5343.5038-2.2956.1641-.75.3511-1.4874.5622-2.2253a.4061.4061,0,0,1,.0234-.1171c.199-.7379.41-1.464.6325-2.19.2225-.75.4564-1.4874.7143-2.2253.3866-1.1595.7961-2.2956,1.253-3.4316.2928-.75.5856-1.4875.9139-2.2254.0817-.199.1641-.3982.2573-.5973.3163-.7379.656-1.4757,1.0071-2.2019.2579-.55.5273-1.1009.8086-1.64.55-1.0776,1.1244-2.1551,1.7334-3.2092.3632-.6442.7377-1.2883,1.1358-1.9208.7611-1.2414,1.5578-2.4713,2.3893-3.6659.2459-.363.5038-.7261.7612-1.0775.3282-.4685.6794-.9253,1.0311-1.3821.3162-.4216.6319-.8432.96-1.2532.1286-.1639.2693-.3279.398-.4919l.0355-.0351c.34-.445.7022-.9018,1.0888-1.3352.0938-.1054.1876-.2225.2814-.34.1172-.1289.2345-.2694.3511-.41a.506.506,0,0,0,.07-.082c.96-1.1243,1.9558-2.2252,3.01-3.2911.0709-.082.1527-.164.2345-.2459.1052-.1054.199-.2109.3048-.3162.2339-.246.48-.48.7257-.7145.211-.2108.422-.41.6325-.6207.1172-.1171.2345-.2226.3517-.3279.0818-.082.1641-.1523.2459-.2343.2225-.2108.4449-.4216.6794-.6325.3746-.34.7377-.691,1.1243-1.0189.5856-.5388,1.1827-1.0424,1.7917-1.5343.5622-.48,1.1244-.9253,1.6985-1.37.5736-.4568,1.1478-.89,1.7334-1.3235.9956-.7379,2.0027-1.4523,3.0333-2.1316h.012c.5152-.3514,1.03-.691,1.5578-1.0073.5147-.34,1.03-.6558,1.5572-.9721-.0234-.55-.0583-1.1009-.0932-1.6514-.024-.2577-.0469-.5153-.0709-.773-.0229-.3982-.0583-.7964-.1052-1.1829-.0818-.773-.1636-1.5226-.2459-2.2371-.0349-.34-.0818-.6909-.1287-1.0306-.0235-.164-.0469-.3279-.07-.48a1.399,1.399,0,0,0-.0234-.2225q-.0523-.3514-.1052-.7028c-.1287-.8081-.2694-1.6162-.4215-2.4127-.1058-.5856-.223-1.1712-.3517-1.7451-.0938-.4451-.1876-.89-.2928-1.3235-.0469-.2108-.0938-.41-.1407-.6207-.1172-.5036-.2459-1.0189-.386-1.5226-.1407-.5739-.3048-1.1478-.469-1.71-.1521-.55-.3162-1.1009-.48-1.6513-.0228-.0469-.0348-.0938-.0583-.1523-.1635-.5271-.3277-1.0541-.5153-1.5929-.5387-1.6046-1.1363-3.2091-1.78-4.7785a1.3289,1.3289,0,0,1-.0818-.1874c-.2345-.55-.4684-1.0893-.7028-1.6281-.5508-1.2414-1.1244-2.4595-1.7454-3.6658-.2459-.492-.5033-.9721-.7612-1.464-.3042-.5622-.62-1.1244-.9368-1.6866s-.6445-1.1244-.9842-1.6749q-.4392-.7378-.9133-1.4756c-.398-.6559-.8195-1.3-1.265-1.9443-.398-.5973-.808-1.1712-1.2181-1.7568-.89-1.2415-1.8151-2.4595-2.7873-3.6542-.3866-.4685-.7612-.9252-1.1592-1.382q-.6855-.8257-1.4057-1.6163c-.48-.5271-.9608-1.0541-1.4526-1.57s-.9951-1.0306-1.4989-1.5343a76.7909,76.7909,0,0,0-8.4913-7.3552q-.2282-.1757-.457-.3513l-.0114-.0117c-.6679-.55-26.47-21.6792-63.07-13.1645-.4683.1054-.9373.2108-1.3936.3162-1.71.4333-3.2329.8433-4.58,1.2532q-.65.2107-1.3.4217a.2112.2112,0,0,0-.0817.0234c-.4455.1405-.8785.2928-1.3119.445-.1991.082-.3981.1523-.5977.2226a77.8852,77.8852,0,0,0-51.299,73.0956Z" style="fill:#e2991a"/><path d="M333.8116.2306a129.3394,129.3394,0,0,0-7.38,12.07c-1.449,2.6967-2.8327,5.53-4.1278,8.41-.3488.7865-.6919,1.579-1.0231,2.3714-.2425-.5618-.4848-1.1236-.7334-1.6854-1.39-3.0752-2.7381-5.8192-4.14-8.4154a129.87,129.87,0,0,0-7.83-12.7324C312.8649.0828,317.1582,0,321.422,0,325.538,0,329.6777.0768,333.8116.2306Z" style="fill:#e9af49"/><path d="M226.5241,69.1135V70.355c-.0349,1.4289-.0933,2.811-.21,4.1227a64.2518,64.2518,0,0,1-54.04,58.2211s-.8784.1172-1.0895.1523a65.1182,65.1182,0,0,1-7.0273.5739h-.1635c-.457.0117-.89.0117-1.3708.0117H162.4a64.4644,64.4644,0,0,1-51.5449-26.0829,66.7843,66.7843,0,0,1-3.9-5.9264,61.3017,61.3017,0,0,1-4.2983-8.8661c-.5856-1.5109-1.1243-3.0452-1.5813-4.556l.5153.0468c-.0469-.1288-.0938-.2694-.1287-.3982.1756-.1757.4215-.3982.7143-.6676.0938-.082.1876-.1757.2928-.2694s.211-.1874.3163-.2928c.1052-.0937.2224-.1991.34-.3045.0583-.0469.1052-.1054.1755-.164a2.1308,2.1308,0,0,0,.1756-.164c.1761-.1522.3517-.3162.5387-.4919,2.7994-2.5181,7.391-6.6056,12.9543-11.2553.5616-.48,1.1358-.9487,1.7214-1.4407,1.7453-1.4523,3.5839-2.94,5.4694-4.4506.1876-.1522.3752-.3045.5622-.445,10.2716-8.1751,22.1948-16.7836,32.1267-21.527a32.5215,32.5215,0,0,0,21.0464,34.3635V69.1135a25.1432,25.1432,0,0,1,.4455-4.6263,23.67,23.67,0,0,1,3.2443-8.257,24.402,24.402,0,0,1,20.6363-11.5014,21.9533,21.9533,0,0,1,3.0339.1875A23.6768,23.6768,0,0,1,213.7,47.6334l.62.328a24.4464,24.4464,0,0,1,9.8266,10.7166c.07.1522.0469.1171.1173.2694.1052.2343.21.4684.3162.7144.1407.3163.2694.6442.3866.9722.0932.2459.187.4918.2688.7495.1527.4334.2928.8785.41,1.3235.1058.3631.2.7378.2813,1.1009.0818.3865.1642.773.2339,1.1712.012.0352.012.082.024.1172.1287.75.21,1.5108.2688,2.2839,0,.0351.012.07.012.1171.0235.363.0349.7261.0469,1.1009C226.5241,68.7622,226.5241,68.9378,226.5241,69.1135Z" style="fill:#e9af49"/><path d="M415.09,69.1135V70.355c.0348,1.4289.0932,2.811.21,4.1227a64.2516,64.2516,0,0,0,54.04,58.2211s.8784.1172,1.0894.1523a65.12,65.12,0,0,0,7.0273.5739h.1635c.457.0117.8905.0117,1.3708.0117h.2225a64.4642,64.4642,0,0,0,51.5449-26.0829,66.8081,66.8081,0,0,0,3.9-5.9264,61.3012,61.3012,0,0,0,4.2982-8.8661c.5856-1.5109,1.1244-3.0452,1.5813-4.556l-.5153.0468c.0469-.1288.0938-.2694.1287-.3982-.1756-.1757-.4215-.3982-.7143-.6676-.0938-.082-.1876-.1757-.2928-.2694s-.211-.1874-.3162-.2928c-.1053-.0937-.2225-.1991-.34-.3045-.0584-.0469-.1053-.1054-.1756-.164a2.147,2.147,0,0,1-.1756-.164c-.1761-.1522-.3517-.3162-.5387-.4919-2.7994-2.5181-7.391-6.6056-12.9543-11.2553-.5616-.48-1.1357-.9487-1.7213-1.4407-1.7454-1.4523-3.584-2.94-5.47-4.4506-.1876-.1522-.3752-.3045-.5622-.445C506.62,59.533,494.697,50.9245,484.7651,46.1811a32.5216,32.5216,0,0,1-21.0465,34.3635V69.1135a25.143,25.143,0,0,0-.4454-4.6263,23.6742,23.6742,0,0,0-3.2443-8.257,24.403,24.403,0,0,0-20.6364-11.5014,21.9533,21.9533,0,0,0-3.0339.1875,23.6768,23.6768,0,0,0-8.4444,2.7171l-.62.328a24.4476,24.4476,0,0,0-9.8266,10.7166c-.07.1522-.0469.1171-.1173.2694-.1052.2343-.21.4684-.3162.7144-.1407.3163-.2694.6442-.3866.9722-.0932.2459-.187.4918-.2688.7495-.1527.4334-.2928.8785-.41,1.3235-.1058.3631-.2.7378-.2814,1.1009-.0818.3865-.1641.773-.2339,1.1712-.012.0352-.012.082-.024.1172-.1287.75-.2105,1.5108-.2688,2.2839,0,.0351-.012.07-.012.1171-.0235.363-.0349.7261-.0469,1.1009C415.09,68.7622,415.09,68.9378,415.09,69.1135Z" style="fill:#e9af49"/><path d="M17.7784,237.792q-4.0584.3339-8.0579.9018,1.4583-5.4989,3.1271-10.9391A93.6542,93.6542,0,0,0,17.7784,237.792Z" style="fill:#e9af49"/><path d="M613.9737,191.8452c-.975-2.2049-1.9729-4.3982-3.0166-6.58-.01-.02-.0183-.0406-.0281-.0608a320.9756,320.9756,0,0,0-36.0268-59.1229c-.0515-.0259-.1053-.0471-.1573-.0729L574.738,126c-3.4787-4.5444-7.2034-9.1941-11.1969-13.8673-1.7333,3.9939-3.9,7.8706-4.17,8.3391a.1345.1345,0,0,1-.0234.0469c-1.4406,2.2487-2.9984,4.474-4.638,6.6173-.5741.75-1.1477,1.4875-1.7454,2.2136-.2224.2694-.4449.55-.6908.82-.012.0234-.0349.0351-.0469.0585-.0469.0586-.0938.1055-.1287.1523a.9911.9911,0,0,1-.1058.1288c-.3391.4217-.6908.8316-1.0539,1.2532l-.07.07c-.14.1757-.2928.34-.4449.5036-.3048.3514-.5976.6911-.89,1.019-.2339.2459-.4564.48-.6909.7261-.0091.011-.02.022-.03.033-.1819.2221-.3906.435-.6142.6581-.3752.4216-.7732.82-1.16,1.218-.4215.4451-.8549.8668-1.2764,1.2767l-.3512.3513c-.48.4685-.9487.9136-1.4291,1.3587-.4335.4216-.89.8315-1.3353,1.23-.3163.2928-.644.5856-.9722.8667-.2574.2343-.5267.4685-.7847.6676q-.7377.65-1.4754,1.2649c-.7029.5739-1.4171,1.1361-2.132,1.6982q-2.16,1.669-4.368,3.1975c-.8556.5856-1.6985,1.1478-2.5535,1.6982-.6325.41-1.265.8082-1.9209,1.1947-.0235.0117-.0349.0351-.07.0469-.7028.4333-1.4171.8549-2.1314,1.2531a1.9073,1.9073,0,0,1-.34.1874.6341.6341,0,0,1-.0938.0586q-.9838.5622-1.9673,1.0892c-.0589.0235-.1057.0586-.1526.082-.5267.2694-1.0775.55-1.6042.82a1.1111,1.1111,0,0,0-.1172.0585l-.2814.1406c-.1521.082-.3277.1639-.48.2459-.1058.0469-.211.1054-.3282.164-.6674.3279-1.3354.6442-2.0262.9487-.8081.3747-1.64.7378-2.46,1.0892-.8315.3514-1.6516.691-2.4945,1.0307-.8436.3279-1.6751.6442-2.518.937-.7143.2693-1.4292.5153-2.1555.75a5.6572,5.6572,0,0,1-.5856.1873c-.1052.0352-.199.07-.3042.1055-.6909.2108-1.3937.4333-2.0965.6441s-1.4057.41-2.108.5973l-.668.1757c-.7491.1991-1.4874.3865-2.2372.5622-.1755.0468-.3625.0819-.55.1288q-1.16.2635-2.319.4919c-.8315.1757-1.6516.328-2.4831.48a3.1561,3.1561,0,0,1-.3277.0469c-.855.164-1.71.2928-2.5769.41-.62.1054-1.2416.1757-1.8621.2577a1.6048,1.6048,0,0,1-.2224.0234c-.2694.0351-.5273.07-.7966.0937-.6091.082-1.2182.1288-1.8386.1874-.5153.0586-1.0312.0937-1.5464.1288-.7257.07-1.464.1171-2.2018.1523-.0583,0-.1052.0117-.1641.0117-.7492.0351-1.5109.07-2.26.0937a1.1286,1.1286,0,0,1-.199,0c-.0823,0-.1527.0117-.2345.0117-.808.0234-1.6047.0352-2.4242.0352-1.8271,0-3.572-.0587-5.3522-.1523-3.0687-.1757-6.2192-.5153-9.3343-.9956-1.2884-.1991-2.4482-.41-3.6429-.6441-.796-.164-1.5927-.3279-2.3893-.5036-1.5927-.3514-3.2088-.7614-4.837-1.2064-.8081-.2342-1.6161-.4568-2.4362-.7145-.6674-.2108-1.3468-.4216-2.0027-.6441-.1876-.0586-.3632-.1288-.55-.1874-.1527-.0469-.3048-.1054-.4455-.164a2.02,2.02,0,0,1-.2459-.082,2.0951,2.0951,0,0,1-.2459-.0937.919.919,0,0,1-.2339-.082c-.5627-.1873-1.1015-.3981-1.6516-.5972-.75-.2695-1.4875-.574-2.2252-.8668q-.58-.2283-1.1249-.4567c-.5387-.2225-1.0654-.4568-1.5927-.6911-.2573-.117-.5267-.2342-.796-.363-.5742-.2577-1.16-.5271-1.7334-.7964l-.457-.2343c-.808-.3865-1.6047-.7847-2.3773-1.1829-.6565-.3514-1.3119-.7027-1.9564-1.0658a1.7753,1.7753,0,0,1-.2928-.1523c-.199-.1054-.386-.2108-.5856-.3162-.5033-.2928-1.0185-.5856-1.5109-.89-.0463-.0233-.0818-.0468-.1287-.07-.2814-.164-.5621-.3279-.8429-.5037-.668-.3981-1.3239-.7964-1.9679-1.218q-1.1418-.72-2.2486-1.4757a2.6066,2.6066,0,0,1-.2225-.164,2.6819,2.6819,0,0,1-.3517-.2459c-.6091-.41-1.2181-.8316-1.8037-1.265-.7612-.5387-1.5109-1.1009-2.2487-1.6748-1.4754-1.1244-2.916-2.3073-4.3217-3.5254-.7028-.6207-1.3937-1.23-2.0965-1.8622-.6794-.6325-1.3468-1.2766-2.0142-1.9208a96.0283,96.0283,0,0,1-14.09-17.334q-1.4935-2.3717-2.87-4.8371c-.9133-1.64-1.78-3.3028-2.5884-5.0128-.82-1.6983-1.5927-3.42-2.3069-5.1768s-1.37-3.537-1.9913-5.3407a99.1673,99.1673,0,0,1-3.5606-13.832l-.1755-1.0073v-.0469a97.3034,97.3034,0,0,1-1.3-15.8114A55.6357,55.6357,0,0,1,389.9788,44.19c.2459-.4919.5038-.972.7617-1.464a55.6288,55.6288,0,0,1,26.715-24.5135c.07-.0351.1641-.0586.2344-.0937.5153-.2225,1.0191-.4333,1.5344-.6325.2459-.0936.4918-.1991.75-.2811a.627.627,0,0,1,.1287-.0585c.4569-.1757.9367-.3514,1.4051-.5153A316.8989,316.8989,0,0,0,377.7514,5.458q-7.1148-1.3-14.2885-2.2605v0l-.0006,0a155.5183,155.5183,0,0,0-42.6556,74.7353A155.5181,155.5181,0,0,0,278.1512,3.1975l-.0006,0v0q-7.1671.9663-14.2885,2.2605a316.9,316.9,0,0,0-43.7565,11.1734c.4684.1639.9482.34,1.4052.5153a.6263.6263,0,0,1,.1286.0585c.258.082.5039.1875.75.2811.5152.1992,1.0191.41,1.5343.6325.07.0351.1642.0586.2345.0937A55.6281,55.6281,0,0,1,250.8729,42.726c.2579.492.5159.9721.7618,1.464a55.6357,55.6357,0,0,1,5.9144,24.9235,97.3034,97.3034,0,0,1-1.3,15.8114v.0469l-.1756,1.0073a99.1808,99.1808,0,0,1-3.56,13.832c-.6211,1.8037-1.2765,3.5839-1.9913,5.3407s-1.4875,3.4785-2.307,5.1768c-.8086,1.71-1.675,3.3731-2.5883,5.0128s-1.8741,3.256-2.87,4.8371a96.0289,96.0289,0,0,1-14.09,17.334c-.6674.6442-1.3347,1.2883-2.0141,1.9208-.7029.6325-1.3937,1.2415-2.0966,1.8622-1.4057,1.2181-2.8462,2.401-4.3217,3.5254-.7377.5739-1.4874,1.1361-2.2486,1.6748-.5856.4334-1.1947.855-1.8037,1.265a2.6819,2.6819,0,0,1-.3517.2459,2.6225,2.6225,0,0,1-.2225.164q-1.1065.7554-2.2487,1.4757c-.6439.4216-1.3.82-1.9678,1.218-.2808.1758-.5616.34-.843.5037-.0469.0234-.0823.0469-.1286.07-.4924.3046-1.0077.5974-1.5109.89-.2.1054-.3866.2108-.5857.3162a1.7674,1.7674,0,0,1-.2928.1523c-.6445.3631-1.3.7144-1.9564,1.0658-.7726.3982-1.5692.7964-2.3773,1.1829l-.4569.2343c-.5736.2693-1.1592.5387-1.7334.7964-.2693.1288-.5387.246-.7961.363-.5272.2343-1.0539.4686-1.5926.6911q-.5457.2285-1.1249.4567c-.7378.2928-1.4755.5973-2.2252.8668-.55.1991-1.0889.41-1.6516.5972a.92.92,0,0,1-.2339.082,2.1018,2.1018,0,0,1-.2459.0937,2.0255,2.0255,0,0,1-.2459.082c-.1407.0586-.2929.1171-.4455.164-.1871.0586-.3626.1288-.55.1874-.6559.2225-1.3353.4333-2.0027.6441-.82.2577-1.6282.48-2.4362.7145-1.6282.445-3.2443.855-4.837,1.2064-.7961.1757-1.5927.34-2.3894.5036-1.1946.2342-2.3544.445-3.6428.6441-3.1151.48-6.2656.82-9.3343.9956-1.78.0936-3.5251.1523-5.3523.1523-.82,0-1.6161-.0118-2.4242-.0352-.0818,0-.1521-.0117-.2344-.0117a1.1293,1.1293,0,0,1-.1991,0c-.7491-.0234-1.5109-.0586-2.26-.0937-.0589,0-.1058-.0117-.1642-.0117-.7377-.0352-1.476-.082-2.2017-.1523-.5153-.0351-1.0311-.07-1.5464-.1288-.62-.0586-1.23-.1054-1.8386-.1874-.2693-.0235-.5273-.0586-.7966-.0937a1.6061,1.6061,0,0,1-.2225-.0234c-.62-.082-1.2415-.1523-1.862-.2577-.867-.1171-1.722-.2459-2.5769-.41a3.1522,3.1522,0,0,1-.3277-.0469c-.8315-.1522-1.6516-.3045-2.4831-.48q-1.16-.2283-2.319-.4919c-.1876-.0469-.3746-.082-.55-.1288-.75-.1757-1.488-.3631-2.2372-.5622l-.6679-.1757q-1.0535-.2811-2.108-.5973c-.7028-.2108-1.4057-.4333-2.0965-.6441-.1052-.0352-.199-.07-.3043-.1055a5.6572,5.6572,0,0,1-.5856-.1873c-.7263-.2343-1.4411-.48-2.1554-.75-.843-.2928-1.6745-.6091-2.518-.937-.843-.34-1.663-.6793-2.4945-1.0307-.82-.3514-1.6516-.7145-2.46-1.0892-.6908-.3045-1.3588-.6208-2.0262-.9487-.1172-.0586-.2225-.1171-.3283-.164-.1521-.082-.3276-.1639-.48-.2459l-.2813-.1406a1.0153,1.0153,0,0,0-.1173-.0585c-.5267-.2694-1.0774-.55-1.6041-.82-.0469-.0234-.0938-.0585-.1527-.082q-.9831-.5269-1.9673-1.0892a.6449.6449,0,0,1-.0938-.0586,1.9108,1.9108,0,0,1-.34-.1874c-.7142-.3982-1.4285-.82-2.1314-1.2531-.0354-.0118-.0469-.0352-.07-.0469-.6559-.3865-1.2885-.7847-1.921-1.1947-.8549-.55-1.6979-1.1126-2.5534-1.6982q-2.2132-1.5284-4.368-3.1975c-.7149-.5621-1.4292-1.1243-2.132-1.6982q-.7377-.6149-1.4755-1.2649c-.2579-.1991-.5273-.4333-.7846-.6676-.3283-.2811-.656-.5739-.9722-.8667-.4449-.3982-.9019-.8081-1.3354-1.23-.48-.4451-.9487-.89-1.4291-1.3587l-.3511-.3513c-.4215-.41-.855-.8316-1.2765-1.2767-.3866-.3982-.7846-.7964-1.16-1.218-.2231-.2231-.4318-.436-.6137-.6581l-.03-.033c-.2345-.2459-.4569-.48-.6908-.7261-.2928-.3279-.5856-.6676-.89-1.019-.1522-.1639-.3049-.3279-.445-.5036l-.07-.07c-.3631-.4216-.7149-.8315-1.054-1.2532a1.0077,1.0077,0,0,1-.1058-.1288c-.0349-.0468-.0818-.0937-.1287-.1523-.012-.0234-.0348-.0351-.0469-.0585-.2459-.2694-.4683-.55-.6908-.82-.5976-.7261-1.1712-1.464-1.7454-2.2136-1.64-2.1433-3.1974-4.3686-4.6379-6.6173a.1332.1332,0,0,1-.0235-.0469c-.2693-.4685-2.4362-4.3452-4.17-8.3391-3.9934,4.6732-7.7181,9.3229-11.1969,13.8673l-.0068.0091c-.0515.0258-.1053.047-.1573.0729a320.9761,320.9761,0,0,0-36.0269,59.1229l-.0274.0608c-1.0437,2.1818-2.0417,4.3751-3.0173,6.58a.9829.9829,0,0,0-.0469.1054,70.4332,70.4332,0,0,0,9.5688,32.9463,71.2728,71.2728,0,0,0,5.1418,7.6364c.34.4449.7028.89,1.0654,1.3117.3162.3982.6445.7964.9607,1.1829.0584.082.1167.1406.1756.2109.3511.3981.6908.7964,1.0425,1.1828.3746.4217.7492.8433,1.1358,1.2415q.5628.6326,1.16,1.23c.7732.7847,1.5692,1.5577,2.3773,2.319.3986.3748.8081.75,1.23,1.1127.8195.7379,1.663,1.4406,2.506,2.1316.48.3865.9722.773,1.4526,1.1361.3746.2928.7732.5738,1.1592.8667.5393.3982,1.0894.7847,1.6281,1.1829.8316.5856,1.6865,1.1244,2.5415,1.6514.3866.2342.75.48,1.1478.7027.1526.1055.3162.1874.48.2811.3512.2226.7029.41,1.054.6091.457.2693.9139.5153,1.3823.773.14.0819.2928.1522.4449.2342.0938.0468.1876.1054.2928.1523.3746.1991.75.3865,1.1363.5739.3043.1639.62.3162.9368.4567.1052.0469.199.1054.3042.1406.4335.2108.867.41,1.3119.609.5856.2694,1.1947.527,1.8037.773,1.5224.6208,3.08,1.2064,4.638,1.7217.1052.0351.2345.082.34.1171.0823.0235.1407.0351.2224.0586.34.1288.7029.2342,1.054.328.0938.0351.1876.07.27.0936.8195.246,1.6395.4685,2.4711.691.6439.164,1.3.3163,1.9558.48a1.3238,1.3238,0,0,1,.211.0352c.5033.1288,1.0071.2342,1.5224.3279.34.07.6559.1406.9836.1874.5976.1288,1.1947.2226,1.8037.3279h.0006l.8435-5.3407c.1756-1.3235.386-2.6353.6325-3.9587.1167-.6559.2459-1.3234.3746-1.9677.0114-.0468.0114-.082.0235-.1288.1052-.527.2224-1.0775.34-1.6045.0817-.41.187-.8316.2808-1.2532.0354-.1523.0817-.3046.1172-.4568.07-.3162.1521-.6442.2345-.96.2339-.9487.4918-1.874.7491-2.8109.1173-.3748.2111-.75.3283-1.1127.1635-.5388.34-1.0892.5032-1.628s.34-1.0658.5273-1.6046c.1407-.4567.2928-.89.4449-1.3234s.3163-.8667.48-1.3118c.2225-.609.4449-1.2063.6909-1.8154.0234-.0585.0469-.1405.07-.199.0469-.1055.0818-.2109.1287-.3163.0354-.082.07-.1874.1058-.2694.0114-.0234.0234-.0585.0349-.0819a2.5042,2.5042,0,0,0,.1052-.2694c.34-.82.6914-1.6163,1.0425-2.4244.3517-.7964.7143-1.6046,1.1009-2.4011.1761-.3864.3631-.7847.5622-1.1828.1172-.2343.2224-.4568.34-.6676.1875-.41.3986-.82.609-1.2182.34-.6675.6908-1.3234,1.066-1.991.0583-.1171.1287-.2225.1876-.3514.4215-.7612.8549-1.4991,1.2764-2.237a.8.8,0,0,0,.0818-.1288c.3986-.6676.7966-1.3352,1.2067-1.9911a.6525.6525,0,0,0,.0932-.1522.2678.2678,0,0,1,.0469-.0586c.1058-.164.2-.3162.2928-.4685q.6853-1.0892,1.4057-2.1433c.4335-.6442.8784-1.2884,1.3353-1.9091.2808-.3982.55-.7964.855-1.1829.1876-.2694.3866-.5271.5856-.7848.2693-.3747.55-.7378.8315-1.1009.41-.527.82-1.0541,1.2416-1.5694.2928-.3748.609-.75.9253-1.1244.4215-.5153.8549-1.0189,1.3-1.5226.2344-.2928.4918-.5738.75-.8549.3163-.3631.6325-.7262.96-1.0776.0583-.0585.1172-.1288.1756-.1874.3162-.3279.609-.6558.9253-.9838.2579-.2694.5038-.527.7732-.7964.0114-.0234.0348-.0351.0583-.0586.2813-.3045.5621-.5856.867-.8784.4683-.4919.96-.96,1.4405-1.4288a95.07,95.07,0,0,1,61.0554-26.3993c1.7568-.07,3.2911-.1171,4.72-.1171.4563,0,.89,0,1.3462.0235.621.0116,1.23.0234,1.8386.0468.2345.0117.4684.0117.7028.0235.1876,0,.3752.0116.5742.0233.55.0235,1.0889.0469,1.6276.0937h.0354c.4564.0235.9019.0469,1.3468.0938.3163.0233.6445.0585.9722.082.398.0351.8081.07,1.23.117.41.0352.82.082,1.2415.1289.2814.0234.5742.07.8436.1054.386.0468.75.0937,1.1477.14.4221.0469.8435.1171,1.265.1874.48.082.9608.14,1.4406.2343.3631.0469.7143.1054,1.0774.1757.5267.0936,1.0654.1991,1.5927.3045a1.4845,1.4845,0,0,1,.3283.07c.6325.1171,1.2644.2459,1.8969.3981.7029.1523,1.3937.3046,2.0851.48q.8252.1932,1.651.4216h.0469c.012,0,.0355.0117.0469.0117.2814.0937.5387.1523.82.2343a.1686.1686,0,0,1,.0818.0234c.3866.0937.7611.2108,1.1363.3162.3283.0937.6445.1874.9722.2928a1.1867,1.1867,0,0,0,.14.0351c.1756.0586.34.1055.4924.164a4.855,4.855,0,0,1,.5856.1757c.187.0586.3746.1288.5736.1874.398.1171.7966.246,1.1832.3748.843.2928,1.6865.5856,2.5295.9018.6674.2459,1.3468.5154,2.0261.773.8436.328,1.7334.7028,2.74,1.1361,1.9444.8315,3.76,1.6982,5.3763,2.5181a95.8162,95.8162,0,0,1,20.8828,14.4528,96.8611,96.8611,0,0,1,13.5394,15.2493l.1641-.07,2.6815,4.228c.867,1.37,1.6751,2.7406,2.4717,4.146l.3512.6208c.1521.2577.3162.55.4214.75.0469.0819.0938.1991.1756.34a3.0632,3.0632,0,0,0,.1527.2694c.3042.5973.7143,1.3469.7143,1.3469l.4335.855,1.1357,2.3424c.07.1406.1876.3983.2928.6207.0355.07.07.164.1053.246l.024.0352a.7973.7973,0,0,0,.0583.1171c.3511.773.6908,1.546,1.0071,2.3073.1756.41.3517.8315.5153,1.2531.1761.41.34.8316.5158,1.265a3.1652,3.1652,0,0,0,.1167.3045,1.0274,1.0274,0,0,0,.0469.1054c.0234.07.0354.1289.0583.1874.0709.1757.1407.3631.2.5388l0,0v0a155.9918,155.9918,0,0,0,49.5537-79.28c.199-.7613.3866-1.5343.5621-2.3073.1756.773.3632,1.546.5622,2.3073a155.9929,155.9929,0,0,0,49.5536,79.28l.0006,0v0c.0589-.1757.1287-.3631.2-.5388.0228-.0585.0349-.1171.0583-.1874a1.05,1.05,0,0,0,.0469-.1054,3.1652,3.1652,0,0,0,.1167-.3045c.1761-.4334.34-.855.5158-1.265.1636-.4216.34-.8432.5153-1.2531.3162-.7613.6559-1.5343,1.0071-2.3073a.7973.7973,0,0,0,.0583-.1171l.024-.0352c.0349-.082.07-.1756.1052-.246.1053-.2224.2225-.48.2928-.6207l1.1358-2.3424.4335-.855s.41-.75.7143-1.3469a3.0632,3.0632,0,0,0,.1527-.2694c.0817-.1405.1286-.2577.1755-.34.1052-.1991.2694-.4919.4215-.75l.3511-.6208c.7967-1.4054,1.6047-2.7757,2.4717-4.146l2.6821-4.228.1636.07a96.8555,96.8555,0,0,1,13.5393-15.2493,95.8192,95.8192,0,0,1,20.8829-14.4528c1.6161-.82,3.4319-1.6866,5.3763-2.5181,1.007-.4333,1.8969-.8081,2.74-1.1361.6794-.2576,1.3588-.5271,2.0262-.773.8429-.3162,1.6865-.609,2.5294-.9018.3866-.1288.7852-.2577,1.1833-.3748.199-.0586.3865-.1288.5736-.1874a4.8442,4.8442,0,0,1,.5856-.1757c.1527-.0585.3168-.1054.4924-.164a1.1867,1.1867,0,0,0,.14-.0351c.3282-.1054.6445-.1991.9722-.2928.3751-.1054.75-.2225,1.1363-.3162a.1683.1683,0,0,1,.0818-.0234c.2813-.082.5387-.1406.82-.2343.0114,0,.0348-.0117.0468-.0117h.0469q.8253-.2285,1.6511-.4216c.6914-.1757,1.3822-.328,2.085-.48.6326-.1522,1.2645-.281,1.897-.3981a1.4849,1.4849,0,0,1,.3282-.07c.5273-.1054,1.066-.2109,1.5927-.3045.3632-.07.7143-.1288,1.0775-.1757.48-.0938.9607-.1523,1.44-.2343.4221-.07.8436-.1405,1.265-.1874.3981-.0468.7618-.0937,1.1478-.14.2694-.0352.5622-.082.8435-.1054.4215-.0469.8316-.0937,1.2416-.1289.4215-.0468.8315-.0819,1.2295-.117.3277-.0235.656-.0587.9722-.082.445-.0469.89-.07,1.3468-.0938h.0355c.5387-.0468,1.0774-.07,1.6276-.0937.199-.0117.3866-.0233.5741-.0233.2345-.0118.4684-.0118.7029-.0235.609-.0234,1.2175-.0352,1.8386-.0468.4569-.0235.89-.0235,1.3468-.0235,1.4291,0,2.9635.0469,4.72.1171a95.07,95.07,0,0,1,61.0553,26.3993c.48.4684.9722.9369,1.4406,1.4288.3048.2928.5856.5739.867.8784.0234.0235.0469.0352.0583.0586.2694.2694.5153.527.7732.7964.3162.328.609.6559.9253.9838.0583.0586.1172.1289.1756.1874.3277.3514.6439.7145.96,1.0776.2579.2811.5152.5621.75.8549.4449.5037.8784,1.0073,1.3,1.5226.3162.3748.6325.75.9253,1.1244.4215.5153.8315,1.0424,1.2415,1.5694.2814.3631.5622.7262.8316,1.1009.199.2577.398.5154.5856.7848.3048.3865.5741.7847.8549,1.1829.457.6207.9019,1.2649,1.3354,1.9091q.7206,1.054,1.4057,2.1433c.0938.1523.1875.3045.2928.4685a.2414.2414,0,0,1,.0469.0586.6492.6492,0,0,0,.0932.1522c.41.6559.8081,1.3235,1.2067,1.9911a.8066.8066,0,0,0,.0817.1288c.4215.7379.855,1.4758,1.2765,2.237.0589.1289.1292.2343.1876.3514.3751.6676.7262,1.3235,1.0659,1.991.2105.3983.4215.8082.6091,1.2182.1172.2108.2225.4333.34.6676.2.3981.3866.7964.5622,1.1828.3866.7965.7491,1.6047,1.1008,2.4011.3512.8081.7029,1.6045,1.0426,2.4244a2.7575,2.7575,0,0,0,.1052.2694c.0114.0234.0234.0585.0349.0819.0354.082.07.1874.1058.2694.0469.1054.0818.2108.1287.3163.0234.0585.0469.1405.07.199.2459.6091.4684,1.2064.6908,1.8154.1642.4451.3283.8784.48,1.3118s.3043.8667.4449,1.3234c.1876.5388.3632,1.0659.5273,1.6046s.34,1.0892.5033,1.628c.1172.3631.211.7379.3282,1.1127.2574.9369.5153,1.8622.7492,2.8109.0824.3162.1641.6442.2345.96.0354.1522.0818.3045.1172.4568.0938.4216.199.8433.2808,1.2532.1172.527.2345,1.0775.34,1.6045.012.0468.012.082.0234.1288.1287.6443.258,1.3118.3746,1.9677.2465,1.3234.457,2.6352.6325,3.9587l.8436,5.3407h0c.6091-.1053,1.2061-.1991,1.8037-.3279.3277-.0468.644-.1171.9837-.1874.5153-.0937,1.0191-.1991,1.5223-.3279a1.325,1.325,0,0,1,.2111-.0352c.6559-.1639,1.3119-.3162,1.9558-.48.8315-.2225,1.6516-.445,2.4711-.691.0824-.0234.1761-.0585.27-.0936a11.0332,11.0332,0,0,0,1.054-.328c.0818-.0235.14-.0351.2225-.0586.1052-.0351.2344-.082.34-.1171,1.5578-.5153,3.1156-1.1009,4.6379-1.7217.6091-.246,1.2182-.5036,1.8038-.773.4449-.1991.8784-.3982,1.3119-.609.1052-.0352.199-.0937.3042-.1406.3163-.1405.6325-.2928.9367-.4567.3866-.1874.7618-.3748,1.1364-.5739.1052-.0469.199-.1055.2928-.1523.1521-.082.3048-.1523.4449-.2342.4684-.2577.9253-.5037,1.3822-.773.3512-.1991.7029-.3865,1.054-.6091.1642-.0937.3277-.1756.48-.2811.398-.2225.7612-.4685,1.1478-.7027.8549-.527,1.71-1.0658,2.5414-1.6514.5387-.3982,1.0889-.7847,1.6282-1.1829.386-.2929.7846-.5739,1.1592-.8667.48-.3631.9722-.75,1.4526-1.1361.8429-.691,1.6864-1.3937,2.5059-2.1316.4221-.3631.8316-.7379,1.23-1.1127.808-.7613,1.6041-1.5343,2.3773-2.319q.597-.5973,1.16-1.23c.3866-.3982.7611-.82,1.1357-1.2415.3517-.3864.6914-.7847,1.0426-1.1828.0589-.07.1172-.1289.1755-.2109.3163-.3865.6445-.7847.9608-1.1829.3626-.4217.7257-.8668,1.0654-1.3117a71.2876,71.2876,0,0,0,5.1418-7.6364,70.4331,70.4331,0,0,0,9.5687-32.9463A.9829.9829,0,0,0,613.9737,191.8452Z" style="fill:#e9af49"/><path d="M623.18,237.792q4.0584.3339,8.0578.9018-1.4583-5.4989-3.127-10.9391A93.6731,93.6731,0,0,1,623.18,237.792Z" style="fill:#e9af49"/><path d="M16.56,343.81q-1.212.4216-2.3538.9487l.5621-.2811c.199-.082.48-.1991.75-.3045l.1052-.0351c.2459-.0937.4335-.1757.6091-.2343Z" style="fill:#f0ad1e"/><path d="M22.557,342.6041a23.6143,23.6143,0,0,0-5.8441,1.1595A22.4009,22.4009,0,0,1,22.557,342.6041Z" style="fill:#f0ad1e"/><path d="M2.3421,356.483c-.07.1639-.1521.3279-.211.4919-.07.1406-.1407.2811-.199.4334v-.0352c.0583-.1405.1286-.2928.187-.4334C2.19,356.7875,2.26,356.6352,2.3421,356.483Z" style="fill:#f0ad1e"/><path d="M14.2064,344.7591a23.9652,23.9652,0,0,0-3.9352,2.2956,24.6517,24.6517,0,0,0-4.4978,4.1227,23.7169,23.7169,0,0,1,4.4978-4.1578c.2225-.164.445-.3163.6789-.4685.1292-.082.3866-.2577.3866-.2577.1641-.0937.34-.2108.5158-.3162l.2105-.1288.1755-.0937c.5153-.2928.9019-.5154,1.3-.7028l.1876-.0937Z" style="fill:#f0ad1e"/><path d="M92.6664,489.8375a46.7578,46.7578,0,0,0-18.4238-7.73c.3866.0586.7618.1289,1.1483.2109A45.8072,45.8072,0,0,1,92.6664,489.8375Z" style="fill:#f0ad1e"/><path d="M106.3572,463.8834c-.5267-.3279-1.0539-.6558-1.5927-.9721.0469-.55.0938-1.1009.1287-1.6514-.0349.55-.07,1.101-.0932,1.6514C105.3267,463.2276,105.8425,463.5438,106.3572,463.8834Z" style="fill:#f0ad1e"/><path d="M110.5388,437.1212c-.6439,1.5694-1.2415,3.1739-1.78,4.7785C109.2853,440.2951,109.8829,438.7023,110.5388,437.1212Z" style="fill:#f0ad1e"/><path d="M200.8746,391.3149c-.4564-.1054-.9253-.2108-1.3937-.3162.2345.0351.4684.0937.7028.1523S200.6521,391.2681,200.8746,391.3149Z" style="fill:#f0ad1e"/><path d="M108.3371,508.4013c-.5507-1.1477-1.1478-2.2721-1.7688-3.3613C107.2128,506.1292,107.7984,507.2536,108.3371,508.4013Z" style="fill:#f0ad1e"/><path d="M125.9751,481.6976c-.21-.281-.4329-.5622-.6554-.8433.1287.164.2694.328.3981.4919C125.8,481.4634,125.8933,481.5805,125.9751,481.6976Z" style="fill:#f0ad1e"/><path d="M119.6272,474.5064c-.3866-.3866-.7726-.7614-1.1712-1.1362-.187-.1873-.3746-.363-.5736-.55a.6433.6433,0,0,0,.1052.082c.0818.082.1641.1523.2459.2343.1173.1053.2345.2108.3517.3279.21.2108.4215.41.6325.6207A4.7088,4.7088,0,0,1,119.6272,474.5064Z" style="fill:#f0ad1e"/><path d="M120.4827,475.3613c-.2928-.2928-.5741-.5739-.8555-.8549.1058.0937.211.1991.3163.2928.1058.1053.2.2108.3048.3162C120.33,475.1973,120.4118,475.2793,120.4827,475.3613Z" style="fill:#f0ad1e"/><path d="M135.9424,404.5262a76.8,76.8,0,0,0-8.4913,7.3552c-.5038.5037-1.0071,1.0191-1.4989,1.5343.48-.527.9837-1.0423,1.4989-1.5576,1.6162-1.628,3.4085-3.2561,5.27-4.8372,1.0071-.8316,2.0731-1.6748,3.1974-2.5181C135.93,404.5028,135.93,404.5145,135.9424,404.5262Z" style="fill:#f0ad1e"/><path d="M139.5968,486.3708c-.3866-1.4523-.7383-2.9163-1.0311-4.3921C138.8705,483.4545,139.2222,484.9185,139.5968,486.3708Z" style="fill:#f0ad1e"/><path d="M2.3421,356.483c-.07.1639-.1521.3279-.211.4919a.0424.0424,0,0,1-.012-.0352C2.19,356.7875,2.26,356.6352,2.3421,356.483Z" style="fill:#f0ad1e"/><path d="M10.2712,347.02v.0351a24.6517,24.6517,0,0,0-4.4978,4.1227A23.7169,23.7169,0,0,1,10.2712,347.02Z" style="fill:#f0ad1e"/><path d="M625.0536,343.81q1.2122.4216,2.3539.9487l-.5622-.2811c-.199-.082-.48-.1991-.75-.3045l-.1053-.0351c-.2459-.0937-.4335-.1757-.609-.2343Z" style="fill:#f0ad1e"/><path d="M619.0568,342.6041a23.6143,23.6143,0,0,1,5.8441,1.1595A22.4,22.4,0,0,0,619.0568,342.6041Z" style="fill:#f0ad1e"/><path d="M639.2717,356.483c.07.1639.1521.3279.2111.4919.07.1406.1406.2811.199.4334v-.0352c-.0584-.1405-.1287-.2928-.187-.4334C639.4238,356.7875,639.3541,356.6352,639.2717,356.483Z" style="fill:#f0ad1e"/><path d="M627.4075,344.7591a23.9685,23.9685,0,0,1,3.9351,2.2956,24.6517,24.6517,0,0,1,4.4978,4.1227,23.7139,23.7139,0,0,0-4.4978-4.1578c-.2225-.164-.4449-.3163-.6788-.4685-.1293-.082-.3866-.2577-.3866-.2577-.1642-.0937-.34-.2108-.5159-.3162l-.21-.1288-.1756-.0937c-.5153-.2928-.9019-.5154-1.3-.7028l-.1876-.0937Z" style="fill:#f0ad1e"/><path d="M548.9475,489.8375a46.7574,46.7574,0,0,1,18.4237-7.73c-.3866.0586-.7617.1289-1.1483.2109A45.8067,45.8067,0,0,0,548.9475,489.8375Z" style="fill:#f0ad1e"/><path d="M535.2566,463.8834c.5267-.3279,1.054-.6558,1.5927-.9721-.0469-.55-.0938-1.1009-.1287-1.6514.0349.55.07,1.101.0932,1.6514C536.2871,463.2276,535.7713,463.5438,535.2566,463.8834Z" style="fill:#f0ad1e"/><path d="M531.075,437.1212c.6439,1.5694,1.2415,3.1739,1.78,4.7785C532.3285,440.2951,531.7309,438.7023,531.075,437.1212Z" style="fill:#f0ad1e"/><path d="M440.7393,391.3149c.4563-.1054.9253-.2108,1.3936-.3162-.2344.0351-.4683.0937-.7028.1523S440.9617,391.2681,440.7393,391.3149Z" style="fill:#f0ad1e"/><path d="M533.2767,508.4013c.5507-1.1477,1.1478-2.2721,1.7689-3.3613C534.401,506.1292,533.8154,507.2536,533.2767,508.4013Z" style="fill:#f0ad1e"/><path d="M515.6387,481.6976c.2105-.281.4329-.5622.6554-.8433-.1287.164-.2694.328-.398.4919C515.8143,481.4634,515.7205,481.5805,515.6387,481.6976Z" style="fill:#f0ad1e"/><path d="M521.9866,474.5064c.3866-.3866.7726-.7614,1.1712-1.1362.187-.1873.3746-.363.5736-.55a.6433.6433,0,0,1-.1052.082c-.0818.082-.1641.1523-.2459.2343-.1172.1053-.2345.2108-.3517.3279-.2105.2108-.4215.41-.6325.6207A4.7088,4.7088,0,0,0,521.9866,474.5064Z" style="fill:#f0ad1e"/><path d="M521.1311,475.3613c.2928-.2928.5742-.5739.8555-.8549-.1058.0937-.211.1991-.3162.2928-.1058.1053-.2.2108-.3048.3162C521.2838,475.1973,521.202,475.2793,521.1311,475.3613Z" style="fill:#f0ad1e"/><path d="M505.6714,404.5262a76.7909,76.7909,0,0,1,8.4913,7.3552c.5038.5037,1.0071,1.0191,1.4989,1.5343-.48-.527-.9836-1.0423-1.4989-1.5576-1.6161-1.628-3.4084-3.2561-5.27-4.8372-1.0071-.8316-2.073-1.6748-3.1974-2.5181C505.6834,404.5028,505.6834,404.5145,505.6714,404.5262Z" style="fill:#f0ad1e"/><path d="M502.0171,486.3708c.3865-1.4523.7383-2.9163,1.0311-4.3921C502.7433,483.4545,502.3916,484.9185,502.0171,486.3708Z" style="fill:#f0ad1e"/><path d="M639.2717,356.483c.07.1639.1521.3279.2111.4919a.0424.0424,0,0,0,.012-.0352C639.4238,356.7875,639.3541,356.6352,639.2717,356.483Z" style="fill:#f0ad1e"/><path d="M631.3426,347.02v.0351a24.6517,24.6517,0,0,1,4.4978,4.1227A23.7139,23.7139,0,0,0,631.3426,347.02Z" style="fill:#f0ad1e"/><path d="M351.0361,403.1793l-12.2509,8.14a32.837,32.837,0,0,1-13.469,5.3876,25.2869,25.2869,0,0,1-4.5093.2694,31.3608,31.3608,0,0,1-16.76-5.657l-12.2388-8.14a1.4367,1.4367,0,0,1,.4569-2.6l11.7819-2.846c1.921-.4685,3.8534-.855,5.8092-1.16a16.4038,16.4038,0,0,1,10.33,1.7568l.34.1757a1.441,1.441,0,0,0,.2808.1171,1.7932,1.7932,0,0,0,1.3468-.1054l.5742-.2928a16.5593,16.5593,0,0,1,10.2367-1.6514c1.9558.3045,3.9.691,5.8206,1.16l11.7945,2.846A1.4394,1.4394,0,0,1,351.0361,403.1793Z" style="fill:#f0ad1e"/><path d="M245.7673,267.0372a103.8068,103.8068,0,0,1-103.9568,102.95h-.2579c-.4569,0-.8784,0-1.2764-.0117l-.2111-.0117a104.319,104.319,0,0,1-30.2291-4.9543c-.7966-1.628-1.651-3.2443-2.5414-4.8488A95.6919,95.6919,0,0,0,46.31,314.0733a98.6647,98.6647,0,0,0-12.6964-2.1083c-.0349,0-.0583-.0116-.0932-.0116-9.1478-.8668-19.0677-.34-27.758,2.764-1.3.4685-2.5769,1.0073-3.842,1.5578-.5621.2459-1.1243.5036-1.6744.773.0234-2.1317.07-4.2867.1407-6.4535q.2633-6.7461.796-13.4807a324.0467,324.0467,0,0,1,4.2983-32.5363c1.7923-.328,3.5725-.5973,5.3763-.8316,1.7917-.2225,3.5839-.41,5.3757-.55l1.0425-.07.8429-.0586,2.3894-.1171.3751-.0117c.1522,0,.3157-.0117.4684-.0117l.7726-.0118c.1762-.0116.3517-.0116.5273-.0116l.9836-.0117,2.5186.082a102.9988,102.9988,0,0,0,67.0521,29.4677,55.6151,55.6151,0,0,0,48.6054,28.9173,55.0576,55.0576,0,0,0,32.7586-10.7635c13.6566-10.0607,15.987-27.6523,8.9483-40.8753a31.9756,31.9756,0,0,0-17.3813-15.097v10.81a24.81,24.81,0,0,1-.48,4.8723,24.2547,24.2547,0,0,1-48.1371-3.7362c.0235-1.6866.1173-3.3615.2694-5.0128a64.2448,64.2448,0,0,1,62.9763-58.1626h.867a66.2457,66.2457,0,0,1,7.554.4334A64.2094,64.2094,0,0,1,243.7532,251.53a61.7438,61.7438,0,0,1,1.37,6.8515A66.21,66.21,0,0,1,245.7673,267.0372Z" style="fill:#f0ad1e"/><path d="M135.3334,384.557A97.3646,97.3646,0,0,0,122.79,395.1564a94.298,94.298,0,0,0-6.8752,7.6716v-.3046a83.63,83.63,0,0,0-3.127-22.7216c.7023.2226,1.4051.4334,2.1079.6442A121.03,121.03,0,0,0,135.3334,384.557Z" style="fill:#f0ad1e"/><path d="M395.8465,267.0372a103.8068,103.8068,0,0,0,103.9568,102.95h.2579c.4569,0,.8784,0,1.2765-.0117l.211-.0117a104.319,104.319,0,0,0,30.2291-4.9543c.7967-1.628,1.651-3.2443,2.5415-4.8488a95.6917,95.6917,0,0,1,60.985-46.0873,98.66,98.66,0,0,1,12.6963-2.1083c.0349,0,.0583-.0116.0932-.0116,9.1479-.8668,19.0677-.34,27.7581,2.764,1.3.4685,2.5769,1.0073,3.8419,1.5578.5621.2459,1.1243.5036,1.6744.773-.0234-2.1317-.07-4.2867-.1406-6.4535q-.2634-6.7461-.7961-13.4807a324.0467,324.0467,0,0,0-4.2983-32.5363c-1.7922-.328-3.5725-.5973-5.3762-.8316-1.7917-.2225-3.584-.41-5.3757-.55l-1.0426-.07-.8429-.0586-2.3894-.1171-.3751-.0117c-.1521,0-.3157-.0117-.4684-.0117l-.7726-.0118c-.1761-.0116-.3517-.0116-.5273-.0116l-.9836-.0117-2.5186.082a102.9988,102.9988,0,0,1-67.0521,29.4677,55.6151,55.6151,0,0,1-48.6054,28.9173,55.0576,55.0576,0,0,1-32.7586-10.7635c-13.6565-10.0607-15.987-27.6523-8.9482-40.8753a31.975,31.975,0,0,1,17.3812-15.097v10.81a24.818,24.818,0,0,0,.48,4.8723,24.2547,24.2547,0,0,0,48.1371-3.7362c-.0235-1.6866-.1173-3.3615-.2694-5.0128a64.2448,64.2448,0,0,0-62.9763-58.1626h-.8669a66.2444,66.2444,0,0,0-7.554.4334A64.2086,64.2086,0,0,0,397.8607,251.53a61.7212,61.7212,0,0,0-1.37,6.8515A66.21,66.21,0,0,0,395.8465,267.0372Z" style="fill:#f0ad1e"/><path d="M506.2528,384.557a97.3646,97.3646,0,0,1,12.5437,10.5994,94.278,94.278,0,0,1,6.8751,7.6716v-.3046a83.63,83.63,0,0,1,3.1271-22.7216c-.7023.2226-1.4051.4334-2.108.6442A121.0264,121.0264,0,0,1,506.2528,384.557Z" style="fill:#f0ad1e"/><path d="M68.129,361.3318a63.7235,63.7235,0,0,0-39.3409-18.5169c-1.6516-.1523-3.3147-.246-5.0017-.2694h-.0349c-.398.0117-.7966.0234-1.1947.0586a23.6126,23.6126,0,0,0-5.844,1.1595,1.1087,1.1087,0,0,1-.1527.0468q-1.2121.4216-2.3539.9487a23.9572,23.9572,0,0,0-3.9351,2.2956,24.649,24.649,0,0,0-4.4979,4.1227c-.187.2225-.3746.4567-.55.6792-.246.3045-.469.6091-.7029.9253-.2224.3162-.4449.6442-.6559.9722a24.8812,24.8812,0,0,0-1.5224,2.7288c-.07.164-.1521.328-.211.492-.07.1405-.1407.2811-.199.4333a24.0435,24.0435,0,0,0-1.78,12.1689,23.6707,23.6707,0,0,0,5.3643,12.5438c.1286.14.2459.281.3745.4216a25.2051,25.2051,0,0,0,14.1484,8.14c.7143.1406,1.4406.2577,2.1669.328a22.9848,22.9848,0,0,0,2.7056.1522h10.81a31.9534,31.9534,0,0,1-9.7329,13.797,32.4543,32.4543,0,0,1-5.3643,3.5839,32.8413,32.8413,0,0,1-7.976,2.9983q1.423,5.1125,2.9515,9.9553c2.0261,6.4769,4.17,12.5906,6.3364,18.3178.199.5154.3981,1.019.5971,1.5343,2.5883,6.5471,5.3877,13.0239,8.41,19.3836a73.873,73.873,0,0,1,7.4139-3.3731c.5622-.2225,1.1123-.4216,1.6745-.6324A75.7127,75.7127,0,0,1,65.88,452.2181c.6794,0,1.3467.0117,2.0141.0352.48,0,.9722.0117,1.4526.0351l.1081-.107a52.9066,52.9066,0,0,0,12.4711-20.0358c1.784-5.0532,3.75-11.2249,4.1541-14.8974.0029-.0243,0-.0425.0023-.0662.1647-.9862.3145-1.9753.4346-2.97a66.25,66.25,0,0,0,.4329-7.5544v-.8666A63.7287,63.7287,0,0,0,68.129,361.3318Z" style="fill:#f0ad1e"/><path d="M641.4584,369.5755a23.676,23.676,0,0,1-5.3642,12.5437c-.1287.1406-.2459.2811-.3752.4216a25.2028,25.2028,0,0,1-14.1478,8.14c-.7143.1405-1.4406.2576-2.1669.3279a22.99,22.99,0,0,1-2.7055.1523h-10.81a31.9479,31.9479,0,0,0,9.7328,13.7969,32.4543,32.4543,0,0,0,5.3643,3.5839,32.8161,32.8161,0,0,0,7.976,2.9983q-1.423,5.1125-2.9514,9.9554c-2.0262,6.4768-4.17,12.5905-6.3365,18.3178-.199.5153-.398,1.019-.5976,1.5343-2.5884,6.547-5.3872,13.0239-8.409,19.3836a73.9117,73.9117,0,0,0-7.4139-3.3731c-.5621-.2225-1.1128-.4216-1.675-.6324a75.7044,75.7044,0,0,0-25.8485-4.5093c-.6794,0-1.3468.0118-2.0142.0352-.48,0-.9722.0117-1.4526.0351l-.1052-.1054c-.3517-.3513-.7028-.7027-1.0425-1.0658a51.5129,51.5129,0,0,1-8.9483-13.0356,56.3279,56.3279,0,0,1-2.4831-5.938c-.9836-2.7759-2.0142-5.903-2.8108-8.7608a59.6568,59.6568,0,0,1-1.3354-6.102v-.0351c-.0114-.0235,0-.0351-.0114-.0586-.07-.4333-.1407-.8667-.211-1.3117-.07-.5506-.1521-1.101-.2225-1.6632a66.25,66.25,0,0,1-.4335-7.5543V405.79a64.2454,64.2454,0,0,1,58.1628-62.9763c1.6516-.1522,3.3146-.246,5.0011-.2693h.0349c.3986.0116.7966.0233,1.1952.0585a23.6244,23.6244,0,0,1,5.8441,1.16,1.0854,1.0854,0,0,0,.1521.0468q1.2121.4217,2.3544.9487a23.99,23.99,0,0,1,3.9352,2.2956,24.6516,24.6516,0,0,1,4.4972,4.1227c.1876.2226.3752.4567.5508.6793.2459.3045.4683.609.7028.9253.2225.3162.4449.6441.656.972a24.9,24.9,0,0,1,1.5223,2.729c.07.164.1521.328.211.4919.07.14.14.2811.1991.4333A24.0451,24.0451,0,0,1,641.4584,369.5755Z" style="fill:#f0ad1e"/><path d="M556.873,423.3811a41.0316,41.0316,0,0,1-1.3354-6.102A59.6568,59.6568,0,0,0,556.873,423.3811Z" style="fill:#f0ad1e"/></g></g></g></svg>